<?xml version="1.0" standalone="no"?>
<!DOCTYPE svg PUBLIC "-//W3C//DTD SVG 20010904//EN"
 "http://www.w3.org/TR/2001/REC-SVG-20010904/DTD/svg10.dtd">
<svg version="1.0" xmlns="http://www.w3.org/2000/svg"
 width="1152.000000pt" height="1280.000000pt" viewBox="0 0 1152.000000 1280.000000"
 preserveAspectRatio="xMidYMid meet">
<metadata>
Created by potrace 1.15, written by Peter Selinger 2001-2017
</metadata>
<g transform="translate(0.000000,1280.000000) scale(0.100000,-0.100000)"
fill="#000000" stroke="none">
<path d="M5195 12794 c-601 -35 -1062 -119 -1545 -280 -514 -172 -977 -437
-1435 -823 -126 -106 -418 -394 -539 -531 -849 -962 -1431 -2220 -1616 -3489
-210 -1442 172 -3114 1054 -4609 805 -1367 1942 -2386 3156 -2829 278 -102
574 -171 900 -210 200 -24 663 -24 880 0 958 107 1943 467 3455 1262 452 239
1428 766 1485 804 80 52 207 178 272 268 384 533 326 1351 -112 1566 -131 65
-249 79 -415 52 -184 -30 -297 -78 -675 -287 -747 -413 -1160 -630 -1465 -769
-625 -283 -1068 -415 -1610 -480 -152 -18 -561 -16 -745 5 -947 105 -1910 446
-2649 938 -437 291 -800 633 -1068 1008 -518 724 -786 1865 -693 2953 92 1065
476 2009 1069 2630 679 710 1833 1157 2901 1124 824 -26 1456 -296 2054 -877
415 -404 707 -852 867 -1331 150 -447 159 -864 27 -1244 -41 -118 -159 -345
-247 -477 -438 -648 -1216 -1156 -1991 -1298 -148 -28 -433 -38 -579 -21 -254
30 -421 95 -548 215 -345 324 -440 879 -191 1112 73 68 142 96 254 102 166 9
316 -32 841 -227 262 -97 398 -132 543 -138 234 -11 323 34 599 302 308 299
441 538 441 796 0 313 -233 585 -734 858 -334 182 -1099 487 -1355 541 -313
66 -731 29 -1101 -98 -308 -106 -627 -279 -890 -482 -112 -87 -315 -283 -406
-392 -92 -110 -208 -287 -264 -403 -105 -216 -148 -395 -157 -651 -9 -269 22
-492 107 -769 178 -578 561 -1117 995 -1401 96 -63 235 -133 330 -167 39 -14
250 -72 470 -130 220 -59 461 -122 535 -142 527 -140 951 -235 1226 -274 742
-107 1348 -4 2454 418 385 147 561 249 763 440 205 196 364 412 518 706 502
958 651 2377 369 3520 -142 578 -380 1031 -767 1460 -758 840 -1960 1437
-3348 1664 -346 57 -649 81 -1040 85 -176 2 -347 2 -380 0z"/>
</g>
</svg>
