<?xml version="1.0" standalone="no"?>
<!DOCTYPE svg PUBLIC "-//W3C//DTD SVG 20010904//EN"
 "http://www.w3.org/TR/2001/REC-SVG-20010904/DTD/svg10.dtd">
<svg version="1.0" xmlns="http://www.w3.org/2000/svg"
 width="1268.000000pt" height="1280.000000pt" viewBox="0 0 1268.000000 1280.000000"
 preserveAspectRatio="xMidYMid meet">
<metadata>
Created by potrace 1.15, written by Peter Selinger 2001-2017
</metadata>
<g transform="translate(0.000000,1280.000000) scale(0.100000,-0.100000)"
fill="#000000" stroke="none">
<path d="M5510 12794 c-813 -57 -1539 -289 -2260 -722 -791 -474 -1544 -1225
-2089 -2085 -503 -792 -846 -1653 -1011 -2537 -31 -165 -101 -654 -119 -830
-157 -1508 282 -3107 1177 -4289 287 -379 646 -740 1013 -1017 141 -107 364
-254 524 -346 72 -41 173 -102 225 -135 647 -409 1410 -682 2192 -782 302 -39
410 -46 763 -45 445 0 725 24 1140 100 1830 333 3538 1439 4567 2959 187 276
382 610 527 905 278 563 441 1156 503 1820 16 178 16 736 0 915 -62 674 -205
1267 -458 1894 -699 1734 -2092 3174 -3684 3809 -690 275 -1391 401 -2070 373
-102 -4 -216 -4 -255 0 -80 9 -603 19 -685 13z m350 -1098 c372 -48 684 -120
997 -232 961 -342 1824 -1021 2445 -1924 810 -1179 1172 -2662 1012 -4155
-127 -1192 -589 -2299 -1334 -3195 -125 -150 -496 -524 -635 -639 -632 -525
-1336 -873 -2072 -1026 -142 -29 -181 -30 -363 -10 -1630 186 -3093 1024
-4050 2320 -139 189 -283 421 -425 685 -43 80 -97 179 -120 220 -189 334 -376
792 -500 1222 -150 522 -226 1010 -244 1561 -19 586 35 1115 170 1662 41 164
63 229 126 375 313 715 752 1347 1286 1849 808 760 1782 1208 2828 1300 155
14 741 5 879 -13z"/>
</g>
</svg>
