<?xml version="1.0" standalone="no"?>
<!DOCTYPE svg PUBLIC "-//W3C//DTD SVG 20010904//EN"
 "http://www.w3.org/TR/2001/REC-SVG-20010904/DTD/svg10.dtd">
<svg version="1.0" xmlns="http://www.w3.org/2000/svg"
 width="1280.000000pt" height="1276.000000pt" viewBox="0 0 1280.000000 1276.000000"
 preserveAspectRatio="xMidYMid meet">
<metadata>
Created by potrace 1.15, written by Peter Selinger 2001-2017
</metadata>
<g transform="translate(0.000000,1276.000000) scale(0.100000,-0.100000)"
fill="#000000" stroke="none">
<path d="M6105 12754 c-1186 -71 -2228 -403 -3179 -1013 -1553 -994 -2600
-2618 -2860 -4433 -50 -343 -60 -505 -60 -928 0 -423 10 -585 60 -928 227
-1588 1059 -3039 2318 -4045 926 -739 2049 -1213 3216 -1356 319 -39 431 -45
800 -45 369 0 481 6 800 45 1969 242 3733 1401 4732 3109 476 814 751 1676
845 2645 24 254 24 896 0 1150 -94 969 -369 1831 -845 2645 -816 1396 -2147
2435 -3707 2895 -408 120 -812 197 -1268 241 -143 13 -721 26 -852 18z m766
-299 c813 -66 1530 -263 2244 -615 268 -132 445 -233 675 -385 1224 -808 2114
-2030 2504 -3437 75 -269 136 -571 171 -840 61 -476 61 -1120 0 -1596 -225
-1741 -1203 -3305 -2675 -4277 -427 -282 -936 -532 -1400 -688 -672 -226
-1283 -327 -1990 -327 -707 0 -1318 101 -1990 327 -337 113 -798 323 -1105
504 -945 554 -1701 1320 -2240 2269 -89 156 -229 430 -223 436 2 2 22 -27 43
-64 56 -95 254 -389 343 -507 414 -550 936 -1044 1502 -1422 755 -503 1607
-824 2480 -932 437 -54 926 -56 1350 -5 708 85 1409 313 2030 662 1222 687
2138 1785 2570 3082 318 954 355 1939 110 2903 -418 1645 -1673 3011 -3255
3542 -1354 454 -2785 273 -3965 -501 -1024 -671 -1743 -1732 -1961 -2894 -60
-319 -85 -785 -60 -1091 47 -555 180 -1029 426 -1519 533 -1062 1524 -1855
2629 -2105 297 -68 499 -90 816 -89 277 0 446 14 660 55 1190 227 2194 1053
2633 2164 153 386 220 747 220 1175 0 262 -13 401 -58 625 -196 972 -879 1815
-1775 2193 -206 86 -418 147 -650 184 -122 19 -183 23 -385 23 -332 0 -530
-31 -820 -126 -626 -206 -1179 -683 -1465 -1264 -163 -329 -234 -634 -234
-995 0 -489 135 -889 430 -1280 83 -110 275 -301 384 -382 466 -348 1029 -455
1545 -293 531 166 944 618 1031 1129 20 119 15 329 -11 446 -107 482 -559 852
-976 799 -143 -18 -278 -79 -364 -165 -59 -59 -126 -180 -150 -274 -25 -94
-17 -219 17 -285 46 -88 124 -142 221 -152 l55 -6 6 54 c3 30 7 93 10 141 5
83 4 87 -17 90 -19 3 -22 9 -20 46 2 50 44 146 80 184 36 38 132 78 205 85
146 13 292 -51 434 -192 140 -138 209 -281 233 -484 57 -467 -310 -973 -827
-1140 -146 -47 -212 -56 -412 -56 -157 0 -201 3 -289 23 -612 137 -1121 668
-1260 1315 -46 216 -53 511 -16 717 160 890 904 1600 1840 1757 153 25 583 25
730 0 445 -77 843 -259 1205 -551 111 -89 315 -296 410 -416 578 -728 758
-1677 489 -2580 -261 -877 -929 -1625 -1791 -2005 -426 -188 -845 -275 -1317
-275 -542 0 -1045 121 -1536 370 -932 472 -1645 1347 -1924 2362 -295 1076
-111 2218 512 3183 267 413 633 804 1032 1105 527 396 1142 666 1785 784 291
53 390 61 770 61 383 -1 510 -11 815 -71 751 -145 1449 -482 2075 -1003 136
-113 421 -395 541 -536 648 -759 1021 -1614 1144 -2620 22 -173 31 -666 16
-861 -88 -1194 -596 -2311 -1451 -3188 -385 -394 -763 -686 -1230 -948 -1647
-925 -3667 -882 -5325 115 -270 162 -484 314 -740 526 -177 147 -559 526 -701
696 -838 1002 -1296 2131 -1384 3405 -23 339 63 952 206 1468 390 1407 1280
2629 2504 3437 230 152 407 253 675 385 720 355 1452 554 2280 619 176 14 717
12 906 -4z"/>
</g>
</svg>
