<?xml version="1.0" standalone="no"?>
<!DOCTYPE svg PUBLIC "-//W3C//DTD SVG 20010904//EN"
 "http://www.w3.org/TR/2001/REC-SVG-20010904/DTD/svg10.dtd">
<svg version="1.0" xmlns="http://www.w3.org/2000/svg"
 width="1210.000000pt" height="1280.000000pt" viewBox="0 0 1210.000000 1280.000000"
 preserveAspectRatio="xMidYMid meet">
<metadata>
Created by potrace 1.15, written by Peter Selinger 2001-2017
</metadata>
<g transform="translate(0.000000,1280.000000) scale(0.100000,-0.100000)"
fill="#000000" stroke="none">
<path d="M7221 12785 c-122 -27 -264 -113 -338 -203 -123 -151 -171 -361 -123
-546 29 -113 73 -190 160 -277 89 -89 123 -109 317 -185 1038 -404 1873 -1042
2535 -1934 536 -723 914 -1630 1042 -2505 50 -334 70 -828 47 -1135 -113
-1519 -837 -2848 -2045 -3755 -705 -528 -1541 -869 -2401 -979 -416 -53 -918
-46 -1325 20 -1179 189 -2213 811 -2940 1769 -470 619 -779 1363 -884 2130
-59 431 -44 938 39 1361 245 1239 1035 2275 2172 2848 413 208 810 329 1313
398 149 20 722 17 875 -5 989 -144 1776 -597 2371 -1367 333 -431 580 -996
667 -1530 55 -333 55 -723 1 -1038 -144 -842 -610 -1555 -1320 -2022 -807
-531 -1782 -623 -2614 -246 -663 299 -1174 914 -1355 1626 -49 194 -59 281
-59 520 0 247 10 334 65 539 184 694 736 1232 1423 1386 688 154 1362 -151
1659 -750 147 -298 170 -604 66 -889 -106 -290 -375 -514 -666 -556 -66 -9
-184 -3 -182 9 0 3 36 23 80 44 110 53 203 146 258 259 57 116 73 183 78 334
5 123 3 137 -25 236 -81 284 -311 486 -627 549 -100 20 -311 17 -413 -5 -160
-34 -293 -90 -407 -171 -74 -52 -208 -190 -262 -270 -329 -486 -256 -1159 182
-1668 232 -270 587 -462 970 -527 114 -20 153 -22 325 -17 260 8 415 40 664
139 401 159 777 481 1005 861 159 264 266 587 301 906 26 234 1 571 -59 809
-193 754 -741 1407 -1451 1728 -501 226 -1058 298 -1610 208 -634 -104 -1249
-432 -1717 -917 -491 -508 -786 -1147 -874 -1892 -17 -136 -17 -544 -1 -680
84 -710 343 -1332 787 -1885 622 -776 1522 -1261 2530 -1365 262 -27 654 -18
930 21 1025 145 1994 703 2656 1530 199 247 323 440 469 729 259 511 401 1018
451 1603 17 205 6 681 -20 877 -122 911 -471 1709 -1060 2424 -204 248 -535
561 -817 773 -1120 845 -2622 1142 -4029 798 -1212 -297 -2276 -1010 -3021
-2025 -376 -512 -670 -1131 -838 -1765 -223 -842 -232 -1765 -25 -2635 315
-1331 1110 -2529 2219 -3347 788 -581 1712 -951 2690 -1077 296 -39 411 -45
765 -45 528 0 892 42 1390 160 1408 335 2662 1145 3565 2304 687 882 1131
1961 1269 3085 37 298 46 446 46 800 0 444 -27 755 -101 1160 -411 2253 -1940
4184 -4029 5087 -151 66 -361 148 -445 175 -67 21 -223 25 -299 8z"/>
</g>
</svg>
