<?xml version="1.0" standalone="no"?>
<!DOCTYPE svg PUBLIC "-//W3C//DTD SVG 20010904//EN"
 "http://www.w3.org/TR/2001/REC-SVG-20010904/DTD/svg10.dtd">
<svg version="1.0" xmlns="http://www.w3.org/2000/svg"
 width="1280.000000pt" height="640.000000pt" viewBox="0 0 1280.000000 640.000000"
 preserveAspectRatio="xMidYMid meet">
<metadata>
Created by potrace 1.15, written by Peter Selinger 2001-2017
</metadata>
<g transform="translate(0.000000,640.000000) scale(0.100000,-0.100000)"
fill="#000000" stroke="none">
<path d="M10981 5047 c-14 -17 3 -41 23 -34 9 4 16 13 16 21 0 19 -26 28 -39
13z"/>
<path d="M11214 4965 c-4 -9 0 -23 8 -31 20 -20 50 -7 46 20 -4 26 -45 35 -54
11z"/>
<path d="M10416 4955 c-3 -9 1 -18 10 -22 19 -7 39 11 30 26 -10 16 -33 13
-40 -4z"/>
<path d="M3541 4911 c-13 -23 10 -47 34 -37 20 7 19 42 -1 50 -22 8 -22 8 -33
-13z"/>
<path d="M389 4899 c-18 -34 3 -69 41 -69 22 0 33 6 41 24 16 35 -3 66 -41 66
-20 0 -33 -7 -41 -21z"/>
<path d="M10646 4901 c-25 -28 -17 -64 18 -76 24 -8 31 -6 47 14 24 29 24 36
-1 61 -25 25 -42 25 -64 1z"/>
<path d="M11464 4896 c-20 -15 -14 -43 12 -53 20 -8 47 19 39 39 -9 23 -30 29
-51 14z"/>
<path d="M3710 4880 c-41 -41 -13 -100 48 -100 52 0 73 74 30 104 -30 21 -54
20 -78 -4z"/>
<path d="M580 4850 c-11 -11 -20 -26 -20 -33 0 -24 31 -57 55 -57 52 0 74 65
33 94 -30 21 -44 20 -68 -4z"/>
<path d="M10894 4847 c-52 -22 -49 -98 3 -118 36 -13 70 2 83 37 21 53 -34
105 -86 81z"/>
<path d="M3282 4808 c-20 -20 -14 -66 9 -79 34 -18 69 3 69 40 0 43 -50 67
-78 39z"/>
<path d="M3906 4798 c-13 -19 -14 -25 -2 -43 18 -27 43 -31 67 -9 23 21 24 37
3 58 -22 22 -50 20 -68 -6z"/>
<path d="M10095 4806 c-20 -15 -15 -43 10 -52 18 -7 45 12 45 32 0 22 -35 35
-55 20z"/>
<path d="M11703 4804 c-3 -8 -1 -20 5 -26 16 -16 42 -2 42 22 0 24 -38 28 -47
4z"/>
<path d="M136 4791 c-47 -51 14 -133 73 -100 54 30 32 119 -29 119 -15 0 -35
-9 -44 -19z"/>
<path d="M772 4788 c-16 -16 -15 -53 2 -67 8 -7 27 -11 43 -9 51 6 41 88 -11
88 -12 0 -27 -5 -34 -12z"/>
<path d="M3438 4770 c-26 -26 -30 -36 -25 -68 4 -36 2 -39 -35 -59 -33 -19
-40 -20 -45 -7 -9 25 -62 46 -98 40 -49 -9 -78 -47 -78 -99 1 -37 -3 -45 -29
-60 -29 -17 -31 -17 -60 8 -41 35 -96 34 -132 -1 -25 -26 -30 -42 -27 -94 2
-21 -6 -29 -35 -43 -36 -18 -37 -18 -61 5 -30 28 -92 31 -122 4 -29 -26 -36
-70 -17 -107 20 -40 20 -39 -8 -39 -14 0 -38 -13 -55 -31 -26 -26 -31 -38 -32
-82 0 -45 -4 -55 -28 -74 l-28 -22 -23 24 c-33 35 -91 35 -119 -1 -29 -37 -27
-79 5 -111 21 -21 32 -25 64 -20 34 4 39 2 44 -20 13 -47 -10 -55 -50 -18 -49
46 -133 24 -154 -40 -10 -31 -9 -41 8 -75 19 -40 19 -40 0 -40 -11 0 -36 -16
-55 -35 -30 -30 -34 -40 -31 -73 3 -20 8 -44 11 -52 4 -10 -5 -22 -28 -37 -23
-15 -35 -18 -35 -9 0 7 -13 24 -28 39 -38 36 -89 37 -127 1 -25 -23 -27 -30
-23 -75 5 -45 3 -52 -16 -59 -16 -6 -25 -3 -38 12 -17 19 -17 21 12 48 41 38
42 95 3 135 -25 24 -33 27 -75 22 -27 -4 -48 -2 -48 2 0 5 -11 24 -24 43 l-24
36 24 11 c50 22 55 107 8 137 -22 15 -60 16 -103 3 -9 -2 -17 8 -23 28 -4 17
-19 41 -33 51 -30 24 -31 32 -5 32 27 0 60 35 60 64 0 39 -36 76 -75 76 -24 0
-39 -7 -54 -26 -26 -34 -26 -54 0 -88 l20 -26 -24 0 c-14 0 -32 -3 -40 -6 -10
-3 -20 3 -27 16 -9 17 -7 26 14 51 37 44 36 101 -3 140 -27 27 -48 33 -106 30
-13 0 -28 12 -42 34 l-22 35 24 25 c46 45 24 115 -40 131 -52 13 -109 -52 -87
-100 10 -22 8 -24 -21 -30 -21 -4 -36 -2 -46 9 -14 13 -13 17 6 30 28 20 46
75 34 106 -22 58 -78 79 -132 51 l-36 -18 -12 33 c-7 18 -23 41 -37 49 -28 19
-83 21 -113 5 -18 -10 -22 -9 -30 11 -22 58 -98 91 -149 65 -27 -13 -29 -13
-41 15 -24 53 -119 77 -168 43 -20 -14 -22 -14 -28 5 -20 62 -113 80 -167 31
-29 -26 -33 -35 -32 -79 0 -46 -2 -51 -33 -67 -18 -10 -33 -23 -33 -28 0 -5
-9 2 -21 17 -29 37 -89 37 -118 0 -29 -36 -26 -60 9 -95 25 -25 35 -29 62 -24
32 6 34 4 46 -35 12 -39 11 -43 -13 -71 -36 -43 -34 -98 4 -141 26 -29 35 -33
80 -32 66 1 76 -21 32 -72 l-31 -35 0 29 c0 62 -80 85 -119 36 -27 -35 -26
-59 4 -89 28 -29 61 -32 93 -9 21 14 22 14 22 -12 0 -15 9 -41 20 -59 l20 -32
-29 -21 c-37 -27 -47 -71 -27 -110 17 -34 65 -57 99 -48 19 4 26 0 39 -27 15
-31 14 -33 -13 -60 -24 -23 -29 -37 -29 -74 0 -38 5 -50 35 -80 31 -31 40 -34
80 -31 42 3 48 0 63 -26 13 -22 14 -30 4 -33 -18 -7 -42 -57 -42 -87 0 -14 13
-40 28 -57 40 -44 95 -44 135 1 23 26 28 39 25 73 -2 34 1 42 15 45 10 2 25
-5 32 -15 11 -15 11 -19 -2 -27 -8 -4 -21 -23 -29 -42 -33 -79 51 -154 127
-114 28 16 51 67 44 99 -8 36 19 50 47 24 19 -17 19 -17 0 -33 -49 -39 -51
-103 -5 -140 30 -24 71 -26 99 -5 28 21 34 19 34 -13 0 -19 -9 -35 -28 -49
l-27 -20 -18 23 c-37 50 -122 35 -147 -26 -11 -27 -11 -37 3 -66 16 -33 16
-34 -4 -34 -30 0 -74 -35 -89 -70 -7 -17 -10 -48 -7 -69 4 -34 2 -40 -24 -55
-27 -16 -29 -16 -53 9 -53 53 -138 16 -138 -60 0 -54 39 -89 93 -82 33 4 38 2
44 -20 4 -19 0 -32 -16 -50 l-23 -23 -20 24 c-32 39 -70 43 -100 12 -53 -52
-18 -123 55 -113 36 5 40 3 45 -21 4 -15 13 -38 21 -51 14 -22 14 -25 -5 -40
-27 -21 -44 -66 -36 -97 3 -13 20 -36 37 -50 25 -21 38 -25 67 -20 32 5 37 3
46 -22 10 -25 7 -32 -18 -60 -20 -23 -28 -43 -28 -70 0 -40 32 -102 52 -103 7
0 -3 -7 -23 -15 -60 -25 -77 -87 -34 -129 26 -27 82 -34 102 -14 7 7 12 1 17
-24 3 -19 15 -42 26 -52 19 -17 18 -18 -9 -41 -16 -13 -31 -35 -33 -48 -8 -39
16 -82 51 -94 36 -13 56 -8 89 21 l22 20 0 -27 c0 -91 107 -141 178 -81 30 25
42 24 42 -6 0 -23 47 -59 77 -59 31 0 83 51 83 82 0 13 -7 33 -15 44 -21 27
-19 34 11 34 16 0 39 13 61 35 31 31 34 39 31 82 -3 45 -1 50 31 71 30 20 36
22 45 10 46 -62 136 -33 136 43 0 50 -39 83 -86 74 -28 -5 -32 -2 -38 21 -5
18 -2 32 11 46 17 19 17 19 33 0 43 -55 120 -48 146 14 12 29 12 39 0 67 -17
42 -65 65 -101 49 -21 -10 -24 -8 -30 15 -4 17 -1 31 9 41 13 13 18 12 46 -12
89 -74 201 34 126 121 -21 24 -31 28 -70 26 -37 -1 -46 2 -51 19 -5 13 -1 24
12 33 16 12 21 11 44 -11 56 -54 149 -16 149 61 0 27 -8 44 -30 67 -27 27 -36
30 -69 24 -34 -5 -39 -3 -44 16 -4 14 0 26 11 34 14 11 21 9 43 -12 56 -54
149 -16 149 61 0 52 -36 85 -93 85 -36 0 -46 4 -50 19 -5 19 9 41 25 41 4 0
17 -9 28 -20 72 -72 191 11 146 101 -20 40 -20 39 2 39 10 0 27 7 39 15 20 14
23 14 34 -7 18 -36 51 -58 87 -58 34 0 72 15 84 33 4 6 10 -1 13 -16 4 -15 21
-39 38 -53 25 -21 38 -25 69 -21 34 5 40 2 53 -22 13 -26 12 -29 -16 -55 l-29
-28 0 24 c0 61 -89 90 -135 43 -73 -72 28 -178 109 -114 l26 20 0 -35 c0 -25
8 -43 31 -65 28 -29 29 -31 9 -31 -30 0 -70 -44 -70 -77 0 -58 61 -99 109 -73
16 8 21 8 21 -2 0 -7 9 -31 21 -52 19 -36 19 -40 4 -49 -9 -5 -23 -25 -31 -43
-13 -31 -13 -39 1 -68 19 -39 61 -61 102 -52 25 6 30 2 45 -34 16 -40 16 -41
-8 -65 -57 -58 -6 -161 76 -153 35 3 41 1 51 -24 6 -15 17 -33 25 -39 12 -10
10 -15 -11 -35 -55 -51 -19 -144 55 -144 21 0 43 8 57 22 l23 21 0 -22 c0 -89
112 -140 176 -80 l21 20 13 -31 c17 -41 46 -60 91 -60 64 0 109 75 79 130 -9
17 -5 22 25 34 49 21 77 69 73 127 -3 41 1 50 30 77 17 16 32 26 32 21 0 -19
41 -49 68 -49 56 0 85 68 47 110 -20 22 -56 26 -86 10 -16 -9 -19 -7 -19 14 0
13 -2 31 -5 38 -3 8 8 24 26 37 l31 23 14 -21 c10 -14 26 -21 49 -21 59 0 91
54 57 99 -16 21 -28 26 -59 25 -38 0 -40 1 -50 38 -9 34 -8 40 8 49 10 5 25
22 33 37 l15 27 1 -26 c0 -32 28 -59 62 -59 51 0 78 69 40 103 -23 21 -66 22
-86 1 -15 -14 -16 -13 -16 15 0 16 -4 41 -10 55 -8 21 -4 30 25 59 39 39 46
81 20 130 -14 28 -13 30 20 62 30 28 35 39 35 78 0 39 -5 49 -32 72 -26 22
-39 26 -73 23 -37 -4 -41 -2 -56 27 -14 31 -14 33 7 52 45 40 43 106 -3 149
-28 26 -79 32 -113 14 -15 -8 -20 -6 -26 12 -4 13 -20 35 -36 50 -28 26 -28
28 -9 28 30 0 61 35 61 70 0 38 -32 70 -70 70 -58 0 -90 -67 -55 -117 14 -20
13 -21 -26 -25 -32 -3 -43 0 -51 15 -8 15 -4 25 18 48 23 24 28 38 27 77 -1
44 2 49 28 61 26 12 32 10 60 -13 35 -30 69 -33 110 -9 35 21 53 62 45 101 -6
24 -3 30 17 39 22 10 28 8 53 -18 19 -20 23 -29 13 -29 -28 0 -59 -39 -59 -75
0 -24 7 -39 26 -54 34 -26 54 -26 88 0 27 22 35 64 17 98 -8 15 -3 19 34 29
59 16 89 58 88 125 -1 42 3 54 26 73 l26 23 26 -25 c48 -46 119 -17 119 50 0
47 -29 70 -79 63 -37 -5 -39 -3 -45 26 -5 24 -1 36 20 58 l26 27 22 -25 c28
-33 73 -34 98 -3 25 31 19 68 -15 94 -23 17 -32 19 -57 9 -28 -11 -30 -10 -30
14 0 13 -5 33 -10 44 -9 16 -6 23 15 42 35 29 48 90 30 133 -12 30 -12 34 5
39 11 3 29 20 41 36 17 25 20 40 17 81 -5 49 -4 53 33 88 33 31 39 43 39 79 0
23 -7 55 -15 71 -14 27 -14 30 15 59 42 41 41 91 -1 133 -27 27 -35 30 -73 25
-41 -6 -43 -5 -59 28 -32 66 -109 92 -175 57 l-38 -20 -32 29 c-44 39 -84 38
-124 -1z m126 -156 c9 -24 7 -28 -9 -14 -17 14 -20 30 -6 30 5 0 12 -7 15 -16z
m-3121 -28 c6 -16 -2 -28 -14 -20 -12 7 -11 34 0 34 5 0 11 -6 14 -14z m3357
-57 c0 -9 -37 -18 -44 -11 -4 3 2 14 11 24 13 14 18 16 25 6 4 -7 8 -16 8 -19z
m-3160 -7 c0 -13 -12 -22 -22 -16 -10 6 -1 24 13 24 5 0 9 -4 9 -8z m190 -72
c-9 -6 -19 -5 -25 1 -6 6 -5 13 5 19 9 6 19 5 25 -1 6 -6 5 -13 -5 -19z m202
-34 c4 -18 0 -26 -16 -30 -27 -7 -39 14 -19 36 22 24 30 23 35 -6z m1778 -197
c0 -24 -12 -24 -34 0 -17 18 -17 19 1 23 25 6 33 0 33 -23z m-2392 -295 c-16
-16 -38 -12 -38 6 0 8 41 19 49 13 3 -2 -2 -11 -11 -19z m1249 -167 c-11 -4
-27 -5 -35 -2 -12 4 -10 10 9 31 l23 25 12 -23 c11 -20 10 -24 -9 -31z m126
-248 c-7 -7 -19 -9 -29 -5 -16 6 -16 8 2 21 22 16 45 2 27 -16z m582 1 c-5 -8
-11 -8 -17 -2 -6 6 -7 16 -3 22 5 8 11 8 17 2 6 -6 7 -16 3 -22z m-235 -124
c-7 -7 -16 -5 -28 8 -16 16 -16 18 3 32 18 13 20 12 28 -7 4 -13 3 -27 -3 -33z
m-1066 -85 c3 -5 -5 -16 -19 -25 -14 -9 -25 -14 -25 -12 0 2 -3 11 -6 19 -5
14 5 20 38 26 4 0 9 -3 12 -8z m949 -316 c8 -19 -13 -31 -24 -14 -13 20 -11
29 5 29 8 0 16 -7 19 -15z m-1088 -26 c9 -29 -2 -36 -20 -13 -18 24 -19 34 -1
34 8 0 18 -9 21 -21z m1274 -32 c8 -11 6 -18 -8 -31 -18 -17 -20 -16 -26 3
-11 36 12 54 34 28z m-399 -79 c0 -4 -8 -8 -19 -8 -18 0 -35 33 -23 44 6 7 42
-23 42 -36z m1425 2 c3 -6 -1 -13 -10 -16 -19 -8 -30 0 -20 15 8 14 22 14 30
1z m140 -269 c6 -11 -33 -26 -43 -16 -4 3 0 10 8 15 19 12 27 12 35 1z m-925
-134 c0 -7 -9 -18 -21 -25 -17 -11 -23 -10 -39 10 l-18 23 31 6 c37 6 47 3 47
-14z m-1624 -508 c4 -7 -4 -20 -17 -30 -23 -18 -24 -18 -41 4 -16 21 -16 22 5
29 34 10 45 9 53 -3z m134 -273 c0 -7 -11 -23 -25 -36 -25 -23 -25 -23 -25 -3
0 12 -3 28 -6 36 -4 11 2 17 18 19 28 5 38 1 38 -16z m1883 17 c3 -5 -8 -23
-23 -41 l-28 -33 -4 35 c-2 20 1 38 7 40 17 7 44 6 48 -1z m208 -59 c11 -14 9
-19 -11 -34 -18 -14 -27 -15 -32 -7 -12 18 -9 45 5 50 20 9 24 8 38 -9z
m-1867 -19 c15 -15 20 -25 12 -25 -7 0 -25 -9 -39 -20 l-25 -20 -5 33 c-4 22
0 36 11 45 20 15 17 16 46 -13z"/>
<path d="M11133 4777 c-48 -25 -57 -80 -20 -115 46 -43 120 -15 120 46 0 54
-55 93 -100 69z"/>
<path d="M5646 4761 c-10 -16 5 -42 23 -39 21 4 21 42 -1 46 -9 2 -19 -1 -22
-7z"/>
<path d="M10310 4750 c-11 -11 -20 -31 -20 -45 0 -55 77 -87 113 -47 37 41 6
112 -48 112 -14 0 -34 -9 -45 -20z"/>
<path d="M5869 4726 c-51 -25 -48 -103 5 -128 20 -9 30 -8 50 6 70 45 18 159
-55 122z"/>
<path d="M7370 4720 c-51 -51 7 -134 66 -95 32 21 33 77 2 99 -30 21 -44 20
-68 -4z"/>
<path d="M972 4718 c-30 -30 3 -77 40 -57 30 16 16 69 -17 69 -6 0 -16 -5 -23
-12z"/>
<path d="M11957 4724 c-8 -8 1 -24 14 -24 5 0 9 7 9 15 0 15 -12 20 -23 9z"/>
<path d="M10535 4685 c-53 -52 -14 -144 61 -145 60 0 105 59 85 113 -16 40
-40 57 -82 57 -29 0 -47 -7 -64 -25z"/>
<path d="M11375 4699 c-49 -28 -58 -70 -24 -113 40 -51 129 -20 129 46 0 52
-62 91 -105 67z"/>
<path d="M3020 4671 c-16 -31 -12 -49 15 -67 36 -24 75 -6 75 34 0 15 -5 33
-12 40 -19 19 -66 15 -78 -7z"/>
<path d="M7580 4660 c-26 -26 -35 -66 -21 -96 15 -34 15 -34 -16 -34 -16 0
-43 -9 -62 -21 l-34 -21 -21 25 c-84 100 -229 29 -213 -103 6 -46 5 -47 -30
-64 -36 -17 -36 -17 -57 7 -28 33 -57 47 -100 47 -73 0 -142 -100 -117 -170 9
-27 7 -30 -35 -55 -24 -14 -44 -31 -44 -38 0 -6 -13 4 -29 23 -24 29 -35 35
-71 35 -55 0 -90 -37 -90 -96 0 -72 58 -121 117 -98 31 11 29 13 37 -33 8 -47
-8 -58 -35 -24 -42 53 -105 69 -159 41 -28 -14 -28 -14 -47 23 -13 24 -35 46
-66 62 -40 21 -51 23 -85 14 -37 -10 -39 -9 -55 19 -17 28 -17 30 12 63 17 18
33 50 37 69 19 102 -86 187 -175 141 -27 -14 -28 -14 -40 19 -30 83 -137 124
-206 79 -21 -14 -23 -13 -35 16 -14 34 -53 65 -94 76 -33 8 -110 -20 -130 -47
-13 -19 -14 -19 -21 8 -12 49 -53 83 -101 83 -75 0 -129 -72 -105 -142 14 -39
14 -38 -7 -38 -9 0 -34 -11 -55 -25 l-37 -26 -29 33 c-24 27 -36 33 -69 33
-96 0 -143 -123 -75 -197 15 -17 15 -18 -8 -18 -32 0 -84 -32 -106 -66 -20
-32 -24 -127 -5 -146 18 -18 16 -22 -22 -42 -66 -35 -97 -141 -61 -210 15 -28
14 -29 -27 -65 -37 -33 -41 -42 -46 -92 -5 -60 15 -115 45 -126 11 -4 3 -12
-28 -27 -83 -40 -100 -136 -37 -200 26 -26 34 -28 83 -24 42 4 55 1 55 -9 0
-8 7 -28 16 -45 15 -28 14 -31 -5 -45 -51 -35 -67 -131 -31 -190 27 -45 73
-66 127 -60 41 4 44 3 59 -29 9 -19 20 -37 24 -39 5 -3 -4 -18 -20 -34 -59
-59 -43 -157 32 -194 41 -20 75 -16 107 14 11 10 22 19 24 19 3 0 7 -17 11
-38 14 -89 97 -132 187 -97 12 4 20 -3 29 -25 7 -17 29 -44 49 -60 31 -26 33
-30 14 -30 -35 0 -53 -11 -69 -42 -29 -55 13 -128 73 -128 63 0 97 98 51 147
l-21 23 40 0 c23 0 48 3 56 6 9 3 23 -8 37 -32 21 -33 22 -37 7 -46 -23 -12
-47 -61 -47 -93 0 -54 49 -105 100 -105 70 0 123 88 90 149 -8 15 -3 20 26 29
30 9 36 8 49 -11 13 -18 12 -22 -5 -34 -68 -47 -65 -171 4 -217 32 -20 95 -21
123 -1 20 14 22 13 28 -15 16 -71 81 -115 160 -107 48 5 52 4 68 -25 17 -30
17 -31 -4 -46 -25 -17 -49 -70 -49 -107 0 -60 63 -125 121 -125 70 0 132 87
113 159 -10 36 -10 37 27 53 37 16 38 15 63 -11 l26 -27 -36 -13 c-97 -35 -97
-189 -1 -220 43 -15 97 4 122 42 24 37 22 103 -4 137 l-21 29 34 6 c20 4 48
21 67 41 32 33 34 39 34 105 0 55 3 70 16 74 9 3 24 14 34 25 18 20 19 20 51
-15 27 -30 38 -35 76 -35 36 0 50 6 72 29 35 36 44 96 22 138 -15 30 -15 31
10 37 44 11 72 36 95 83 17 36 20 55 15 97 -5 48 -4 54 16 63 19 8 27 5 53
-23 41 -43 96 -54 144 -28 57 31 76 66 76 138 0 58 2 63 30 82 l30 20 30 -34
c22 -25 41 -35 70 -38 49 -6 82 10 113 56 20 29 23 43 19 87 -5 45 -3 53 14
58 10 4 32 18 48 31 l30 25 11 -21 c6 -12 27 -28 46 -36 49 -20 99 1 120 52
19 45 11 84 -24 119 -24 24 -33 27 -72 22 -45 -5 -46 -5 -56 29 -10 31 -9 36
10 50 19 13 23 13 41 -9 55 -67 142 -62 186 10 58 94 -34 222 -133 184 -23 -9
-26 -7 -31 17 -4 18 0 33 12 45 17 18 19 17 53 -17 29 -29 44 -36 76 -36 104
0 152 141 72 213 -27 24 -39 28 -83 26 -42 -3 -51 0 -58 16 -5 14 1 28 18 47
l26 27 32 -35 c86 -91 212 24 145 133 -22 37 -54 48 -105 39 -31 -6 -35 -4
-35 13 0 11 -8 36 -17 56 -17 35 -17 35 12 65 41 42 47 120 13 170 -29 43 -87
66 -130 51 -26 -9 -29 -8 -46 32 l-19 42 28 32 c75 87 24 223 -84 223 -23 0
-48 -4 -56 -9 -11 -7 -19 -1 -32 28 -9 20 -30 49 -47 63 l-31 26 29 6 c32 6
60 48 60 91 0 35 -42 75 -78 75 -69 0 -102 -100 -48 -147 l29 -24 -34 6 c-19
3 -45 2 -59 -3 -22 -8 -29 -4 -61 31 l-36 41 29 24 c37 32 40 97 5 130 -29 28
-80 29 -107 2z m-1894 -317 c-7 -8 -46 26 -46 40 0 5 8 16 18 23 15 11 18 9
26 -22 4 -19 6 -38 2 -41z m228 -68 c3 -9 0 -15 -9 -15 -8 0 -15 7 -15 15 0 8
4 15 9 15 5 0 11 -7 15 -15z m-556 -74 c8 -23 7 -32 -3 -41 -11 -9 -20 -6 -39
17 -31 35 -32 41 -3 46 12 2 25 5 29 6 3 0 11 -12 16 -28z m795 -14 c-8 -5
-22 -6 -31 -2 -15 5 -14 9 8 25 23 18 25 18 31 2 4 -10 0 -21 -8 -25z m1739
-69 c-30 -12 -35 -8 -17 12 14 16 20 17 26 8 5 -8 2 -16 -9 -20z m-2602 -182
c0 -24 -15 -26 -28 -5 -11 16 -9 19 8 19 11 0 20 -6 20 -14z m-70 -255 c0 -5
-7 -12 -16 -15 -22 -9 -24 -8 -24 9 0 8 9 15 20 15 11 0 20 -4 20 -9z m-82
-241 c1 -8 -7 -21 -18 -28 -18 -11 -23 -10 -40 10 -18 23 -18 23 3 30 32 9 51
5 55 -12z m1945 -1278 c-16 -11 -19 -9 -25 15 -13 46 0 62 22 28 19 -28 19
-31 3 -43z m-799 17 c-21 -23 -30 -24 -38 -4 -4 10 2 19 17 24 31 12 41 2 21
-20z"/>
<path d="M6094 4650 c-28 -11 -46 -63 -34 -95 10 -25 38 -45 65 -45 25 0 65
46 65 75 0 27 -40 75 -62 74 -7 0 -23 -4 -34 -9z"/>
<path d="M1164 4639 c-9 -15 11 -33 30 -26 9 4 13 13 10 22 -7 17 -30 20 -40
4z"/>
<path d="M10769 4621 c-64 -64 -18 -181 71 -181 34 0 79 28 96 61 52 102 -86
201 -167 120z"/>
<path d="M5330 4620 c-24 -24 -25 -48 -4 -78 29 -42 94 -14 94 40 0 22 -34 58
-55 58 -8 0 -24 -9 -35 -20z"/>
<path d="M9770 4620 c0 -13 7 -20 18 -20 24 0 32 8 25 26 -8 22 -43 17 -43 -6z"/>
<path d="M11599 4599 c-28 -28 -22 -76 13 -102 68 -51 143 46 82 107 -22 22
-70 20 -95 -5z"/>
<path d="M9990 4590 c-41 -41 -13 -112 45 -112 58 0 86 71 45 112 -11 11 -31
20 -45 20 -14 0 -34 -9 -45 -20z"/>
<path d="M7073 4590 c-39 -16 -57 -85 -33 -129 15 -28 61 -44 94 -32 50 20 67
109 27 145 -22 20 -61 27 -88 16z"/>
<path d="M11004 4546 c-26 -26 -34 -42 -34 -70 0 -40 22 -91 42 -99 7 -3 2 -6
-12 -6 -14 -1 -44 -12 -67 -26 -40 -22 -43 -23 -43 -5 0 28 -46 77 -85 90 -46
15 -97 4 -132 -30 l-29 -29 -12 45 c-27 102 -171 115 -216 20 -22 -47 -20 -77
8 -118 l24 -36 -36 -5 c-19 -4 -47 -18 -63 -33 l-27 -26 -6 30 c-4 16 -21 42
-37 58 -25 24 -39 29 -79 29 -40 0 -54 -5 -79 -29 -52 -50 -54 -121 -5 -169
l27 -27 -38 0 c-30 0 -45 -8 -76 -39 -34 -34 -39 -44 -39 -85 0 -26 7 -60 15
-77 15 -29 15 -29 -12 -40 -15 -6 -38 -20 -50 -31 l-22 -21 -7 27 c-3 14 -22
39 -40 56 -77 67 -194 12 -194 -92 0 -30 33 -84 60 -98 36 -19 99 -15 131 9
l29 22 0 -29 c0 -15 7 -37 15 -48 18 -24 19 -34 1 -34 -8 0 -28 -11 -43 -24
l-29 -25 -13 35 c-23 62 -110 93 -169 60 -35 -19 -62 -66 -62 -109 0 -29 8
-46 34 -75 31 -33 40 -37 84 -37 33 0 56 6 69 18 25 22 33 22 33 -3 0 -12 7
-34 15 -50 15 -29 14 -30 -13 -44 -16 -8 -34 -22 -41 -30 -12 -14 -16 -10 -35
27 -14 29 -33 48 -60 61 -36 17 -43 18 -80 5 -91 -31 -112 -132 -42 -196 46
-43 100 -45 145 -7 30 25 31 25 31 4 0 -11 9 -38 19 -59 l20 -38 -35 -16 c-77
-37 -98 -146 -40 -206 l27 -28 -45 -17 c-24 -9 -52 -29 -62 -44 -22 -34 -22
-103 0 -137 37 -56 124 -68 180 -24 l26 20 0 -21 c0 -26 15 -57 43 -87 l20
-23 -24 0 c-52 0 -99 -59 -99 -124 0 -68 85 -132 149 -111 12 3 35 18 51 32
l30 25 0 -27 c0 -94 114 -156 197 -106 l31 20 11 -30 c5 -16 21 -40 34 -53
l24 -24 -39 -11 c-53 -16 -81 -61 -75 -121 7 -62 49 -100 113 -100 39 0 51 5
80 34 40 40 46 92 14 143 l-20 33 28 6 c15 4 37 13 49 20 21 13 24 12 43 -25
11 -22 25 -43 31 -46 6 -4 -6 -15 -29 -25 -85 -38 -96 -151 -20 -204 33 -23
109 -21 141 4 51 40 58 121 15 167 l-20 21 34 7 c18 4 42 14 54 22 20 13 22
11 34 -17 7 -17 23 -39 36 -49 l24 -19 -34 -6 c-106 -20 -117 -174 -17 -216
104 -43 196 80 130 172 -25 35 -24 38 9 38 15 0 41 9 59 19 l31 20 12 -29 c21
-50 55 -73 115 -78 53 -4 56 -3 95 36 l40 40 0 -35 c0 -26 8 -43 34 -69 29
-29 41 -34 80 -34 36 0 52 6 78 29 29 26 33 36 33 80 0 41 -5 55 -29 80 l-30
31 35 0 c52 0 94 31 114 84 18 46 16 67 -11 134 -3 6 1 12 9 12 8 0 26 9 40
20 14 11 27 20 29 20 2 0 12 -15 22 -34 20 -38 71 -66 123 -66 28 0 44 8 74
39 33 33 39 45 39 82 0 25 -8 57 -18 74 l-18 29 40 21 c78 39 105 114 67 187
l-18 37 29 12 c15 6 39 25 53 40 l24 29 6 -32 c16 -84 100 -122 171 -79 63 38
66 134 7 181 -40 32 -107 27 -144 -9 l-29 -29 0 31 c0 18 -8 48 -18 67 l-17
35 38 17 c29 13 43 29 58 64 25 56 20 100 -17 144 -23 27 -24 30 -7 30 33 0
84 40 99 77 21 50 10 99 -31 140 -28 28 -40 33 -82 33 -28 0 -58 -6 -69 -15
-25 -19 -34 -19 -34 3 0 9 -8 30 -18 47 l-18 29 30 16 c40 20 66 59 72 106 13
100 -99 176 -190 129 -16 -9 -29 -14 -30 -13 -1 2 -11 22 -24 45 l-22 42 30
16 c61 32 84 102 56 168 -28 68 -124 94 -184 50 l-29 -22 -12 39 c-7 23 -25
50 -44 64 -32 26 -32 26 -7 26 65 0 118 68 106 134 -18 94 -159 118 -202 35
-25 -49 -18 -97 20 -135 30 -30 31 -33 11 -28 -13 3 -43 -3 -69 -14 -44 -20
-45 -20 -51 -1 -4 10 -17 32 -31 48 l-24 29 36 12 c73 24 98 123 47 180 -55
60 -137 55 -181 -10 -29 -43 -25 -100 9 -136 l22 -24 -24 0 c-13 0 -41 -9 -61
-20 l-36 -19 -6 25 c-4 14 -17 36 -30 49 l-24 24 32 11 c132 43 99 220 -40
220 -28 0 -44 -8 -70 -34z m-359 -311 c5 -16 -1 -23 -27 -34 -18 -8 -36 -16
-40 -19 -5 -2 -8 3 -8 11 0 8 -11 26 -25 41 -31 33 -31 36 -1 36 14 0 38 11
53 24 l28 24 7 -31 c3 -18 9 -41 13 -52z m231 -59 c10 -32 9 -35 -13 -45 -13
-6 -28 -11 -32 -11 -12 0 -34 54 -23 58 5 1 18 9 28 17 26 20 28 19 40 -19z
m-586 -142 c-31 -18 -36 -19 -44 -5 -5 9 -20 28 -34 44 l-26 27 23 0 c27 0 81
30 81 45 1 5 9 -12 18 -40 l17 -50 -35 -21z m827 56 c10 -28 9 -31 -13 -36
-18 -5 -29 -1 -39 12 -12 17 -11 21 8 36 29 23 31 23 44 -12z m249 -78 c10
-26 9 -30 -16 -39 -25 -9 -29 -8 -39 15 -7 13 -10 26 -9 27 8 6 44 24 48 25 3
0 10 -13 16 -28z m-839 -39 c-18 -9 -24 -8 -35 9 -15 21 -16 20 13 36 17 9 22
7 32 -11 10 -19 8 -24 -10 -34z m1083 -11 c0 -10 7 -28 16 -40 14 -20 14 -23
-3 -28 -10 -3 -26 -10 -36 -15 -11 -6 -20 -9 -20 -7 -1 2 -10 18 -20 36 -14
25 -15 32 -4 32 8 0 22 9 32 20 22 25 35 26 35 2z m-839 -55 c-13 -13 -26 -3
-16 12 3 6 11 8 17 5 6 -4 6 -10 -1 -17z m-553 -66 c9 -26 7 -30 -15 -40 -21
-10 -27 -8 -43 11 -25 29 -25 38 -1 38 11 0 23 5 26 10 11 18 23 11 33 -19z
m230 -92 c-2 -6 -8 -10 -13 -10 -5 0 -11 4 -13 10 -2 6 4 11 13 11 9 0 15 -5
13 -11z m1070 -90 c-18 -11 -32 6 -24 28 7 17 8 17 22 -1 11 -16 11 -21 2 -27z
m263 -53 l15 -34 -32 -10 c-29 -9 -33 -7 -43 15 -10 21 -8 27 11 43 30 25 30
25 49 -14z m-1647 -12 c9 -24 8 -28 -13 -41 -16 -10 -22 -8 -35 13 -16 23 -16
25 6 34 32 12 35 12 42 -6z m-78 -246 c4 -15 1 -25 -12 -35 -16 -12 -21 -11
-36 9 -16 22 -16 23 5 35 30 17 35 16 43 -9z m1632 -1 c2 -10 -3 -17 -11 -17
-16 0 -30 24 -19 34 10 10 27 1 30 -17z m252 -38 c0 -6 9 -23 20 -38 l19 -28
-38 -12 c-21 -6 -41 -11 -43 -11 -7 0 -32 60 -27 64 20 15 55 36 61 36 5 0 8
-5 8 -11z m-1967 -245 c-26 -20 -36 -17 -53 14 -16 26 -15 27 15 37 27 10 31
8 43 -13 12 -21 11 -25 -5 -38z m1627 36 c0 -5 -4 -10 -10 -10 -5 0 -10 5 -10
10 0 6 5 10 10 10 6 0 10 -4 10 -10z m268 -69 c19 -26 19 -29 4 -34 -9 -3 -25
-8 -34 -12 -27 -11 -45 42 -21 61 25 18 26 18 51 -15z m-1660 -22 c-2 -6 -8
-10 -13 -10 -5 0 -11 4 -13 10 -2 6 4 11 13 11 9 0 15 -5 13 -11z m-299 -149
c11 -22 17 -40 12 -40 -5 0 -23 -11 -39 -24 l-29 -25 -17 40 c-10 22 -25 43
-33 46 -9 4 3 12 34 23 26 10 49 18 49 19 1 0 11 -17 23 -39z m1611 -4 c0 -3
-4 -8 -10 -11 -5 -3 -10 -1 -10 4 0 6 5 11 10 11 6 0 10 -2 10 -4z m265 -72
c9 -14 15 -27 13 -28 -2 -1 -15 -7 -29 -13 -24 -10 -28 -9 -38 15 -11 22 -10
28 5 39 25 18 29 17 49 -13z m-1648 -14 c11 -17 10 -21 -8 -31 -23 -12 -22
-12 -38 18 -11 22 -10 23 29 32 3 0 11 -8 17 -19z m238 -90 c3 -5 -1 -10 -9
-10 -9 0 -16 5 -16 10 0 6 4 10 9 10 6 0 13 -4 16 -10z m1070 -69 c7 -12 -12
-24 -25 -16 -11 7 -4 25 10 25 5 0 11 -4 15 -9z m-825 -11 c0 -5 -4 -10 -10
-10 -5 0 -10 5 -10 10 0 6 5 10 10 10 6 0 10 -4 10 -10z m-543 -70 c15 -29 18
-40 8 -40 -7 0 -27 -13 -44 -29 -30 -28 -31 -29 -31 -6 0 12 -11 39 -25 59
l-24 36 27 0 c15 0 34 5 42 10 22 14 23 13 47 -30z m1640 5 c20 -31 20 -35 5
-35 -10 0 -28 -7 -40 -16 -13 -9 -25 -14 -26 -13 -5 7 -26 72 -24 73 2 1 12 6
23 13 30 18 38 15 62 -22z m-1406 -87 c10 -18 8 -24 -11 -40 -28 -23 -36 -23
-43 0 -2 9 -8 24 -12 34 -4 11 -1 18 12 21 35 9 42 7 54 -15z m809 -7 c0 -5
-7 -11 -15 -15 -9 -3 -15 0 -15 9 0 8 7 15 15 15 8 0 15 -4 15 -9z m-573 -108
c-30 -17 -34 -16 -41 10 -4 14 0 26 11 35 15 11 20 9 35 -10 16 -22 16 -23 -5
-35z m829 40 c7 -10 14 -21 14 -24 0 -6 -52 -32 -54 -27 0 2 -7 13 -13 25 -11
19 -10 24 5 32 24 15 33 13 48 -6z m-587 -124 c-23 -17 -24 -17 -36 4 -17 31
-16 37 10 46 17 6 25 4 36 -12 13 -18 11 -22 -10 -38z m279 -73 c-2 0 -17 -9
-34 -18 -30 -17 -32 -17 -37 0 -2 9 -8 25 -12 34 -5 12 1 21 21 31 27 14 29
14 47 -15 10 -17 17 -31 15 -32z m232 -21 c0 -7 14 -25 30 -38 28 -24 42 -45
20 -32 -15 9 -75 -21 -98 -50 l-22 -28 0 39 c-1 22 -7 50 -14 63 -13 23 -12
25 28 46 43 22 56 22 56 0z"/>
<path d="M2782 4548 c-7 -7 -12 -21 -12 -33 0 -12 5 -26 12 -33 7 -7 21 -12
33 -12 12 0 26 5 33 12 7 7 12 21 12 33 0 12 -5 26 -12 33 -7 7 -21 12 -33 12
-12 0 -26 -5 -33 -12z"/>
<path d="M4051 4551 c-7 -5 -11 -17 -9 -27 4 -25 51 -26 56 -2 4 20 -29 40
-47 29z"/>
<path d="M10231 4547 c-86 -50 -52 -177 47 -177 115 0 126 170 12 185 -20 3
-45 -1 -59 -8z"/>
<path d="M6317 4529 c-18 -25 -11 -56 14 -70 28 -15 59 6 59 39 0 51 -46 70
-73 31z"/>
<path d="M11843 4504 c-15 -23 -15 -29 -2 -52 21 -37 52 -45 83 -21 30 24 34
59 8 82 -28 26 -69 21 -89 -9z"/>
<path d="M8056 4474 c-32 -31 -10 -94 33 -94 23 0 51 31 51 57 0 23 -29 53
-53 53 -8 0 -23 -7 -31 -16z"/>
<path d="M9460 4460 c0 -5 5 -10 10 -10 6 0 10 5 10 10 0 6 -4 10 -10 10 -5 0
-10 -4 -10 -10z"/>
<path d="M5044 4426 c-9 -24 4 -48 23 -44 12 2 18 12 18 28 0 29 -32 41 -41
16z"/>
<path d="M20 4410 c-11 -11 -20 -29 -20 -40 0 -22 33 -60 53 -60 52 0 77 75
35 104 -30 21 -44 20 -68 -4z"/>
<path d="M9675 4410 c-22 -25 -13 -68 17 -79 54 -20 94 27 64 74 -20 30 -56
33 -81 5z"/>
<path d="M12101 4412 c-20 -38 31 -71 59 -37 6 8 9 23 5 35 -8 25 -51 27 -64
2z"/>
<path d="M2544 4395 c-4 -9 -2 -21 3 -26 14 -14 45 1 41 20 -4 22 -37 26 -44
6z"/>
<path d="M6772 4394 c-42 -29 -19 -114 31 -114 24 0 57 36 57 63 0 49 -50 78
-88 51z"/>
<path d="M3960 4371 c-15 -29 -12 -56 8 -74 21 -19 45 -21 73 -7 22 12 27 68
7 88 -20 20 -76 15 -88 -7z"/>
<path d="M9915 4378 c-33 -17 -45 -40 -45 -80 0 -76 83 -115 143 -68 82 65 -6
199 -98 148z"/>
<path d="M1472 4354 c-27 -18 -28 -45 -4 -67 25 -23 48 -21 66 5 20 29 20 34
-4 58 -24 24 -29 24 -58 4z"/>
<path d="M11748 4301 c-68 -61 -28 -166 63 -166 34 0 46 6 70 33 40 44 40 93
0 133 -40 40 -89 40 -133 0z"/>
<path d="M12365 4320 c-3 -5 1 -10 10 -10 9 0 13 5 10 10 -3 6 -8 10 -10 10
-2 0 -7 -4 -10 -10z"/>
<path d="M1672 4258 c2 -12 10 -23 18 -23 22 0 19 39 -3 43 -15 3 -18 -1 -15
-20z"/>
<path d="M2295 4270 c-4 -7 -3 -16 3 -22 14 -14 45 -2 40 15 -6 16 -34 21 -43
7z"/>
<path d="M6465 4258 c-32 -18 -44 -40 -45 -79 0 -53 32 -89 79 -89 66 0 107
69 77 129 -25 48 -68 63 -111 39z"/>
<path d="M2467 4242 c-34 -37 -8 -102 40 -102 20 0 53 38 53 60 0 25 -34 60
-58 60 -11 0 -26 -8 -35 -18z"/>
<path d="M9377 4234 c-4 -4 -7 -16 -7 -26 0 -14 6 -19 23 -16 14 2 22 10 22
23 0 20 -25 32 -38 19z"/>
<path d="M4955 4205 c-29 -28 -31 -42 -9 -73 17 -24 62 -30 82 -10 21 21 15
75 -10 92 -30 21 -35 20 -63 -9z"/>
<path d="M11999 4211 c-34 -27 -32 -86 5 -117 33 -29 65 -30 100 -3 20 16 26
29 26 58 0 70 -77 106 -131 62z"/>
<path d="M1854 4205 c-4 -9 -2 -21 4 -27 15 -15 44 -1 40 19 -4 23 -36 29 -44
8z"/>
<path d="M9604 4198 c-32 -15 -48 -55 -34 -88 24 -57 98 -61 126 -8 19 37 5
80 -32 97 -29 13 -32 13 -60 -1z"/>
<path d="M3900 4179 c-17 -30 -8 -62 21 -78 24 -13 29 -13 53 2 27 18 33 45
16 78 -15 27 -75 26 -90 -2z"/>
<path d="M8192 4167 c-30 -32 -29 -87 1 -115 74 -69 174 42 102 113 -31 32
-74 33 -103 2z"/>
<path d="M9834 4156 c-109 -48 -72 -206 48 -206 70 0 118 68 95 136 -21 63
-86 95 -143 70z"/>
<path d="M12260 4110 c-24 -24 -25 -38 -4 -68 18 -27 55 -29 77 -4 23 26 21
58 -5 76 -30 21 -44 20 -68 -4z"/>
<path d="M2233 4095 c-14 -11 -16 -18 -7 -32 17 -28 48 -23 52 8 4 32 -18 43
-45 24z"/>
<path d="M1783 4024 c-8 -22 10 -49 32 -49 10 0 22 7 28 16 15 24 1 49 -28 49
-15 0 -28 -7 -32 -16z"/>
<path d="M3852 4004 c-42 -29 -17 -104 35 -104 20 0 53 38 53 60 0 22 -33 60
-53 60 -7 0 -23 -7 -35 -16z"/>
<path d="M11907 4000 c-81 -64 -36 -200 66 -200 60 0 117 54 117 110 0 29 -26
76 -52 94 -32 23 -100 20 -131 -4z"/>
<path d="M9293 4003 c-19 -7 -16 -51 4 -62 37 -20 71 27 41 57 -13 13 -24 14
-45 5z"/>
<path d="M12530 3994 c0 -8 5 -12 10 -9 6 3 10 10 10 16 0 5 -4 9 -10 9 -5 0
-10 -7 -10 -16z"/>
<path d="M4870 3970 c-43 -43 -14 -120 45 -120 24 0 39 7 49 22 34 49 5 118
-49 118 -14 0 -34 -9 -45 -20z"/>
<path d="M1991 3956 c-12 -14 -5 -26 16 -26 15 0 18 26 4 34 -5 3 -14 0 -20
-8z"/>
<path d="M9500 3950 c-31 -31 -27 -93 6 -119 15 -12 37 -21 49 -21 30 0 71 34
79 65 7 29 -15 79 -39 89 -32 12 -75 6 -95 -14z"/>
<path d="M106 3941 c-7 -11 18 -33 27 -24 4 3 7 12 7 20 0 15 -26 18 -34 4z"/>
<path d="M2159 3904 c-9 -11 -10 -20 -2 -32 24 -39 82 -15 68 28 -8 24 -47 27
-66 4z"/>
<path d="M12180 3907 c-81 -41 -53 -157 39 -157 92 0 113 127 27 160 -34 13
-36 12 -66 -3z"/>
<path d="M8351 3824 c-25 -32 -25 -36 -6 -74 13 -24 22 -30 50 -30 58 0 87 68
45 110 -28 28 -64 25 -89 -6z"/>
<path d="M1912 3788 c-19 -19 -14 -56 8 -68 23 -12 54 0 64 26 8 21 8 20 -10
38 -18 19 -45 21 -62 4z"/>
<path d="M12422 3788 c-27 -27 -3 -88 34 -88 31 0 54 21 54 48 0 35 -16 52
-50 52 -14 0 -31 -5 -38 -12z"/>
<path d="M9212 3761 c-8 -5 -12 -21 -10 -37 3 -25 7 -29 33 -29 24 0 31 5 33
23 6 39 -25 63 -56 43z"/>
<path d="M2103 3750 c-44 -18 -42 -88 3 -109 22 -10 31 -9 51 4 29 20 37 38
29 68 -4 18 -46 50 -59 46 -1 0 -12 -4 -24 -9z"/>
<path d="M207 3722 c-10 -10 -17 -28 -17 -40 0 -28 34 -62 60 -62 27 0 60 35
60 63 0 50 -70 76 -103 39z"/>
<path d="M4805 3716 c-14 -14 -25 -34 -25 -46 0 -26 34 -60 60 -60 46 0 75 64
47 101 -23 30 -55 32 -82 5z"/>
<path d="M9423 3715 c-47 -33 -36 -116 18 -139 40 -17 75 -10 99 22 43 54 9
132 -59 132 -20 0 -46 -7 -58 -15z"/>
<path d="M12094 3690 c-34 -13 -64 -59 -64 -97 0 -71 43 -113 116 -113 48 0
104 54 104 99 0 85 -80 142 -156 111z"/>
<path d="M12696 3681 c-4 -7 -5 -15 -2 -18 9 -9 19 4 14 18 -4 11 -6 11 -12 0z"/>
<path d="M12336 3569 c-20 -16 -26 -29 -26 -58 0 -42 19 -65 62 -76 22 -6 33
-1 58 23 16 17 30 37 30 46 0 28 -22 64 -47 75 -34 16 -47 14 -77 -10z"/>
<path d="M9127 3514 c-25 -25 8 -70 43 -59 32 10 24 59 -10 63 -14 2 -29 0
-33 -4z"/>
<path d="M360 3502 c-51 -16 -68 -84 -30 -122 56 -56 155 29 106 92 -16 21
-56 37 -76 30z"/>
<path d="M9345 3465 c-53 -52 -18 -135 57 -135 70 0 103 86 53 135 -15 16 -36
25 -55 25 -19 0 -40 -9 -55 -25z"/>
<path d="M12600 3454 c-17 -19 -8 -49 16 -52 25 -4 47 19 38 41 -8 21 -41 28
-54 11z"/>
<path d="M3662 3444 c-34 -23 -27 -83 11 -104 24 -13 30 -13 55 0 37 21 44 81
10 104 -12 9 -29 16 -38 16 -9 0 -26 -7 -38 -16z"/>
<path d="M4757 3443 c-4 -3 -7 -12 -7 -20 0 -15 26 -18 34 -4 7 11 -18 33 -27
24z"/>
<path d="M12236 3335 c-21 -19 -26 -33 -26 -69 0 -37 5 -48 31 -70 17 -14 42
-26 55 -26 64 0 113 58 99 119 -15 68 -106 95 -159 46z"/>
<path d="M9057 3264 c-12 -12 -8 -42 6 -47 21 -8 39 8 35 29 -3 19 -29 30 -41
18z"/>
<path d="M306 3251 c-4 -5 -2 -12 3 -15 5 -4 12 -2 15 3 4 5 2 12 -3 15 -5 4
-12 2 -15 -3z"/>
<path d="M8454 3226 c-8 -21 13 -46 32 -39 20 8 13 47 -9 51 -9 2 -20 -4 -23
-12z"/>
<path d="M9300 3233 c-55 -20 -68 -87 -24 -122 15 -12 34 -21 44 -21 31 0 70
39 70 70 0 47 -50 87 -90 73z"/>
<path d="M12505 3220 c-37 -41 16 -106 66 -80 45 25 26 100 -26 100 -12 0 -30
-9 -40 -20z"/>
<path d="M3617 3217 c-3 -8 -2 -20 3 -27 11 -18 42 -4 38 17 -4 22 -34 29 -41
10z"/>
<path d="M484 3195 c-4 -9 -2 -21 4 -27 15 -15 44 -1 40 19 -4 23 -36 29 -44
8z"/>
<path d="M9514 3184 c-43 -21 -69 -71 -60 -117 18 -94 151 -119 199 -37 34 57
11 131 -48 156 -43 18 -52 17 -91 -2z"/>
<path d="M4877 3168 c-26 -20 -38 -64 -26 -95 32 -85 139 -64 139 27 0 66 -64
104 -113 68z"/>
<path d="M677 3143 c-12 -12 -7 -41 7 -46 19 -7 40 18 32 38 -6 15 -28 20 -39
8z"/>
<path d="M12157 3110 c-77 -61 -36 -190 61 -190 109 0 153 124 68 192 -30 25
-97 23 -129 -2z"/>
<path d="M3367 3109 c-32 -18 -14 -69 25 -69 19 0 42 35 33 50 -12 19 -40 28
-58 19z"/>
<path d="M12780 3110 c0 -5 5 -10 10 -10 6 0 10 5 10 10 0 6 -4 10 -10 10 -5
0 -10 -4 -10 -10z"/>
<path d="M8990 3000 c0 -5 5 -10 10 -10 6 0 10 5 10 10 0 6 -4 10 -10 10 -5 0
-10 -4 -10 -10z"/>
<path d="M12420 2990 c-27 -27 -25 -56 5 -85 29 -30 58 -32 85 -5 40 40 11
110 -45 110 -14 0 -34 -9 -45 -20z"/>
<path d="M587 2982 c-22 -25 -21 -75 1 -95 38 -34 112 -7 112 42 0 56 -78 92
-113 53z"/>
<path d="M8384 2985 c-15 -11 -17 -17 -8 -32 15 -25 48 -23 52 3 4 31 -20 47
-44 29z"/>
<path d="M9207 2962 c-20 -22 -22 -63 -5 -80 7 -7 24 -12 38 -12 14 0 31 5 38
12 20 20 14 65 -10 82 -29 21 -41 20 -61 -2z"/>
<path d="M9445 2926 c-59 -25 -72 -100 -26 -147 49 -49 129 -30 150 34 26 78
-49 145 -124 113z"/>
<path d="M3470 2880 c-26 -26 -26 -81 -2 -103 29 -27 77 -22 102 10 52 66 -41
152 -100 93z"/>
<path d="M12687 2876 c-8 -20 20 -43 35 -28 14 14 3 42 -16 42 -7 0 -16 -6
-19 -14z"/>
<path d="M5032 2827 c-40 -43 -24 -111 29 -122 68 -15 109 80 53 124 -34 27
-55 26 -82 -2z"/>
<path d="M1973 2770 c-48 -20 -59 -101 -20 -138 23 -22 68 -29 102 -16 19 8
45 55 45 83 0 50 -76 93 -127 71z"/>
<path d="M12340 2750 c-29 -29 -26 -74 6 -99 33 -26 55 -26 82 -3 32 26 37 63
12 95 -26 33 -71 36 -100 7z"/>
<path d="M8320 2720 c0 -5 5 -10 10 -10 6 0 10 5 10 10 0 6 -4 10 -10 10 -5 0
-10 -4 -10 -10z"/>
<path d="M9140 2694 c-11 -12 -10 -18 3 -32 16 -15 18 -15 34 0 13 14 14 20 3
32 -7 9 -16 16 -20 16 -4 0 -13 -7 -20 -16z"/>
<path d="M9355 2650 c-59 -65 33 -162 95 -100 26 26 26 81 2 103 -26 23 -75
21 -97 -3z"/>
<path d="M12024 2640 c-66 -27 -84 -117 -35 -172 25 -28 36 -33 75 -33 36 0
51 6 75 29 26 25 31 37 31 75 -1 83 -71 132 -146 101z"/>
<path d="M12607 2637 c-8 -21 8 -39 29 -35 27 5 25 42 -2 46 -12 2 -24 -3 -27
-11z"/>
<path d="M3622 2608 c-19 -19 -14 -56 8 -63 43 -14 69 44 31 65 -24 13 -24 13
-39 -2z"/>
<path d="M9579 2591 c-54 -54 -35 -138 37 -161 68 -23 124 21 124 96 0 85
-100 125 -161 65z"/>
<path d="M7990 2590 c-11 -11 -20 -29 -20 -40 0 -23 33 -60 55 -60 22 0 55 37
55 60 0 23 -33 60 -55 60 -8 0 -24 -9 -35 -20z"/>
<path d="M1910 2550 c-41 -41 -13 -110 46 -110 51 0 75 84 32 114 -30 21 -54
20 -78 -4z"/>
<path d="M12266 2506 c-30 -29 -33 -56 -8 -84 27 -31 55 -35 85 -11 46 35 32
101 -25 114 -21 5 -33 1 -52 -19z"/>
<path d="M2100 2471 c-16 -31 -12 -49 15 -67 23 -15 27 -15 50 0 14 9 25 25
25 36 0 45 -69 69 -90 31z"/>
<path d="M5204 2455 c-8 -20 4 -35 27 -35 14 0 19 7 19 25 0 18 -5 25 -20 25
-11 0 -23 -7 -26 -15z"/>
<path d="M7671 2434 c-12 -15 -21 -37 -21 -50 0 -35 41 -76 75 -76 34 0 75 41
75 76 0 39 -37 76 -75 76 -24 0 -39 -7 -54 -26z"/>
<path d="M3552 2434 c-24 -17 -30 -62 -10 -82 16 -16 63 -15 75 1 23 29 23 48
-2 73 -28 28 -33 29 -63 8z"/>
<path d="M5420 2410 c-37 -37 -14 -100 37 -100 25 0 53 30 53 58 0 25 -33 62
-55 62 -8 0 -24 -9 -35 -20z"/>
<path d="M430 2385 c-7 -8 -10 -22 -6 -30 7 -20 42 -19 50 1 8 22 8 22 -13 33
-14 8 -22 7 -31 -4z"/>
<path d="M12532 2383 c2 -10 10 -18 18 -18 8 0 16 8 18 18 2 12 -3 17 -18 17
-15 0 -20 -5 -18 -17z"/>
<path d="M9293 2374 c-6 -17 6 -45 23 -51 21 -7 47 23 40 45 -9 27 -53 30 -63
6z"/>
<path d="M11916 2359 c-53 -63 -21 -145 61 -156 37 -5 45 -2 73 25 39 40 42
96 5 136 -19 21 -33 26 -69 26 -37 0 -48 -5 -70 -31z"/>
<path d="M9525 2325 c-31 -30 -32 -65 -2 -93 26 -24 48 -27 77 -12 48 26 48
90 -1 115 -38 20 -46 19 -74 -10z"/>
<path d="M1880 2315 c0 -8 5 -15 10 -15 6 0 10 7 10 15 0 8 -4 15 -10 15 -5 0
-10 -7 -10 -15z"/>
<path d="M7361 2284 c-40 -50 -20 -133 35 -155 31 -11 88 10 103 39 20 37 13
91 -14 117 -35 36 -96 35 -124 -1z"/>
<path d="M9759 2277 c-23 -17 -39 -52 -39 -82 0 -38 50 -85 90 -85 39 0 90 47
90 84 0 37 -19 72 -47 85 -31 14 -74 14 -94 -2z"/>
<path d="M12198 2259 c-27 -16 -23 -65 7 -85 23 -15 27 -15 50 0 27 18 34 63
13 84 -15 15 -47 15 -70 1z"/>
<path d="M11620 2233 c-21 -11 -42 -33 -54 -56 -49 -101 63 -197 160 -138 63
38 70 128 13 175 -17 14 -37 26 -44 26 -7 0 -19 2 -27 5 -7 3 -29 -3 -48 -12z"/>
<path d="M10005 2218 c-56 -31 -74 -112 -35 -161 64 -81 190 -37 190 66 0 76
-90 131 -155 95z"/>
<path d="M2236 2204 c-8 -21 11 -44 35 -44 19 0 35 33 24 50 -10 16 -52 12
-59 -6z"/>
<path d="M530 2160 c-11 -11 -20 -29 -20 -40 0 -24 42 -70 63 -70 26 0 67 41
67 66 0 31 -33 64 -65 64 -14 0 -34 -9 -45 -20z"/>
<path d="M7640 2140 c0 -5 5 -10 10 -10 6 0 10 5 10 10 0 6 -4 10 -10 10 -5 0
-10 -4 -10 -10z"/>
<path d="M12460 2140 c0 -5 5 -10 10 -10 6 0 10 5 10 10 0 6 -4 10 -10 10 -5
0 -10 -4 -10 -10z"/>
<path d="M1820 2124 c0 -8 5 -12 10 -9 6 3 10 10 10 16 0 5 -4 9 -10 9 -5 0
-10 -7 -10 -16z"/>
<path d="M11850 2108 c-46 -50 -9 -128 62 -128 44 0 72 29 72 75 0 47 -28 75
-75 75 -26 0 -45 -7 -59 -22z"/>
<path d="M9464 2049 c-8 -14 21 -43 35 -35 19 12 13 46 -8 46 -11 0 -23 -5
-27 -11z"/>
<path d="M9695 1990 c-27 -29 -10 -74 28 -78 53 -6 77 46 39 81 -25 22 -45 21
-67 -3z"/>
<path d="M12127 2004 c-11 -11 -8 -52 3 -59 6 -3 19 -3 31 0 28 9 23 59 -6 63
-12 2 -24 0 -28 -4z"/>
<path d="M7325 1990 c-9 -15 4 -50 19 -50 20 0 39 27 32 45 -6 17 -42 20 -51
5z"/>
<path d="M2367 1972 c-31 -34 -14 -72 30 -72 16 0 27 9 35 26 11 23 10 29 -11
45 -29 23 -34 24 -54 1z"/>
<path d="M11531 1954 c-42 -35 -43 -84 -2 -125 33 -32 58 -36 100 -14 33 16
41 33 41 81 0 75 -80 108 -139 58z"/>
<path d="M9935 1928 c-47 -37 -20 -118 40 -118 14 0 34 9 45 20 58 58 -21 149
-85 98z"/>
<path d="M500 1930 c0 -5 7 -10 16 -10 8 0 12 5 9 10 -3 6 -10 10 -16 10 -5 0
-9 -4 -9 -10z"/>
<path d="M6030 1901 c-16 -32 4 -63 38 -59 24 3 27 7 27 38 0 31 -3 35 -27 38
-19 2 -30 -3 -38 -17z"/>
<path d="M10971 1896 c-13 -7 -30 -24 -37 -37 -52 -93 54 -196 144 -139 113
70 10 241 -107 176z"/>
<path d="M6238 1860 c-26 -27 -30 -36 -25 -67 18 -109 156 -103 156 7 0 39
-13 61 -46 78 -34 18 -52 14 -85 -18z"/>
<path d="M10180 1867 c-30 -15 -45 -54 -36 -91 14 -56 108 -67 135 -17 37 68
-31 143 -99 108z"/>
<path d="M7007 1852 c-22 -25 -21 -75 1 -95 40 -36 102 -7 102 48 0 56 -67 86
-103 47z"/>
<path d="M11802 1854 c-17 -12 -22 -24 -20 -46 4 -40 28 -55 65 -42 38 13 45
65 11 88 -12 9 -25 16 -28 16 -3 0 -16 -7 -28 -16z"/>
<path d="M11222 1803 c-17 -6 -42 -57 -42 -83 0 -31 53 -80 85 -80 38 0 85 50
85 90 0 58 -68 97 -128 73z"/>
<path d="M10405 1775 c-42 -41 -30 -102 25 -125 54 -22 110 19 110 81 0 31
-44 69 -80 69 -19 0 -40 -9 -55 -25z"/>
<path d="M12066 1741 c-4 -7 -5 -15 -2 -18 9 -9 19 4 14 18 -4 11 -6 11 -12 0z"/>
<path d="M2484 1705 c-7 -29 10 -55 36 -55 24 0 42 24 38 52 -2 18 -10 24 -35
26 -28 3 -33 -1 -39 -23z"/>
<path d="M9645 1720 c-3 -5 1 -10 10 -10 9 0 13 5 10 10 -3 6 -8 10 -10 10 -2
0 -7 -4 -10 -10z"/>
<path d="M10680 1713 c-32 -12 -50 -37 -50 -70 0 -62 65 -94 118 -57 28 19 31
83 5 106 -22 19 -53 28 -73 21z"/>
<path d="M614 1696 c-10 -26 4 -48 28 -44 17 2 23 10 23 28 0 18 -6 26 -23 28
-13 2 -25 -3 -28 -12z"/>
<path d="M11473 1695 c-43 -30 -19 -105 33 -105 25 0 38 10 54 39 10 20 9 27
-7 50 -24 32 -51 37 -80 16z"/>
<path d="M3302 1684 c-45 -31 -19 -104 37 -104 53 0 75 57 37 95 -29 29 -43
31 -74 9z"/>
<path d="M1422 1664 c-41 -29 -19 -94 33 -94 52 0 74 65 33 94 -12 9 -27 16
-33 16 -6 0 -21 -7 -33 -16z"/>
<path d="M9874 1645 c-4 -9 -2 -21 4 -27 15 -15 44 -1 40 19 -4 23 -36 29 -44
8z"/>
<path d="M10906 1609 c-31 -25 -34 -61 -6 -89 37 -37 93 -20 105 32 5 21 1 33
-19 52 -31 31 -45 32 -80 5z"/>
<path d="M10117 1583 c-12 -11 -8 -40 6 -52 21 -17 51 10 43 37 -7 21 -35 30
-49 15z"/>
<path d="M6955 1570 c-4 -7 -3 -16 3 -22 14 -14 45 -2 40 15 -6 16 -34 21 -43
7z"/>
<path d="M11740 1570 c0 -5 4 -10 9 -10 6 0 13 5 16 10 3 6 -1 10 -9 10 -9 0
-16 -4 -16 -10z"/>
<path d="M6416 1514 c-23 -22 -20 -71 3 -84 27 -14 37 -13 55 6 21 21 20 57
-2 77 -23 21 -36 21 -56 1z"/>
<path d="M11150 1510 c-15 -29 -3 -59 26 -66 30 -8 54 11 54 40 0 46 -59 64
-80 26z"/>
<path d="M10357 1504 c-12 -13 -8 -52 7 -57 21 -8 49 16 44 39 -3 19 -38 31
-51 18z"/>
<path d="M3243 1464 c-8 -22 10 -49 32 -49 10 0 22 7 28 16 15 24 1 49 -28 49
-15 0 -28 -7 -32 -16z"/>
<path d="M1379 1444 c-9 -11 -9 -18 -1 -26 14 -14 42 -3 42 16 0 20 -27 27
-41 10z"/>
<path d="M2630 1445 c0 -10 7 -15 18 -13 21 4 19 22 -2 26 -10 2 -16 -3 -16
-13z"/>
<path d="M745 1440 c-9 -15 4 -30 26 -30 12 0 19 7 19 20 0 21 -33 29 -45 10z"/>
<path d="M6636 1434 c-30 -29 -15 -83 27 -98 20 -6 67 33 67 56 0 47 -62 74
-94 42z"/>
<path d="M10596 1414 c-9 -22 17 -49 39 -40 10 3 15 15 13 28 -4 29 -42 37
-52 12z"/>
<path d="M2807 1413 c-15 -14 -7 -62 12 -68 40 -12 70 20 51 56 -10 18 -50 26
-63 12z"/>
<path d="M11420 1404 c0 -8 5 -12 10 -9 6 3 10 10 10 16 0 5 -4 9 -10 9 -5 0
-10 -7 -10 -16z"/>
<path d="M920 1395 c-17 -20 -5 -62 20 -70 44 -14 80 41 48 73 -17 17 -53 15
-68 -3z"/>
<path d="M3001 1332 c-7 -13 -6 -23 1 -30 26 -26 64 -2 47 30 -5 10 -16 18
-24 18 -8 0 -19 -8 -24 -18z"/>
<path d="M10845 1330 c-4 -7 -3 -16 3 -22 14 -14 45 -2 40 15 -6 16 -34 21
-43 7z"/>
<path d="M1126 1315 c-6 -17 16 -31 33 -21 13 9 2 36 -14 36 -7 0 -16 -7 -19
-15z"/>
</g>
</svg>
