<?xml version="1.0" standalone="no"?>
<!DOCTYPE svg PUBLIC "-//W3C//DTD SVG 20010904//EN"
 "http://www.w3.org/TR/2001/REC-SVG-20010904/DTD/svg10.dtd">
<svg version="1.0" xmlns="http://www.w3.org/2000/svg"
 width="1280.000000pt" height="1238.000000pt" viewBox="0 0 1280.000000 1238.000000"
 preserveAspectRatio="xMidYMid meet">
<metadata>
Created by potrace 1.15, written by Peter Selinger 2001-2017
</metadata>
<g transform="translate(0.000000,1238.000000) scale(0.100000,-0.100000)"
fill="#000000" stroke="none">
<path d="M5505 12355 c-54 -54 -13 -145 65 -145 30 0 80 53 80 85 0 16 -12 38
-29 56 -38 37 -82 39 -116 4z"/>
<path d="M7074 12346 c-3 -8 -4 -25 -2 -38 2 -18 10 -24 35 -26 28 -3 33 1 39
23 4 15 1 31 -6 40 -16 19 -59 19 -66 1z"/>
<path d="M8737 12150 c-33 -26 -41 -63 -23 -99 29 -55 105 -60 140 -9 54 77
-42 167 -117 108z"/>
<path d="M7693 12024 c-15 -24 -15 -29 -2 -53 11 -20 22 -26 49 -26 27 0 38 6
49 26 13 24 13 29 -2 53 -12 18 -26 26 -47 26 -21 0 -35 -8 -47 -26z"/>
<path d="M9814 11904 c-20 -19 -24 -31 -19 -52 10 -40 24 -52 59 -52 37 0 49
7 65 37 20 40 -16 93 -64 93 -9 0 -27 -11 -41 -26z"/>
<path d="M4904 11855 c-34 -52 22 -114 80 -87 58 26 36 112 -29 112 -26 0 -39
-6 -51 -25z"/>
<path d="M6705 11795 c-32 -31 -34 -96 -5 -125 46 -46 122 -32 146 27 37 88
-74 166 -141 98z"/>
<path d="M6032 11637 c-27 -29 -28 -61 -2 -87 43 -43 110 -14 110 48 0 57 -68
82 -108 39z"/>
<path d="M10433 11580 c-115 -70 -63 -250 72 -250 76 0 135 59 135 135 0 106
-116 171 -207 115z"/>
<path d="M9329 11521 c-31 -25 -32 -83 -1 -113 50 -51 132 -15 132 58 0 66
-77 99 -131 55z"/>
<path d="M8044 11522 c-64 -10 -87 -99 -39 -147 52 -53 145 -16 145 57 0 58
-49 100 -106 90z"/>
<path d="M4323 11451 c-79 -49 -32 -166 62 -152 36 5 65 41 65 81 0 67 -69
106 -127 71z"/>
<path d="M5055 11426 c-51 -23 -70 -52 -70 -107 0 -41 5 -53 31 -80 64 -64
163 -40 193 46 12 35 11 45 -2 77 -26 61 -94 91 -152 64z"/>
<path d="M8830 11429 c-53 -21 -74 -78 -49 -132 26 -57 108 -67 152 -17 45 50
27 127 -34 149 -37 13 -36 13 -69 0z"/>
<path d="M3145 11406 c-53 -24 -78 -60 -82 -118 -7 -89 51 -151 139 -150 106
2 173 120 118 209 -37 61 -114 87 -175 59z"/>
<path d="M7430 11403 c-92 -47 -87 -180 7 -220 102 -42 202 58 160 160 -28 65
-104 93 -167 60z"/>
<path d="M6309 11210 c-9 -5 -22 -23 -29 -39 -25 -61 40 -126 101 -101 35 15
49 37 49 78 0 54 -71 91 -121 62z"/>
<path d="M7842 11035 c-38 -32 -48 -72 -28 -118 15 -37 58 -67 96 -67 37 0 81
30 96 65 43 103 -79 192 -164 120z"/>
<path d="M6695 11021 c-89 -37 -80 -174 13 -202 33 -9 45 -9 76 6 63 30 82 93
46 153 -28 46 -83 64 -135 43z"/>
<path d="M8652 11007 c-45 -48 -17 -117 47 -117 46 0 71 24 71 68 0 65 -74 96
-118 49z"/>
<path d="M9919 11007 c-20 -15 -39 -51 -39 -72 0 -25 55 -75 83 -75 42 0 77
36 77 79 0 64 -73 105 -121 68z"/>
<path d="M7226 10969 c-28 -25 -38 -44 -42 -74 -10 -82 69 -149 147 -126 126
38 107 214 -24 228 -40 5 -49 2 -81 -28z"/>
<path d="M5515 10886 c-48 -21 -77 -60 -82 -108 -11 -110 108 -186 198 -125
92 61 83 191 -17 233 -41 17 -60 17 -99 0z"/>
<path d="M10534 10881 c-37 -22 -59 -76 -49 -120 3 -15 20 -41 36 -57 25 -24
39 -29 79 -29 55 0 84 20 107 73 14 34 12 57 -10 100 -25 51 -107 67 -163 33z"/>
<path d="M4185 10872 c-107 -66 -60 -233 66 -232 80 1 129 50 129 129 0 37 -6
49 -39 82 -33 33 -45 39 -82 39 -25 0 -57 -8 -74 -18z"/>
<path d="M4626 10864 c-38 -38 -36 -95 3 -135 59 -58 147 -26 158 58 5 37 2
45 -25 73 -41 40 -97 42 -136 4z"/>
<path d="M11853 10764 c-15 -24 -15 -29 -2 -53 28 -51 99 -35 99 22 0 40 -15
57 -52 57 -19 0 -33 -8 -45 -26z"/>
<path d="M5939 10721 c-39 -40 -40 -93 -2 -133 58 -60 163 -17 163 67 0 51
-44 95 -95 95 -27 0 -44 -8 -66 -29z"/>
<path d="M9290 10623 c-52 -19 -88 -91 -70 -139 35 -91 142 -111 200 -36 24
30 26 98 4 130 -28 41 -89 61 -134 45z"/>
<path d="M2050 10603 c-62 -23 -81 -103 -35 -148 36 -37 98 -30 132 14 21 27
16 85 -9 109 -25 23 -65 34 -88 25z"/>
<path d="M3988 10599 c-21 -12 -24 -49 -6 -67 39 -39 100 17 63 58 -20 22 -32
24 -57 9z"/>
<path d="M7092 10580 c-33 -15 -47 -29 -62 -62 -11 -24 -20 -52 -20 -63 0 -11
9 -39 20 -63 15 -33 29 -47 62 -62 55 -25 72 -25 124 1 43 20 84 81 84 124 0
43 -41 104 -84 124 -52 26 -69 26 -124 1z"/>
<path d="M5335 10540 c-15 -17 -16 -24 -7 -46 10 -21 18 -25 45 -22 27 3 32 7
35 33 3 19 -2 33 -14 42 -25 18 -38 16 -59 -7z"/>
<path d="M7608 10544 c-83 -45 -53 -164 42 -164 90 0 124 113 47 160 -38 24
-53 24 -89 4z"/>
<path d="M10288 10485 c-36 -20 -58 -64 -58 -115 0 -32 7 -48 33 -76 66 -72
174 -50 206 42 17 49 10 84 -27 125 -23 26 -38 32 -78 35 -32 3 -58 -1 -76
-11z"/>
<path d="M3284 10470 c-67 -27 -87 -134 -36 -190 54 -62 162 -48 196 25 20 41
20 68 1 109 -27 56 -99 81 -161 56z"/>
<path d="M5112 10468 c-28 -28 -3 -88 37 -88 23 0 51 31 51 56 0 27 -19 44
-50 44 -14 0 -31 -5 -38 -12z"/>
<path d="M3813 10450 c-84 -51 -23 -190 72 -166 82 21 98 133 24 171 -37 20
-58 19 -96 -5z"/>
<path d="M4144 10426 c-24 -24 -34 -43 -34 -66 0 -41 56 -100 95 -100 57 0
104 45 105 98 0 44 -14 68 -50 87 -46 24 -78 19 -116 -19z"/>
<path d="M9691 10427 c-78 -40 -86 -155 -14 -203 29 -18 91 -21 122 -5 30 16
61 70 61 104 0 85 -93 143 -169 104z"/>
<path d="M6294 10410 c-32 -13 -54 -50 -54 -91 0 -29 7 -43 31 -63 41 -35 83
-34 120 3 49 50 37 121 -26 147 -39 16 -42 16 -71 4z"/>
<path d="M1287 10380 c-85 -74 -38 -200 75 -200 79 0 135 81 104 153 -19 46
-49 69 -99 74 -39 5 -48 1 -80 -27z"/>
<path d="M2674 10376 c-101 -101 37 -254 150 -165 84 66 35 199 -74 199 -34 0
-48 -6 -76 -34z"/>
<path d="M5753 10385 c-88 -38 -98 -177 -16 -230 60 -40 156 -16 189 46 34 66
4 158 -61 185 -43 17 -71 17 -112 -1z"/>
<path d="M6685 10375 c-31 -30 -32 -66 -2 -101 17 -20 33 -27 57 -27 39 0 80
40 80 79 0 35 -42 74 -80 74 -19 0 -40 -9 -55 -25z"/>
<path d="M8244 10351 c-70 -43 -63 -146 11 -177 67 -28 132 11 142 84 11 80
-84 137 -153 93z"/>
<path d="M8637 10340 c-37 -29 -37 -80 -1 -109 35 -27 59 -26 89 4 63 63 -18
160 -88 105z"/>
<path d="M4535 10305 c-16 -15 -25 -36 -25 -55 0 -38 39 -80 74 -80 39 0 79
41 79 80 0 24 -7 40 -27 57 -35 30 -71 29 -101 -2z"/>
<path d="M4854 10276 c-28 -28 -34 -42 -34 -76 0 -34 6 -48 34 -76 29 -29 41
-34 79 -34 80 0 131 65 108 140 -16 53 -52 80 -108 80 -38 0 -50 -5 -79 -34z"/>
<path d="M7155 10256 c-34 -34 -40 -68 -20 -109 49 -103 205 -50 180 62 -15
68 -111 96 -160 47z"/>
<path d="M5176 10249 c-17 -13 -26 -30 -26 -49 0 -29 38 -70 65 -70 27 0 65
41 65 70 0 29 -38 70 -65 70 -7 0 -24 -9 -39 -21z"/>
<path d="M8032 10260 c-77 -31 -34 -153 48 -135 65 14 74 106 14 134 -29 13
-31 13 -62 1z"/>
<path d="M7498 10232 c-30 -18 -58 -67 -58 -102 0 -29 26 -76 52 -94 33 -23
109 -21 141 4 31 25 51 80 42 120 -3 16 -22 43 -41 60 -40 35 -92 40 -136 12z"/>
<path d="M6824 10166 c-67 -30 -66 -124 2 -152 57 -24 114 15 114 78 0 36 -26
78 -49 78 -5 0 -15 2 -23 5 -7 2 -27 -2 -44 -9z"/>
<path d="M5520 10148 c-55 -29 -83 -77 -77 -135 13 -125 163 -173 246 -78 27
31 31 44 31 90 0 46 -4 59 -31 89 -26 31 -78 56 -114 56 -6 0 -31 -10 -55 -22z"/>
<path d="M8795 10135 c-62 -61 10 -155 86 -114 48 25 44 105 -7 128 -37 16
-52 14 -79 -14z"/>
<path d="M9358 10135 c-37 -21 -61 -69 -53 -105 4 -16 21 -41 38 -56 26 -21
38 -25 70 -21 51 7 77 33 84 84 4 34 1 45 -23 72 -34 37 -78 47 -116 26z"/>
<path d="M2755 10096 c-59 -26 -72 -101 -26 -147 56 -56 145 -27 157 52 5 30
2 41 -22 67 -35 38 -69 46 -109 28z"/>
<path d="M1631 10057 c-62 -31 -85 -121 -47 -179 19 -29 72 -58 106 -58 46 0
92 32 112 77 17 40 18 49 6 86 -23 72 -110 109 -177 74z"/>
<path d="M6595 10051 c-60 -25 -78 -100 -35 -146 18 -19 34 -25 65 -25 54 0
87 32 87 85 0 61 -65 108 -117 86z"/>
<path d="M8120 10028 c-49 -33 -68 -90 -47 -140 32 -76 129 -99 186 -44 16 15
32 39 36 53 6 24 7 25 26 7 15 -14 25 -16 47 -8 22 8 27 15 27 44 0 29 -5 36
-29 45 -24 8 -31 6 -47 -14 l-19 -23 -9 24 c-26 69 -111 97 -171 56z"/>
<path d="M10384 10040 c-54 -21 -72 -105 -34 -153 27 -34 78 -44 118 -23 37
19 52 44 52 86 0 42 -15 67 -50 85 -32 17 -54 18 -86 5z"/>
<path d="M7649 9981 c-68 -68 -8 -184 85 -167 62 12 99 79 76 136 -27 65 -110
81 -161 31z"/>
<path d="M10052 9998 c-34 -34 6 -90 48 -68 35 19 20 80 -20 80 -9 0 -21 -5
-28 -12z"/>
<path d="M6099 9963 c-39 -24 -59 -65 -59 -118 0 -42 5 -52 39 -86 35 -35 44
-39 91 -39 47 0 56 4 91 39 35 35 39 44 39 91 0 47 -4 56 -39 91 -34 35 -44
39 -87 39 -27 0 -61 -8 -75 -17z"/>
<path d="M11036 9939 c-36 -43 -35 -91 3 -130 39 -38 87 -39 130 -3 42 35 44
98 5 138 -40 39 -103 37 -138 -5z"/>
<path d="M3835 9953 c-68 -17 -107 -90 -85 -157 42 -127 235 -99 235 35 0 43
-20 83 -49 103 -26 16 -74 26 -101 19z"/>
<path d="M10764 9906 c-38 -38 -44 -77 -19 -126 19 -36 47 -52 91 -52 105 0
148 139 61 192 -50 31 -93 26 -133 -14z"/>
<path d="M3344 9902 c-94 -60 -52 -202 60 -202 54 0 92 28 105 77 27 95 -81
177 -165 125z"/>
<path d="M4269 9881 c-50 -50 -37 -121 28 -147 75 -32 148 35 123 112 -23 69
-99 86 -151 35z"/>
<path d="M4687 9872 c-22 -24 -21 -55 1 -75 26 -23 58 -21 76 5 21 30 20 44
-4 68 -25 25 -52 26 -73 2z"/>
<path d="M5692 9860 c-34 -21 -62 -71 -62 -111 0 -36 31 -88 65 -109 120 -74
255 69 177 188 -34 53 -121 68 -180 32z"/>
<path d="M5407 9838 c-28 -22 -36 -60 -22 -96 34 -80 160 -32 139 53 -12 48
-78 72 -117 43z"/>
<path d="M8478 9811 c-27 -24 -33 -36 -33 -71 0 -35 6 -47 33 -71 44 -40 93
-40 133 0 48 49 38 125 -21 156 -43 22 -76 18 -112 -14z"/>
<path d="M4916 9789 c-53 -42 -23 -122 46 -122 62 0 89 73 43 118 -30 30 -54
31 -89 4z"/>
<path d="M6676 9784 c-19 -19 -26 -37 -26 -64 0 -27 7 -45 26 -64 19 -19 37
-26 64 -26 27 0 45 7 64 26 19 19 26 37 26 64 0 27 -7 45 -26 64 -19 19 -37
26 -64 26 -27 0 -45 -7 -64 -26z"/>
<path d="M7229 9781 c-40 -40 -40 -89 0 -133 24 -27 36 -33 71 -33 35 0 47 6
71 33 32 36 36 69 14 112 -31 59 -107 69 -156 21z"/>
<path d="M985 9775 c-34 -33 -32 -70 5 -107 26 -25 36 -29 63 -24 41 8 67 39
67 80 0 69 -86 101 -135 51z"/>
<path d="M6473 9783 c-12 -2 -36 -20 -53 -39 -41 -48 -42 -110 -2 -155 23 -26
38 -33 80 -37 49 -4 54 -2 87 31 41 41 49 92 23 144 -20 41 -82 67 -135 56z"/>
<path d="M4592 9770 c-43 -18 -48 -86 -8 -112 23 -16 65 -8 80 14 23 33 19 64
-10 87 -30 23 -30 23 -62 11z"/>
<path d="M6974 9754 c-37 -18 -64 -62 -64 -104 0 -90 90 -146 170 -105 40 21
60 53 60 98 0 52 -22 91 -64 111 -42 20 -62 20 -102 0z"/>
<path d="M5171 9734 c-43 -36 -44 -93 -2 -135 37 -37 79 -38 119 -4 36 30 45
70 26 111 -27 57 -93 70 -143 28z"/>
<path d="M4100 9735 c-20 -25 -8 -50 25 -50 21 0 31 5 33 18 4 21 -14 47 -33
47 -7 0 -18 -7 -25 -15z"/>
<path d="M9132 9738 c-29 -29 -2 -72 40 -66 42 6 32 78 -11 78 -9 0 -22 -5
-29 -12z"/>
<path d="M8003 9715 c-61 -26 -74 -106 -24 -156 33 -33 67 -37 111 -14 57 30
68 96 23 144 -34 36 -68 44 -110 26z"/>
<path d="M2635 9708 c-31 -18 -44 -40 -45 -76 0 -46 16 -71 56 -88 29 -12 39
-12 68 0 40 17 56 42 56 88 -1 68 -75 110 -135 76z"/>
<path d="M7441 9656 c-13 -7 -30 -24 -37 -37 -51 -92 72 -183 146 -109 43 43
32 118 -21 145 -34 18 -57 18 -88 1z"/>
<path d="M6109 9621 c-50 -50 -35 -124 31 -151 58 -24 120 22 120 88 0 45 -46
92 -90 92 -22 0 -41 -9 -61 -29z"/>
<path d="M9523 9625 c-38 -16 -63 -60 -63 -111 0 -28 8 -44 34 -70 38 -38 85
-45 134 -20 80 41 71 166 -13 202 -42 17 -51 17 -92 -1z"/>
<path d="M9093 9623 c-13 -2 -36 -18 -53 -34 -25 -26 -30 -39 -30 -78 0 -58
25 -94 75 -111 46 -15 86 -5 119 29 80 83 3 217 -111 194z"/>
<path d="M5522 9570 c-53 -24 -88 -90 -77 -146 14 -79 101 -134 177 -114 45
13 95 68 103 114 11 56 -24 122 -77 146 -24 11 -52 20 -63 20 -11 0 -39 -9
-63 -20z"/>
<path d="M10140 9543 c-59 -53 -48 -153 20 -188 82 -42 170 14 170 111 0 28
-8 44 -34 70 -29 29 -41 34 -80 34 -36 0 -52 -6 -76 -27z"/>
<path d="M3111 9543 c-42 -21 -74 -86 -65 -132 8 -39 52 -88 88 -97 46 -11 92
4 126 43 29 33 32 41 28 85 -6 54 -27 84 -75 104 -42 18 -60 17 -102 -3z"/>
<path d="M4246 9529 c-54 -64 -17 -148 66 -149 55 0 93 36 93 90 0 55 -37 90
-95 90 -30 0 -43 -6 -64 -31z"/>
<path d="M5003 9553 c-19 -7 -16 -50 4 -57 24 -10 51 20 37 41 -12 19 -23 24
-41 16z"/>
<path d="M2004 9501 c-32 -20 -64 -74 -64 -111 0 -12 8 -38 17 -57 49 -103
198 -95 239 12 16 42 16 48 0 90 -30 78 -121 109 -192 66z"/>
<path d="M3986 9504 c-9 -8 -16 -22 -16 -29 0 -13 26 -45 36 -45 14 0 42 21
48 36 7 19 -19 54 -40 54 -7 0 -20 -7 -28 -16z"/>
<path d="M7014 9510 c-12 -4 -31 -21 -43 -36 -64 -82 34 -198 127 -150 38 20
52 44 52 91 0 47 -13 71 -50 90 -32 17 -54 18 -86 5z"/>
<path d="M8169 9491 c-37 -37 -38 -79 -3 -120 44 -53 123 -40 150 25 12 29 12
39 0 68 -26 64 -97 76 -147 27z"/>
<path d="M3590 9470 c-25 -25 -25 -32 -1 -61 16 -20 23 -22 47 -14 34 12 44
54 19 79 -22 21 -41 20 -65 -4z"/>
<path d="M6761 9464 c-12 -15 -21 -37 -21 -49 0 -38 37 -75 75 -75 48 0 79 29
79 75 0 71 -90 104 -133 49z"/>
<path d="M7266 9468 c-32 -45 -6 -98 48 -98 39 0 66 26 66 62 0 55 -83 81
-114 36z"/>
<path d="M8593 9472 c-29 -22 -45 -68 -38 -103 9 -40 59 -79 100 -79 40 0 90
38 99 76 9 36 -10 89 -39 108 -32 21 -94 20 -122 -2z"/>
<path d="M4622 9470 c-52 -21 -53 -98 -2 -125 75 -39 140 62 74 114 -29 23
-38 24 -72 11z"/>
<path d="M5856 9470 c-129 -40 -115 -231 19 -256 69 -13 155 59 155 130 0 84
-93 151 -174 126z"/>
<path d="M1514 9441 c-30 -18 -54 -64 -54 -103 0 -55 58 -108 120 -108 70 0
115 50 114 123 -1 33 -8 47 -38 74 -42 39 -93 44 -142 14z"/>
<path d="M4072 9434 c-33 -23 -26 -65 12 -79 24 -8 31 -6 47 14 24 29 24 36
-1 61 -24 24 -29 24 -58 4z"/>
<path d="M4981 9436 c-26 -15 -50 -51 -51 -79 0 -30 27 -72 55 -85 42 -19 74
-14 106 17 47 48 38 116 -21 146 -35 18 -57 19 -89 1z"/>
<path d="M7820 9425 c-53 -57 -13 -145 66 -145 74 0 112 93 59 145 -34 35 -93
34 -125 0z"/>
<path d="M6274 9356 c-29 -29 -34 -41 -34 -81 0 -40 5 -52 34 -81 26 -26 42
-34 70 -34 49 0 92 23 111 60 26 50 20 97 -19 136 -29 29 -41 34 -81 34 -40 0
-52 -5 -81 -34z"/>
<path d="M7575 9365 c-14 -13 -25 -29 -25 -35 0 -6 -13 -4 -32 6 -51 26 -115
14 -155 -30 -28 -31 -33 -43 -33 -87 0 -46 4 -55 39 -90 33 -33 45 -39 82 -39
58 0 106 30 127 80 15 34 20 38 44 33 60 -12 118 39 118 102 0 16 -12 38 -29
56 -39 39 -100 41 -136 4z"/>
<path d="M331 9363 c-11 -10 -24 -32 -27 -50 -5 -27 -1 -37 24 -63 36 -35 69
-38 106 -9 55 44 21 139 -51 139 -17 0 -40 -8 -52 -17z"/>
<path d="M5275 9368 c-129 -46 -140 -220 -17 -279 104 -51 212 17 212 134 0
29 -7 61 -17 79 -34 57 -118 88 -178 66z"/>
<path d="M9253 9364 c-56 -28 -67 -100 -23 -144 46 -46 122 -32 146 27 34 80
-45 156 -123 117z"/>
<path d="M9496 9359 c-17 -13 -26 -30 -26 -49 0 -29 38 -70 65 -70 27 0 65 41
65 70 0 29 -38 70 -65 70 -7 0 -24 -9 -39 -21z"/>
<path d="M3780 9350 c-11 -11 -20 -31 -20 -45 0 -30 32 -65 60 -65 27 0 70 43
70 70 0 28 -35 60 -65 60 -14 0 -34 -9 -45 -20z"/>
<path d="M3373 9328 c-73 -19 -97 -111 -45 -168 38 -42 86 -49 132 -18 101 68
32 218 -87 186z"/>
<path d="M6568 9319 c-21 -12 -24 -59 -6 -77 19 -19 66 -15 78 7 14 28 13 38
-10 61 -22 22 -37 24 -62 9z"/>
<path d="M6850 9300 c-11 -11 -20 -29 -20 -40 0 -27 35 -60 63 -60 50 0 76 70
39 103 -25 23 -58 21 -82 -3z"/>
<path d="M9954 9286 c-29 -29 -34 -41 -34 -81 0 -40 5 -52 34 -81 29 -29 41
-34 81 -34 40 0 52 5 81 34 29 29 34 41 34 81 0 40 -5 52 -34 81 -29 29 -41
34 -81 34 -40 0 -52 -5 -81 -34z"/>
<path d="M2631 9296 c-16 -19 2 -56 28 -56 28 0 47 28 34 48 -13 22 -47 27
-62 8z"/>
<path d="M7142 9287 c-23 -25 -29 -75 -12 -107 12 -22 64 -42 88 -33 64 23 85
104 36 142 -36 28 -85 27 -112 -2z"/>
<path d="M10534 9276 c-26 -26 -34 -42 -34 -71 0 -45 53 -105 93 -105 104 0
152 115 77 183 -44 39 -92 37 -136 -7z"/>
<path d="M4148 9279 c-62 -35 -25 -125 42 -104 47 15 50 83 5 103 -30 14 -26
14 -47 1z"/>
<path d="M3635 9266 c-97 -44 -112 -160 -29 -225 19 -15 41 -21 77 -21 44 0
53 4 88 39 33 32 39 45 39 80 0 75 -40 123 -111 135 -20 3 -47 0 -64 -8z"/>
<path d="M4725 9273 c-107 -28 -130 -180 -35 -237 40 -23 111 -21 144 5 84 66
68 183 -31 225 -33 14 -44 15 -78 7z"/>
<path d="M6043 9268 c-30 -15 -46 -58 -34 -91 19 -49 71 -61 115 -26 65 51 -6
154 -81 117z"/>
<path d="M8440 9260 c-42 -42 -11 -113 50 -113 61 0 92 71 50 113 -11 11 -33
20 -50 20 -17 0 -39 -9 -50 -20z"/>
<path d="M9782 9268 c-7 -7 -12 -21 -12 -33 0 -12 5 -26 12 -33 7 -7 21 -12
33 -12 12 0 26 5 33 12 7 7 12 21 12 33 0 12 -5 26 -12 33 -7 7 -21 12 -33 12
-12 0 -26 -5 -33 -12z"/>
<path d="M3972 9248 c-13 -13 -16 -47 -4 -64 23 -33 82 -12 82 30 0 28 -18 46
-45 46 -12 0 -26 -5 -33 -12z"/>
<path d="M7823 9221 c-158 -72 -64 -316 101 -261 38 12 96 71 96 98 0 13 3 12
16 -6 8 -12 26 -22 39 -22 21 0 55 32 55 52 0 14 -39 48 -55 48 -8 0 -23 -10
-35 -22 l-20 -22 0 32 c0 41 -50 98 -98 112 -48 13 -50 13 -99 -9z"/>
<path d="M5533 9208 c-12 -6 -27 -24 -34 -40 -10 -25 -9 -33 8 -56 41 -56 123
-33 123 33 0 50 -52 84 -97 63z"/>
<path d="M5843 9199 c-25 -9 -53 -47 -53 -71 0 -9 11 -29 23 -44 47 -55 127
-26 127 46 0 54 -47 88 -97 69z"/>
<path d="M8312 9194 c-24 -17 -30 -62 -10 -82 7 -7 24 -12 38 -12 33 0 50 17
50 51 0 24 -30 59 -50 59 -3 0 -16 -7 -28 -16z"/>
<path d="M8726 9171 c-26 -29 -18 -82 17 -101 24 -13 30 -13 55 0 55 31 34
120 -28 120 -15 0 -35 -9 -44 -19z"/>
<path d="M5011 9154 c-12 -15 -21 -32 -21 -39 0 -24 41 -65 66 -65 57 0 87 83
42 114 -33 23 -64 19 -87 -10z"/>
<path d="M4240 9145 c-10 -12 -10 -18 0 -30 7 -8 18 -15 25 -15 7 0 18 7 25
15 10 12 10 18 0 30 -7 8 -18 15 -25 15 -7 0 -18 -7 -25 -15z"/>
<path d="M4070 9110 c-23 -23 -24 -30 -8 -65 24 -53 108 -35 108 24 0 55 -61
80 -100 41z"/>
<path d="M4442 9118 c-7 -7 -12 -26 -12 -43 0 -17 5 -36 12 -43 7 -7 26 -12
43 -12 17 0 36 5 43 12 7 7 12 26 12 43 0 17 -5 36 -12 43 -7 7 -26 12 -43 12
-17 0 -36 -5 -43 -12z"/>
<path d="M9482 9113 c-83 -40 -83 -166 -1 -209 103 -53 209 60 154 165 -14 29
-69 61 -102 61 -10 0 -33 -8 -51 -17z"/>
<path d="M10413 9100 c-41 -25 -53 -48 -53 -105 0 -40 5 -52 34 -81 30 -30 40
-34 86 -34 46 0 56 4 86 34 29 29 34 41 34 80 0 27 -7 58 -16 72 -36 54 -113
69 -171 34z"/>
<path d="M1228 9094 c-83 -44 -72 -175 17 -204 45 -15 82 -6 117 27 95 90 -19
240 -134 177z"/>
<path d="M11847 9089 c-106 -56 -104 -218 3 -271 49 -25 110 -23 151 5 47 31
82 104 73 151 -20 110 -131 166 -227 115z"/>
<path d="M5687 9084 c-14 -14 -7 -54 12 -64 28 -15 71 21 55 47 -11 19 -54 29
-67 17z"/>
<path d="M5396 9059 c-54 -42 -19 -129 51 -129 22 0 38 8 52 26 28 35 26 69
-4 99 -30 30 -64 32 -99 4z"/>
<path d="M8184 9071 c-33 -14 -54 -51 -54 -94 0 -52 43 -97 93 -97 43 0 92 38
100 77 6 31 -12 81 -36 101 -20 17 -77 24 -103 13z"/>
<path d="M3352 9048 c-7 -7 -12 -21 -12 -33 0 -29 19 -45 52 -45 36 0 56 36
39 69 -13 23 -59 29 -79 9z"/>
<path d="M2214 9016 c-92 -92 9 -230 129 -175 32 15 57 60 57 104 0 55 -52
105 -110 105 -34 0 -48 -6 -76 -34z"/>
<path d="M10215 9034 c-24 -25 -15 -67 17 -78 34 -12 58 6 58 45 0 43 -45 63
-75 33z"/>
<path d="M8486 9021 c-23 -26 -13 -59 21 -67 20 -5 31 -2 45 16 16 20 17 25 5
44 -19 28 -49 31 -71 7z"/>
<path d="M8955 8997 c-30 -30 -35 -42 -35 -80 0 -55 27 -92 76 -106 78 -22
144 31 144 113 0 54 -43 96 -103 103 -43 5 -49 3 -82 -30z"/>
<path d="M3773 9013 c-7 -3 -13 -15 -13 -28 0 -13 6 -25 13 -28 17 -6 47 11
47 28 0 17 -30 34 -47 28z"/>
<path d="M2794 8971 c-33 -14 -64 -60 -64 -95 0 -41 24 -75 66 -92 29 -12 39
-12 68 0 69 29 87 102 39 156 -30 32 -75 45 -109 31z"/>
<path d="M5060 8960 c-41 -41 -10 -120 47 -120 30 0 73 42 73 70 0 29 -44 70
-75 70 -14 0 -34 -9 -45 -20z"/>
<path d="M4220 8945 c-18 -21 -5 -47 22 -43 26 3 37 36 16 49 -18 12 -24 11
-38 -6z"/>
<path d="M8023 8949 c-31 -11 -40 -54 -18 -79 25 -27 61 -25 80 4 28 42 -15
93 -62 75z"/>
<path d="M4700 8930 c-23 -23 -24 -33 -10 -61 12 -22 59 -26 78 -7 19 19 14
55 -10 72 -29 20 -34 20 -58 -4z"/>
<path d="M5272 8934 c-41 -29 -23 -84 28 -84 32 0 50 17 50 46 0 20 -32 54
-50 54 -3 0 -16 -7 -28 -16z"/>
<path d="M8729 8935 c-58 -32 -73 -122 -29 -178 68 -86 210 -32 210 80 0 38
-5 50 -34 79 -28 28 -41 34 -77 34 -24 -1 -56 -7 -70 -15z"/>
<path d="M3944 8919 c-22 -11 -44 -48 -44 -75 0 -26 47 -64 79 -64 34 0 71 39
71 75 0 49 -61 86 -106 64z"/>
<path d="M4400 8923 c-40 -14 -53 -69 -22 -96 25 -23 58 -21 82 3 26 26 25 46
-5 75 -25 26 -29 27 -55 18z"/>
<path d="M4834 8886 c-28 -28 -34 -42 -34 -76 0 -34 6 -48 34 -76 29 -29 41
-34 79 -34 37 0 51 5 76 31 53 53 40 144 -26 178 -44 22 -92 14 -129 -23z"/>
<path d="M9297 8889 c-23 -14 -47 -62 -47 -97 0 -67 79 -115 143 -88 72 30 86
120 26 170 -32 28 -88 34 -122 15z"/>
<path d="M3062 8865 c-46 -20 -68 -72 -49 -117 18 -42 37 -58 81 -65 31 -5 40
-1 71 30 44 44 47 84 8 126 -34 37 -68 45 -111 26z"/>
<path d="M10590 8868 c-91 -48 -86 -175 8 -215 32 -13 42 -14 77 -2 85 30 110
129 47 191 -34 34 -94 46 -132 26z"/>
<path d="M9754 8856 c-10 -26 1 -51 22 -54 30 -4 48 21 34 47 -12 24 -48 28
-56 7z"/>
<path d="M8284 8826 c-28 -28 -34 -42 -34 -76 0 -57 50 -110 105 -110 72 0
115 41 115 110 0 69 -43 110 -115 110 -29 0 -45 -8 -71 -34z"/>
<path d="M10076 8839 c-14 -11 -26 -29 -26 -40 0 -25 35 -59 60 -59 11 0 29 9
40 20 11 11 20 29 20 40 0 23 -33 60 -54 60 -7 0 -25 -9 -40 -21z"/>
<path d="M3548 8835 c-36 -20 -58 -64 -58 -114 0 -76 77 -131 154 -110 84 23
116 135 58 200 -23 26 -37 32 -78 35 -32 3 -58 -1 -76 -11z"/>
<path d="M5078 8819 c-21 -12 -24 -59 -6 -77 18 -18 53 -15 71 6 22 24 21 45
-1 65 -21 19 -39 21 -64 6z"/>
<path d="M11119 8801 c-16 -16 -29 -39 -29 -51 0 -25 51 -80 75 -80 24 0 72
27 79 45 12 33 5 66 -19 90 -33 33 -70 32 -106 -4z"/>
<path d="M4512 8804 c-29 -20 -30 -76 -2 -104 41 -41 110 -10 110 50 0 58 -60
88 -108 54z"/>
<path d="M4178 8775 c-32 -18 -52 -72 -39 -106 25 -67 113 -87 157 -36 34 40
32 90 -5 128 -33 32 -70 37 -113 14z"/>
<path d="M8590 8751 c-21 -40 20 -77 58 -52 8 5 12 21 10 37 -2 23 -9 30 -30
32 -19 2 -30 -3 -38 -17z"/>
<path d="M687 8740 c-71 -56 -25 -170 68 -170 42 0 85 50 85 98 0 79 -90 121
-153 72z"/>
<path d="M3272 8748 c-7 -7 -12 -24 -12 -38 0 -14 5 -31 12 -38 7 -7 24 -12
38 -12 14 0 31 5 38 12 7 7 12 24 12 38 0 14 -5 31 -12 38 -7 7 -24 12 -38 12
-14 0 -31 -5 -38 -12z"/>
<path d="M9000 8730 c-43 -43 -11 -120 49 -120 32 0 71 39 71 70 0 10 -9 29
-21 44 -25 32 -70 35 -99 6z"/>
<path d="M9606 8678 c-42 -59 12 -133 78 -108 47 18 58 77 20 114 -24 24 -80
20 -98 -6z"/>
<path d="M4031 8676 c-28 -33 22 -83 55 -55 8 7 14 24 12 38 -2 20 -9 27 -29
29 -14 2 -31 -4 -38 -12z"/>
<path d="M2505 8645 c-73 -72 28 -178 109 -114 20 16 26 29 26 59 0 72 -84
106 -135 55z"/>
<path d="M9139 8649 c-8 -16 -8 -28 0 -46 9 -19 17 -24 43 -21 40 4 56 28 40
62 -15 34 -66 37 -83 5z"/>
<path d="M8502 8651 c-8 -4 -12 -19 -10 -32 2 -18 9 -24 28 -24 19 0 26 6 28
24 3 20 -11 41 -28 41 -3 0 -11 -4 -18 -9z"/>
<path d="M9964 8635 c-15 -23 -15 -27 0 -50 28 -42 96 -24 96 25 0 49 -68 67
-96 25z"/>
<path d="M3749 8621 c-20 -20 -29 -39 -29 -61 0 -45 47 -90 93 -90 77 0 118
100 62 155 -35 36 -88 34 -126 -4z"/>
<path d="M4717 8632 c-22 -24 -21 -65 1 -85 40 -36 102 -9 102 45 0 51 -69 78
-103 40z"/>
<path d="M10256 8637 c-11 -8 -17 -23 -14 -38 2 -20 8 -24 38 -24 30 0 36 4
38 24 4 22 -18 51 -38 51 -3 0 -14 -6 -24 -13z"/>
<path d="M11334 8636 c-12 -31 0 -51 31 -51 27 0 30 3 30 30 0 25 -4 30 -28
33 -17 2 -29 -2 -33 -12z"/>
<path d="M4401 8604 c-26 -32 -26 -46 -3 -72 29 -34 58 -37 87 -8 30 30 32 55
5 84 -28 30 -64 28 -89 -4z"/>
<path d="M8602 8618 c-7 -7 -12 -21 -12 -33 0 -12 5 -26 12 -33 27 -27 78 -7
78 29 0 39 -52 63 -78 37z"/>
<path d="M8870 8606 c-19 -23 -8 -61 18 -64 44 -7 67 32 36 62 -19 20 -38 20
-54 2z"/>
<path d="M8732 8574 c-16 -11 -22 -25 -22 -54 0 -29 6 -43 22 -54 49 -35 111
-4 111 54 0 58 -62 89 -111 54z"/>
<path d="M9424 8576 c-11 -28 1 -51 25 -51 32 0 49 28 32 49 -17 20 -50 21
-57 2z"/>
<path d="M3272 8555 c-38 -32 -47 -67 -27 -109 16 -34 50 -56 85 -56 85 0 125
105 60 163 -38 34 -79 35 -118 2z"/>
<path d="M4592 8554 c-41 -29 -23 -84 28 -84 32 0 50 17 50 46 0 20 -32 54
-50 54 -3 0 -16 -7 -28 -16z"/>
<path d="M10725 8545 c-16 -15 -25 -36 -25 -55 0 -39 39 -80 75 -80 30 0 85
49 85 75 0 21 -19 57 -39 72 -26 20 -70 15 -96 -12z"/>
<path d="M9840 8540 c-26 -26 -25 -46 5 -75 29 -30 35 -31 69 -4 30 23 33 45
10 77 -19 28 -57 29 -84 2z"/>
<path d="M10160 8539 c-14 -25 11 -69 39 -69 21 0 51 30 51 51 0 41 -71 55
-90 18z"/>
<path d="M10486 8524 c-9 -8 -16 -19 -16 -24 0 -9 28 -40 36 -40 17 0 44 23
44 38 0 38 -37 53 -64 26z"/>
<path d="M11114 8511 c-65 -28 -83 -110 -35 -163 25 -28 36 -33 75 -33 36 0
51 6 73 28 39 38 40 105 2 142 -27 28 -82 40 -115 26z"/>
<path d="M3562 8494 c-29 -20 -31 -79 -3 -94 27 -14 66 -13 79 3 24 30 23 56
-2 82 -29 29 -43 31 -74 9z"/>
<path d="M9998 8489 c-26 -15 -24 -75 3 -89 30 -17 62 -8 78 21 13 24 13 29
-2 53 -18 27 -49 33 -79 15z"/>
<path d="M9431 8464 c-38 -32 -49 -80 -27 -123 35 -67 122 -78 170 -20 81 96
-47 224 -143 143z"/>
<path d="M1025 8455 c-39 -38 -32 -86 16 -110 76 -40 146 71 76 120 -31 22
-65 18 -92 -10z"/>
<path d="M2255 8448 c-31 -16 -45 -39 -45 -70 0 -39 40 -78 80 -78 36 0 80 38
80 69 0 33 -21 68 -47 80 -30 14 -42 13 -68 -1z"/>
<path d="M8985 8446 c-20 -15 -17 -44 7 -59 12 -8 21 -7 32 2 36 30 -1 85 -39
57z"/>
<path d="M4240 8436 c-19 -23 -8 -61 18 -64 44 -7 67 32 36 62 -19 20 -38 20
-54 2z"/>
<path d="M4554 8425 c-9 -14 -13 -32 -9 -45 15 -47 86 -50 107 -5 27 59 -62
105 -98 50z"/>
<path d="M3051 8404 c-60 -50 -46 -140 26 -170 46 -20 86 -10 118 28 80 95
-48 223 -144 142z"/>
<path d="M8813 8415 c-27 -19 -31 -75 -7 -99 40 -40 105 -24 118 30 15 59 -60
105 -111 69z"/>
<path d="M3958 8395 c-14 -30 3 -55 37 -55 12 0 28 7 35 15 20 24 -3 65 -35
65 -17 0 -29 -8 -37 -25z"/>
<path d="M4440 8413 c-75 -27 -60 -133 19 -133 32 0 71 39 71 70 0 38 -54 76
-90 63z"/>
<path d="M9702 8408 c-19 -19 -14 -56 8 -63 43 -14 69 44 31 65 -24 13 -24 13
-39 -2z"/>
<path d="M2890 8396 c-6 -8 -10 -25 -8 -38 4 -30 46 -38 65 -12 17 23 16 29
-3 48 -19 20 -38 20 -54 2z"/>
<path d="M9176 8374 c-19 -19 -20 -25 -3 -48 19 -26 61 -18 65 12 7 44 -32 67
-62 36z"/>
<path d="M9910 8375 c-6 -8 -9 -23 -5 -35 8 -25 51 -27 64 -2 20 38 -31 71
-59 37z"/>
<path d="M10224 8378 c-47 -22 -56 -86 -19 -123 62 -63 161 6 129 90 -7 17
-55 45 -76 44 -7 0 -23 -5 -34 -11z"/>
<path d="M10558 8375 c-57 -32 -65 -99 -19 -146 56 -56 145 -27 157 52 12 70
-76 129 -138 94z"/>
<path d="M3677 8289 c-27 -16 -50 -68 -42 -98 28 -111 185 -95 185 19 0 65
-86 112 -143 79z"/>
<path d="M3373 8272 c-30 -5 -63 -48 -63 -84 0 -63 83 -101 137 -63 30 21 40
78 20 109 -18 26 -60 44 -94 38z"/>
<path d="M8946 8264 c-23 -22 -30 -59 -16 -84 10 -19 47 -40 71 -40 20 0 59
50 59 75 0 53 -77 87 -114 49z"/>
<path d="M9117 8252 c-51 -57 21 -140 82 -95 32 24 38 56 17 89 -20 30 -75 33
-99 6z"/>
<path d="M9643 8249 c-26 -9 -41 -55 -26 -78 6 -9 22 -20 36 -25 21 -8 31 -6
47 9 49 44 5 117 -57 94z"/>
<path d="M3937 8232 c-34 -38 -9 -102 39 -102 25 0 38 10 53 37 30 57 -49 113
-92 65z"/>
<path d="M9452 8238 c-7 -7 -12 -24 -12 -38 0 -14 5 -31 12 -38 7 -7 24 -12
38 -12 32 0 50 17 50 46 0 44 -58 72 -88 42z"/>
<path d="M4174 8225 c-9 -23 3 -45 25 -45 23 0 35 28 20 46 -15 18 -38 18 -45
-1z"/>
<path d="M4306 8209 c-14 -11 -26 -29 -26 -40 0 -25 35 -59 60 -59 24 0 60 34
60 55 0 17 -43 65 -58 65 -5 0 -21 -9 -36 -21z"/>
<path d="M9338 8219 c-21 -12 -24 -69 -6 -87 18 -18 63 -14 81 6 45 50 -17
115 -75 81z"/>
<path d="M9835 8156 c-13 -19 -14 -29 -6 -45 25 -45 91 -33 91 17 0 54 -56 72
-85 28z"/>
<path d="M4010 8115 c-14 -17 -5 -51 16 -59 20 -8 54 11 54 29 0 43 -43 62
-70 30z"/>
<path d="M9531 8103 c-67 -62 -29 -163 61 -163 54 0 98 43 98 95 0 27 -8 44
-29 66 -40 39 -89 40 -130 2z"/>
<path d="M2223 8108 c-44 -11 -73 -52 -73 -100 0 -86 101 -130 168 -73 86 72
14 202 -95 173z"/>
<path d="M9150 8112 c-74 -23 -60 -124 17 -124 29 0 63 33 63 61 0 39 -45 74
-80 63z"/>
<path d="M2520 8103 c-63 -22 -45 -113 22 -113 42 0 73 52 50 86 -7 10 -47 35
-54 33 -2 0 -10 -3 -18 -6z"/>
<path d="M2996 8088 c-9 -12 -16 -30 -16 -39 0 -19 45 -59 66 -59 22 0 54 38
54 64 0 54 -74 78 -104 34z"/>
<path d="M11010 8070 c-29 -29 -26 -74 6 -99 35 -27 59 -26 89 4 31 30 32 65
2 93 -29 27 -71 28 -97 2z"/>
<path d="M4120 8058 c-11 -12 -20 -32 -20 -45 0 -29 42 -73 68 -73 33 0 72 38
72 71 0 62 -78 92 -120 47z"/>
<path d="M10476 8049 c-14 -11 -26 -31 -26 -43 0 -50 78 -79 107 -40 20 28 16
71 -9 88 -29 21 -40 20 -72 -5z"/>
<path d="M1647 8032 c-33 -36 -15 -85 35 -97 53 -13 91 61 50 98 -24 22 -65
21 -85 -1z"/>
<path d="M3440 8022 c-37 -37 -39 -74 -5 -107 38 -39 102 -27 124 22 16 35 14
49 -11 77 -37 41 -72 43 -108 8z"/>
<path d="M9280 8025 c-17 -20 -5 -62 20 -70 44 -14 80 41 48 73 -17 17 -53 15
-68 -3z"/>
<path d="M3867 8012 c-10 -10 -17 -23 -17 -29 0 -13 33 -43 48 -43 15 0 42 29
42 45 0 17 -27 45 -44 45 -7 0 -20 -8 -29 -18z"/>
<path d="M10160 8001 c-23 -44 -5 -81 40 -81 14 0 31 5 38 12 7 7 12 24 12 38
0 14 -5 31 -12 38 -19 19 -66 15 -78 -7z"/>
<path d="M11565 7996 c-31 -13 -55 -51 -55 -86 0 -10 12 -32 26 -49 52 -63
154 -28 154 53 0 67 -65 109 -125 82z"/>
<path d="M9411 7981 c-13 -24 9 -57 33 -48 23 9 31 34 16 52 -17 20 -37 19
-49 -4z"/>
<path d="M9904 7976 c-49 -22 -74 -61 -74 -118 0 -43 5 -55 33 -83 43 -43 79
-52 131 -34 107 37 114 192 11 235 -42 17 -61 17 -101 0z"/>
<path d="M9172 7968 c-17 -17 -15 -53 3 -68 8 -7 25 -10 40 -6 29 7 44 49 25
71 -15 18 -51 20 -68 3z"/>
<path d="M3175 7948 c-52 -28 -73 -108 -40 -154 32 -47 122 -56 158 -16 79 87
-17 226 -118 170z"/>
<path d="M3726 7939 c-31 -25 -34 -61 -6 -89 40 -40 110 -11 110 45 0 29 -32
65 -59 65 -10 0 -30 -9 -45 -21z"/>
<path d="M10592 7928 c-20 -20 -14 -56 13 -74 23 -15 27 -15 50 0 44 29 28 86
-25 86 -14 0 -31 -5 -38 -12z"/>
<path d="M9346 7898 c-32 -46 -7 -98 47 -98 33 0 57 24 57 59 0 56 -73 83
-104 39z"/>
<path d="M9660 7901 c-16 -31 -12 -49 14 -66 29 -19 61 -8 71 26 15 45 -62 82
-85 40z"/>
<path d="M11228 7874 c-53 -28 -72 -98 -43 -154 21 -42 53 -60 103 -60 37 0
50 6 78 34 28 28 34 42 34 75 0 93 -92 149 -172 105z"/>
<path d="M4090 7865 c-26 -32 13 -81 48 -59 34 22 22 74 -18 74 -10 0 -23 -7
-30 -15z"/>
<path d="M11884 7871 c-32 -14 -64 -60 -64 -93 0 -61 45 -108 105 -108 92 0
138 116 71 179 -26 25 -80 35 -112 22z"/>
<path d="M3972 7858 c-21 -21 -14 -57 12 -64 33 -8 46 2 46 36 0 36 -33 53
-58 28z"/>
<path d="M2829 7825 c-55 -30 -62 -116 -12 -155 87 -68 203 51 131 135 -28 32
-83 41 -119 20z"/>
<path d="M3833 7820 c-44 -18 -41 -93 3 -110 72 -28 118 77 49 108 -14 7 -27
12 -28 11 -1 0 -12 -4 -24 -9z"/>
<path d="M882 7810 c-49 -20 -48 -101 3 -120 55 -21 106 30 85 85 -7 19 -50
49 -63 44 -1 0 -12 -4 -25 -9z"/>
<path d="M10153 7810 c-46 -19 -57 -83 -20 -118 48 -45 117 -14 117 51 0 51
-50 86 -97 67z"/>
<path d="M9615 7798 c-31 -16 -45 -39 -45 -71 0 -40 14 -62 50 -77 54 -22 110
15 110 74 0 38 -10 55 -41 71 -33 18 -47 18 -74 3z"/>
<path d="M9282 7778 c-13 -13 -16 -47 -4 -64 24 -35 82 -18 82 24 0 33 -16 52
-45 52 -12 0 -26 -5 -33 -12z"/>
<path d="M3966 7749 c-34 -27 -32 -64 7 -93 26 -19 30 -19 55 -5 20 11 28 24
30 50 5 57 -46 84 -92 48z"/>
<path d="M3602 7748 c-28 -28 -1 -75 38 -63 14 4 20 15 20 35 0 36 -33 53 -58
28z"/>
<path d="M10492 7710 c-32 -30 -30 -82 4 -109 34 -27 57 -26 90 2 20 17 27 33
27 57 0 62 -75 93 -121 50z"/>
<path d="M9362 7698 c-17 -17 -15 -64 4 -82 33 -34 94 -7 94 42 0 43 -67 71
-98 40z"/>
<path d="M1367 7650 c-70 -55 -25 -170 66 -170 30 0 75 35 88 68 12 32 -5 87
-34 107 -31 21 -89 19 -120 -5z"/>
<path d="M3813 7655 c-78 -33 -83 -159 -8 -193 49 -23 94 -15 131 22 55 55 41
136 -30 170 -41 19 -51 19 -93 1z"/>
<path d="M3341 7609 c-26 -25 -31 -39 -31 -76 0 -38 5 -50 34 -79 28 -28 42
-34 76 -34 34 0 48 6 76 34 28 28 34 42 34 76 0 34 -6 48 -34 76 -29 29 -41
34 -79 34 -37 0 -51 -5 -76 -31z"/>
<path d="M9860 7610 c-62 -62 35 -154 100 -95 25 23 26 76 2 98 -25 23 -78 21
-102 -3z"/>
<path d="M10293 7614 c-6 -17 6 -45 23 -51 21 -7 47 23 40 45 -9 27 -53 30
-63 6z"/>
<path d="M2666 7587 c-28 -20 -18 -61 16 -65 36 -4 53 26 32 56 -18 26 -24 27
-48 9z"/>
<path d="M3642 7568 c-20 -20 -14 -66 9 -79 33 -17 69 3 69 39 0 33 -16 52
-45 52 -12 0 -26 -5 -33 -12z"/>
<path d="M9646 7558 c-34 -49 -7 -108 49 -108 92 0 95 120 2 128 -27 2 -39 -2
-51 -20z"/>
<path d="M10585 7537 c-43 -43 -52 -79 -34 -131 38 -108 192 -114 235 -9 21
50 10 99 -31 140 -29 29 -39 33 -85 33 -46 0 -56 -4 -85 -33z"/>
<path d="M9426 7535 c-42 -42 -18 -107 42 -113 59 -6 97 72 54 111 -23 21 -76
22 -96 2z"/>
<path d="M2866 7518 c-37 -53 -5 -118 57 -118 42 0 70 29 70 70 0 43 -28 70
-74 70 -28 0 -42 -6 -53 -22z"/>
<path d="M11195 7510 c-15 -16 -17 -26 -9 -48 17 -50 94 -39 94 14 0 49 -52
70 -85 34z"/>
<path d="M3119 7491 c-64 -65 -20 -171 71 -171 33 0 48 6 71 29 64 65 20 171
-71 171 -33 0 -48 -6 -71 -29z"/>
<path d="M10244 7466 c-26 -26 -34 -42 -34 -71 0 -71 48 -120 116 -118 108 3
152 148 61 203 -51 32 -103 26 -143 -14z"/>
<path d="M10966 7448 c-21 -30 -20 -54 4 -78 39 -39 100 -14 100 42 0 53 -74
79 -104 36z"/>
<path d="M1883 7410 c-26 -11 -63 -66 -63 -93 0 -58 67 -114 125 -103 110 21
106 186 -6 201 -18 3 -44 0 -56 -5z"/>
<path d="M3700 7402 c-28 -23 -30 -70 -4 -89 30 -22 76 -12 93 19 14 25 14 29
-5 55 -26 35 -54 40 -84 15z"/>
<path d="M9884 7380 c-50 -20 -71 -101 -39 -146 38 -55 130 -51 160 6 29 56
15 109 -35 135 -32 17 -54 18 -86 5z"/>
<path d="M9582 7340 c-70 -43 -78 -136 -17 -197 29 -29 39 -33 85 -33 46 0 56
4 85 33 19 19 36 48 40 69 14 74 -48 148 -125 148 -19 0 -50 -9 -68 -20z"/>
<path d="M2937 7329 c-11 -6 -25 -26 -33 -45 -12 -29 -12 -39 0 -68 26 -64 97
-76 147 -27 37 37 38 79 3 120 -20 24 -34 31 -62 31 -21 0 -45 -5 -55 -11z"/>
<path d="M3500 7315 c-7 -8 -12 -26 -12 -40 0 -36 20 -55 58 -55 35 0 54 20
54 59 0 44 -72 70 -100 36z"/>
<path d="M2387 7299 c-50 -38 -24 -111 40 -111 29 0 63 33 63 62 0 23 -29 57
-56 64 -13 4 -30 -1 -47 -15z"/>
<path d="M1152 7280 c-34 -21 -62 -71 -62 -111 0 -11 8 -37 17 -56 49 -104
205 -95 243 15 13 37 13 47 0 84 -28 80 -124 113 -198 68z"/>
<path d="M11287 7283 c-13 -12 -7 -51 9 -57 21 -8 20 -8 38 10 12 12 13 20 6
35 -10 19 -40 26 -53 12z"/>
<path d="M3795 7251 c-12 -40 20 -70 56 -51 20 11 23 27 13 54 -9 23 -61 21
-69 -3z"/>
<path d="M10526 7211 c-26 -29 -18 -81 16 -100 59 -33 120 28 87 87 -19 35
-76 43 -103 13z"/>
<path d="M3706 7194 c-19 -19 -17 -33 7 -48 24 -15 56 17 41 41 -15 24 -29 26
-48 7z"/>
<path d="M11484 7196 c-47 -21 -74 -61 -74 -113 0 -79 51 -133 127 -133 141 0
178 191 47 246 -41 17 -60 17 -100 0z"/>
<path d="M3189 7151 c-38 -39 -39 -87 -3 -130 56 -66 164 -25 164 63 0 52 -44
96 -95 96 -27 0 -44 -8 -66 -29z"/>
<path d="M10220 7160 c-57 -57 15 -150 79 -103 35 26 39 68 10 99 -27 29 -62
31 -89 4z"/>
<path d="M10770 7162 c-55 -27 -83 -77 -78 -140 14 -172 252 -177 284 -6 9 51
-26 118 -75 143 -49 26 -85 26 -131 3z"/>
<path d="M11939 7131 c-43 -14 -76 -41 -93 -76 -30 -62 -16 -123 39 -175 23
-21 36 -25 90 -25 54 0 67 4 90 25 57 53 69 113 36 178 -29 57 -104 90 -162
73z"/>
<path d="M3572 7093 c-107 -53 -65 -223 55 -223 34 0 88 31 104 61 16 31 13
96 -6 126 -17 25 -70 53 -102 53 -10 0 -33 -8 -51 -17z"/>
<path d="M9940 7090 c-42 -42 -11 -113 50 -113 61 0 91 67 50 111 -26 28 -73
29 -100 2z"/>
<path d="M2890 7015 c-26 -32 13 -81 48 -59 34 22 22 74 -18 74 -10 0 -23 -7
-30 -15z"/>
<path d="M9640 7010 c-41 -41 -12 -120 44 -120 38 0 69 32 69 70 0 61 -71 92
-113 50z"/>
<path d="M10400 6983 c-101 -52 -106 -193 -10 -252 42 -25 160 -35 203 -17 44
18 83 66 91 111 6 28 2 48 -16 83 -28 58 -67 78 -163 87 -56 5 -77 2 -105 -12z"/>
<path d="M10057 6962 c-22 -25 -21 -55 2 -76 27 -25 72 -17 90 15 13 24 13 29
-2 53 -21 31 -66 35 -90 8z"/>
<path d="M1396 6948 c-13 -19 -14 -25 -2 -43 7 -11 22 -21 34 -23 24 -4 53 33
44 57 -13 37 -53 42 -76 9z"/>
<path d="M521 6936 c-57 -32 -70 -125 -23 -176 76 -86 214 -21 199 94 -11 79
-103 122 -176 82z"/>
<path d="M9811 6932 c-40 -21 -71 -73 -71 -117 0 -69 66 -135 135 -135 40 0
90 32 115 72 67 111 -65 243 -179 180z"/>
<path d="M3285 6931 c-85 -37 -80 -161 8 -190 101 -34 180 96 103 168 -26 24
-80 35 -111 22z"/>
<path d="M1903 6895 c-33 -33 -35 -38 -31 -87 7 -70 47 -108 114 -108 39 0 51
5 80 34 29 29 34 41 34 81 0 40 -5 52 -34 81 -29 29 -41 34 -81 34 -40 0 -52
-5 -82 -35z"/>
<path d="M10991 6905 c-120 -101 12 -287 146 -205 74 45 83 139 19 197 -30 28
-43 33 -85 33 -38 0 -56 -6 -80 -25z"/>
<path d="M11582 6885 c-36 -30 -47 -66 -32 -110 31 -93 178 -85 196 11 18 97
-89 162 -164 99z"/>
<path d="M2722 6884 c-53 -37 -11 -124 52 -108 68 17 56 124 -14 124 -9 0 -26
-7 -38 -16z"/>
<path d="M20 6850 c-28 -28 -25 -64 6 -89 33 -26 45 -26 74 -3 27 22 29 65 5
92 -23 26 -60 25 -85 0z"/>
<path d="M3534 6786 c-95 -95 18 -237 132 -167 93 57 47 201 -64 201 -25 0
-43 -9 -68 -34z"/>
<path d="M2405 6775 c-19 -18 -25 -35 -25 -65 0 -55 34 -90 88 -90 53 0 92 38
92 90 0 80 -99 122 -155 65z"/>
<path d="M3023 6783 c-29 -6 -73 -58 -73 -88 0 -61 62 -114 117 -100 70 17 97
106 48 159 -13 14 -28 26 -34 26 -5 0 -15 2 -23 4 -7 2 -23 1 -35 -1z"/>
<path d="M10649 6721 c-64 -65 -20 -171 71 -171 33 0 48 6 71 29 64 65 20 171
-71 171 -33 0 -48 -6 -71 -29z"/>
<path d="M10182 6710 c-33 -31 -30 -92 4 -119 33 -26 64 -27 97 -1 33 26 41
63 23 99 -24 46 -86 57 -124 21z"/>
<path d="M1377 6699 c-27 -16 -49 -67 -42 -99 8 -38 58 -80 94 -80 34 0 79 33
92 68 12 32 -5 87 -34 107 -24 17 -83 19 -110 4z"/>
<path d="M9712 6663 c-7 -3 -19 -18 -28 -35 -20 -38 -10 -81 23 -108 73 -57
172 25 129 108 -8 16 -23 32 -31 36 -19 7 -74 7 -93 -1z"/>
<path d="M9944 6595 c-21 -33 -6 -72 31 -81 50 -13 86 53 49 90 -24 24 -61 20
-80 -9z"/>
<path d="M2855 6591 c-64 -28 -92 -111 -56 -169 44 -69 131 -79 187 -21 24 25
29 39 29 79 0 42 -5 54 -31 81 -33 33 -92 46 -129 30z"/>
<path d="M3417 6564 c-13 -13 -7 -52 8 -58 27 -10 46 5 43 33 -3 26 -35 41
-51 25z"/>
<path d="M11273 6558 c-33 -16 -48 -61 -33 -97 32 -79 150 -53 150 32 0 53
-67 91 -117 65z"/>
<path d="M3144 6510 c-12 -4 -31 -21 -43 -36 -71 -91 58 -207 140 -125 50 51
37 130 -26 157 -39 16 -42 16 -71 4z"/>
<path d="M3574 6466 c-51 -22 -60 -81 -19 -121 30 -30 64 -32 99 -4 46 36 28
117 -29 133 -11 3 -34 -1 -51 -8z"/>
<path d="M10987 6459 c-26 -15 -46 -68 -40 -102 7 -35 57 -77 92 -77 34 0 79
33 92 68 12 32 -5 87 -34 107 -25 17 -84 19 -110 4z"/>
<path d="M9785 6434 c-18 -18 -16 -33 7 -47 21 -14 48 -2 48 22 0 30 -34 45
-55 25z"/>
<path d="M9987 6422 c-36 -40 -9 -102 45 -102 33 0 58 29 58 68 0 50 -69 72
-103 34z"/>
<path d="M2011 6324 c-12 -15 -21 -38 -21 -51 0 -34 42 -73 80 -73 38 0 80 39
80 73 0 42 -36 77 -80 77 -30 0 -43 -6 -59 -26z"/>
<path d="M10153 6326 c-23 -20 -28 -32 -28 -71 0 -39 5 -51 28 -71 30 -26 83
-32 119 -13 11 6 26 26 34 46 40 96 -74 177 -153 109z"/>
<path d="M3310 6320 c-28 -28 -23 -67 12 -93 23 -17 31 -19 53 -9 38 18 51 60
27 91 -25 34 -65 38 -92 11z"/>
<path d="M10460 6327 c-41 -14 -80 -67 -80 -109 0 -91 97 -146 181 -102 31 16
59 66 59 106 0 29 -33 84 -57 96 -34 17 -68 20 -103 9z"/>
<path d="M563 6306 c-68 -31 -80 -121 -22 -170 52 -44 123 -30 155 30 45 84
-45 179 -133 140z"/>
<path d="M9763 6310 c-55 -22 -67 -102 -20 -135 59 -42 144 20 118 86 -16 43
-59 64 -98 49z"/>
<path d="M11430 6313 c-30 -11 -70 -57 -76 -89 -12 -64 48 -134 116 -134 55 0
110 57 110 115 0 76 -80 133 -150 108z"/>
<path d="M11913 6276 c-23 -20 -28 -32 -28 -71 0 -39 5 -51 28 -71 40 -34 90
-32 128 5 86 86 -36 216 -128 137z"/>
<path d="M3543 6244 c-6 -17 6 -45 23 -51 5 -2 19 3 29 11 16 12 18 18 9 33
-15 24 -52 29 -61 7z"/>
<path d="M935 6225 c-49 -48 -15 -135 52 -135 32 1 55 15 71 47 18 34 14 52
-17 84 -36 36 -73 37 -106 4z"/>
<path d="M11165 6211 c-84 -35 -76 -163 11 -185 39 -10 93 19 109 59 13 30 13
39 1 69 -8 20 -28 42 -45 50 -33 18 -46 19 -76 7z"/>
<path d="M2581 6144 c-60 -50 -46 -140 26 -170 47 -20 97 -4 124 40 29 47 25
82 -15 122 -43 43 -90 46 -135 8z"/>
<path d="M9940 6136 c-27 -33 18 -72 48 -42 13 13 14 20 6 34 -15 23 -38 26
-54 8z"/>
<path d="M3342 6128 c-21 -21 -14 -66 13 -84 51 -33 104 21 71 71 -18 27 -63
34 -84 13z"/>
<path d="M3545 6105 c-35 -34 -33 -78 4 -116 58 -57 141 -23 141 59 0 76 -91
112 -145 57z"/>
<path d="M10914 6110 c-32 -13 -54 -50 -54 -91 0 -52 48 -93 99 -85 46 7 81
46 81 91 0 63 -69 110 -126 85z"/>
<path d="M3070 6080 c-25 -25 -26 -80 -1 -111 13 -17 29 -23 56 -23 75 0 111
89 54 137 -29 23 -84 22 -109 -3z"/>
<path d="M1273 6075 c-87 -37 -93 -165 -11 -215 60 -36 131 -18 168 43 38 62
12 145 -55 173 -42 17 -61 17 -102 -1z"/>
<path d="M10311 6064 c-26 -21 -31 -33 -31 -69 0 -36 5 -48 31 -69 96 -81 213
51 124 140 -33 33 -84 32 -124 -2z"/>
<path d="M9775 6031 c-76 -32 -92 -144 -26 -191 64 -45 150 -15 172 59 25 85
-64 165 -146 132z"/>
<path d="M381 6011 c-13 -24 8 -55 34 -50 23 5 40 32 32 53 -9 22 -54 20 -66
-3z"/>
<path d="M2825 5976 c-17 -7 -43 -28 -58 -45 -22 -26 -27 -43 -27 -84 0 -92
54 -147 142 -147 83 0 141 58 142 140 2 102 -109 177 -199 136z"/>
<path d="M11273 5960 c-39 -23 -53 -48 -53 -92 0 -48 32 -94 74 -108 74 -24
146 30 146 110 0 42 -21 75 -60 95 -39 20 -69 19 -107 -5z"/>
<path d="M583 5945 c-51 -22 -60 -90 -17 -124 56 -44 124 -12 124 58 0 60 -49
90 -107 66z"/>
<path d="M3396 5939 c-102 -80 -54 -239 73 -239 58 0 102 26 124 73 21 43 21
67 3 112 -30 70 -141 100 -200 54z"/>
<path d="M11833 5944 c-43 -22 -66 -60 -66 -109 0 -109 127 -162 204 -86 96
96 -17 257 -138 195z"/>
<path d="M10643 5930 c-44 -18 -44 -85 0 -110 24 -13 30 -13 55 0 68 38 17
139 -55 110z"/>
<path d="M10054 5911 c-70 -43 -63 -146 12 -177 68 -28 131 9 141 84 11 80
-83 137 -153 93z"/>
<path d="M1655 5826 c-98 -98 34 -239 137 -147 70 62 24 171 -73 171 -29 0
-47 -7 -64 -24z"/>
<path d="M3200 5780 c-11 -11 -20 -29 -20 -40 0 -26 34 -60 60 -60 26 0 60 34
60 60 0 26 -34 60 -60 60 -11 0 -29 -9 -40 -20z"/>
<path d="M12313 5786 c-43 -20 -73 -70 -73 -125 0 -37 6 -49 39 -82 33 -33 45
-39 82 -39 123 0 181 133 96 218 -40 40 -95 50 -144 28z"/>
<path d="M2154 5765 c-69 -29 -87 -114 -35 -166 57 -56 156 -30 175 47 21 80
-64 152 -140 119z"/>
<path d="M9773 5755 c-36 -16 -73 -68 -73 -103 0 -64 57 -122 120 -122 63 0
120 58 120 122 0 36 -37 88 -75 104 -42 17 -51 17 -92 -1z"/>
<path d="M10496 5734 c-20 -19 -20 -38 -2 -54 23 -19 61 -8 64 18 7 44 -32 67
-62 36z"/>
<path d="M3602 5720 c-31 -29 -29 -73 4 -99 15 -12 35 -21 46 -21 25 0 68 44
68 70 0 28 -43 70 -73 70 -13 0 -33 -9 -45 -20z"/>
<path d="M3290 5660 c-51 -51 7 -136 74 -110 70 26 50 130 -25 130 -16 0 -38
-9 -49 -20z"/>
<path d="M10129 5651 c-21 -22 -29 -39 -29 -66 0 -106 161 -132 188 -30 11 43
4 70 -25 99 -37 38 -95 36 -134 -3z"/>
<path d="M11368 5634 c-77 -41 -75 -169 2 -209 84 -43 180 13 180 105 0 92
-99 149 -182 104z"/>
<path d="M3002 5590 c-135 -82 -68 -291 89 -277 190 16 180 297 -11 297 -27 0
-58 -8 -78 -20z"/>
<path d="M1184 5566 c-103 -45 -76 -196 34 -196 112 0 147 147 47 194 -39 19
-41 19 -81 2z"/>
<path d="M11014 5548 c-76 -36 -27 -148 51 -118 52 20 52 100 0 120 -15 6 -27
10 -28 9 -1 0 -12 -5 -23 -11z"/>
<path d="M2585 5507 c-61 -61 -53 -154 17 -197 67 -40 155 -13 184 57 21 50
10 99 -31 140 -29 29 -39 33 -85 33 -46 0 -56 -4 -85 -33z"/>
<path d="M3524 5522 c-71 -57 -51 -167 34 -193 33 -9 45 -9 76 6 73 35 88 115
32 171 -28 28 -41 34 -77 34 -27 0 -53 -7 -65 -18z"/>
<path d="M10415 5505 c-28 -27 -34 -88 -12 -116 36 -47 97 -51 138 -10 60 61
24 151 -61 151 -30 0 -47 -6 -65 -25z"/>
<path d="M9710 5476 c-27 -33 18 -72 48 -42 13 13 14 20 6 34 -15 23 -38 26
-54 8z"/>
<path d="M9616 5417 c-26 -19 -18 -61 12 -65 44 -7 67 32 36 62 -19 19 -25 20
-48 3z"/>
<path d="M9887 5412 c-25 -28 -21 -69 8 -88 31 -20 53 -15 77 17 17 23 18 30
8 50 -23 44 -65 53 -93 21z"/>
<path d="M11774 5400 c-32 -13 -54 -50 -54 -91 0 -29 7 -43 31 -63 17 -15 43
-26 59 -26 16 0 42 11 59 26 77 65 -2 194 -95 154z"/>
<path d="M3265 5361 c-48 -29 -67 -57 -72 -104 -10 -86 47 -147 137 -147 47 0
56 4 91 39 35 34 39 44 39 87 0 61 -25 105 -73 127 -46 22 -85 21 -122 -2z"/>
<path d="M10245 5349 c-59 -34 -73 -106 -30 -157 62 -74 175 -32 175 64 0 57
-31 94 -85 100 -22 2 -49 -1 -60 -7z"/>
<path d="M2853 5329 c-54 -27 -89 -91 -78 -146 25 -135 194 -167 265 -51 42
69 15 160 -60 199 -45 24 -75 24 -127 -2z"/>
<path d="M9696 5308 c-21 -30 -20 -54 4 -78 39 -39 100 -14 100 42 0 53 -74
79 -104 36z"/>
<path d="M11494 5296 c-72 -32 -86 -106 -30 -162 26 -26 43 -34 69 -34 107 0
141 154 43 195 -42 18 -43 18 -82 1z"/>
<path d="M10512 5277 c-55 -58 6 -147 79 -117 26 11 49 46 49 76 0 8 -11 26
-25 39 -31 32 -74 33 -103 2z"/>
<path d="M2325 5255 c-48 -47 -18 -128 51 -141 44 -8 94 35 94 82 0 48 -37 84
-85 84 -25 0 -44 -8 -60 -25z"/>
<path d="M3770 5242 c-49 -16 -68 -83 -32 -115 25 -22 75 -21 95 1 43 47 -5
133 -63 114z"/>
<path d="M10018 5225 c-85 -48 -71 -178 22 -206 109 -33 189 96 113 181 -34
38 -93 49 -135 25z"/>
<path d="M10771 5182 c-12 -22 11 -62 34 -62 8 0 21 10 29 22 20 28 4 58 -29
58 -13 0 -29 -8 -34 -18z"/>
<path d="M3543 5170 c-68 -28 -48 -133 25 -133 69 0 99 80 46 122 -29 23 -38
24 -71 11z"/>
<path d="M11936 5158 c-13 -19 -14 -25 -2 -43 26 -39 76 -26 76 19 0 46 -48
62 -74 24z"/>
<path d="M9559 5141 c-23 -24 -29 -38 -29 -73 0 -132 162 -159 210 -34 38 101
-103 184 -181 107z"/>
<path d="M9782 5138 c-19 -19 -14 -55 10 -72 12 -9 26 -16 30 -16 13 0 48 39
48 54 0 37 -61 61 -88 34z"/>
<path d="M2605 5133 c-82 -21 -130 -127 -91 -201 27 -52 62 -75 118 -79 84 -6
144 42 155 125 13 97 -84 179 -182 155z"/>
<path d="M1426 5061 c-42 -28 -66 -70 -66 -119 0 -73 44 -129 113 -146 70 -17
157 43 171 118 9 50 -22 119 -66 146 -43 26 -113 26 -152 1z"/>
<path d="M11666 5044 c-19 -20 -26 -37 -26 -66 0 -50 13 -74 50 -93 89 -46
180 20 150 109 -24 75 -121 102 -174 50z"/>
<path d="M10592 5045 c-21 -9 -38 -27 -48 -50 -20 -49 1 -100 51 -120 31 -14
39 -14 70 0 78 32 78 138 1 170 -41 18 -33 18 -74 0z"/>
<path d="M11115 5015 c-19 -18 -25 -35 -25 -65 0 -56 34 -90 90 -90 56 0 90
34 90 90 0 56 -34 90 -90 90 -30 0 -47 -6 -65 -25z"/>
<path d="M3170 5010 c-41 -41 -13 -110 44 -110 41 0 66 26 66 68 0 56 -70 82
-110 42z"/>
<path d="M1894 5011 c-11 -5 -33 -23 -47 -41 -21 -25 -27 -42 -27 -81 0 -143
194 -179 245 -44 21 53 10 97 -34 139 -32 31 -98 43 -137 27z"/>
<path d="M3773 5000 c-74 -45 -83 -139 -19 -197 69 -63 177 -36 206 51 36 111
-87 208 -187 146z"/>
<path d="M12039 4951 c-33 -32 -39 -45 -39 -80 0 -95 74 -155 162 -130 55 14
88 60 88 117 -1 83 -49 132 -129 132 -37 0 -49 -6 -82 -39z"/>
<path d="M9462 4948 c-24 -31 -23 -57 2 -83 31 -31 50 -32 81 0 29 28 31 42 9
73 -17 25 -74 31 -92 10z"/>
<path d="M9856 4945 c-19 -20 -20 -26 -3 -49 26 -36 84 4 61 42 -15 23 -38 26
-58 7z"/>
<path d="M2872 4934 c-22 -15 -30 -66 -14 -90 13 -19 50 -34 69 -27 55 19 70
74 30 111 -27 26 -54 28 -85 6z"/>
<path d="M10275 4922 c-55 -12 -93 -72 -79 -126 19 -77 118 -103 175 -47 55
55 30 149 -46 169 -16 5 -39 6 -50 4z"/>
<path d="M9615 4896 c-31 -31 -32 -50 0 -81 28 -29 42 -31 73 -9 25 17 31 74
10 92 -31 24 -57 23 -83 -2z"/>
<path d="M3518 4895 c-55 -30 -58 -123 -4 -160 52 -37 138 -5 151 56 19 83
-69 146 -147 104z"/>
<path d="M11789 4849 c-15 -15 -19 -28 -14 -47 17 -74 115 -65 115 11 0 54
-61 76 -101 36z"/>
<path d="M11211 4824 c-56 -47 -50 -126 11 -164 45 -28 94 -21 131 20 39 44
37 92 -7 136 -43 43 -90 46 -135 8z"/>
<path d="M9496 4805 c-19 -20 -20 -26 -3 -49 26 -36 84 4 61 42 -15 23 -38 26
-58 7z"/>
<path d="M3133 4785 c-38 -16 -63 -60 -63 -111 0 -28 8 -44 34 -70 38 -38 85
-45 134 -20 80 41 71 166 -13 202 -42 17 -51 17 -92 -1z"/>
<path d="M9370 4785 c-26 -32 13 -81 48 -59 34 22 22 74 -18 74 -10 0 -23 -7
-30 -15z"/>
<path d="M9711 4774 c-12 -15 -21 -32 -21 -39 0 -24 41 -65 66 -65 31 0 64 33
64 65 0 32 -33 65 -64 65 -15 0 -33 -11 -45 -26z"/>
<path d="M2154 4738 c-7 -22 19 -52 40 -45 17 6 29 34 23 51 -10 24 -54 21
-63 -6z"/>
<path d="M9985 4735 c-30 -30 -32 -64 -4 -99 47 -59 149 -15 135 59 -13 63
-86 86 -131 40z"/>
<path d="M10955 4725 c-29 -28 -31 -42 -9 -73 18 -26 65 -30 88 -6 24 23 20
70 -6 88 -31 22 -45 20 -73 -9z"/>
<path d="M3996 4709 c-50 -39 -22 -119 42 -119 71 0 90 99 25 129 -32 15 -36
14 -67 -10z"/>
<path d="M12675 4718 c-77 -42 -49 -159 37 -158 37 1 59 14 76 47 19 35 14 63
-17 94 -31 30 -62 36 -96 17z"/>
<path d="M2784 4710 c-30 -12 -62 -56 -70 -94 -13 -72 51 -146 126 -146 47 0
80 18 107 59 38 56 25 125 -33 170 -28 22 -90 27 -130 11z"/>
<path d="M10456 4679 c-30 -23 -33 -45 -10 -77 18 -26 65 -30 88 -6 24 23 20
70 -6 88 -29 21 -40 20 -72 -5z"/>
<path d="M11511 4683 c-54 -46 -22 -136 49 -136 39 0 80 40 80 79 0 59 -83 95
-129 57z"/>
<path d="M3770 4660 c-28 -28 -27 -84 2 -104 31 -22 64 -20 88 4 41 41 12 120
-45 120 -14 0 -34 -9 -45 -20z"/>
<path d="M9600 4655 c-20 -24 3 -65 35 -65 32 0 55 41 35 65 -7 8 -23 15 -35
15 -12 0 -28 -7 -35 -15z"/>
<path d="M2456 4644 c-25 -25 -20 -71 10 -90 55 -37 117 25 80 80 -19 30 -65
35 -90 10z"/>
<path d="M9310 4623 c-25 -32 -20 -69 12 -95 46 -40 108 -7 108 56 0 65 -79
90 -120 39z"/>
<path d="M11108 4609 c-10 -5 -23 -19 -29 -30 -24 -45 52 -94 89 -57 20 20 14
65 -10 82 -26 19 -27 19 -50 5z"/>
<path d="M3557 4592 c-23 -25 -21 -78 3 -102 59 -59 152 27 100 93 -26 33 -78
37 -103 9z"/>
<path d="M2250 4550 c-23 -23 -24 -33 -10 -61 12 -22 59 -26 78 -7 19 19 15
66 -7 78 -28 14 -38 13 -61 -10z"/>
<path d="M10133 4552 c-13 -2 -32 -15 -43 -29 -44 -56 -9 -133 61 -133 65 0
105 60 77 116 -14 30 -60 52 -95 46z"/>
<path d="M4092 4543 c-25 -10 -34 -53 -17 -79 28 -43 105 -21 105 29 0 37 -50
66 -88 50z"/>
<path d="M9472 4538 c-18 -18 -14 -46 7 -58 25 -13 48 -4 56 21 12 38 -35 65
-63 37z"/>
<path d="M9759 4491 c-21 -21 -29 -39 -29 -64 0 -100 132 -131 175 -41 45 95
-72 179 -146 105z"/>
<path d="M12034 4508 c-62 -30 -61 -138 3 -167 56 -26 110 -6 133 48 34 83
-53 160 -136 119z"/>
<path d="M3175 4494 c-9 -9 -14 -21 -12 -27 6 -18 33 -31 51 -24 21 8 21 53 0
61 -21 8 -20 8 -39 -10z"/>
<path d="M3845 4478 c-41 -23 -56 -68 -39 -113 10 -25 62 -47 95 -40 70 16 83
117 18 150 -33 18 -47 18 -74 3z"/>
<path d="M9530 4460 c-23 -23 -24 -33 -9 -63 22 -41 64 -50 92 -19 53 58 -28
137 -83 82z"/>
<path d="M2935 4445 c-14 -13 -25 -36 -25 -50 0 -14 11 -37 25 -50 13 -14 36
-25 50 -25 14 0 37 11 50 25 14 13 25 36 25 50 0 14 -11 37 -25 50 -13 14 -36
25 -50 25 -14 0 -37 -11 -50 -25z"/>
<path d="M9170 4450 c-25 -25 -26 -52 -2 -73 45 -41 114 0 93 55 -16 42 -59
50 -91 18z"/>
<path d="M4182 4448 c-7 -7 -12 -21 -12 -33 0 -12 5 -26 12 -33 7 -7 21 -12
33 -12 12 0 26 5 33 12 7 7 12 21 12 33 0 12 -5 26 -12 33 -7 7 -21 12 -33 12
-12 0 -26 -5 -33 -12z"/>
<path d="M10369 4431 c-40 -41 -41 -98 0 -143 75 -84 210 2 167 107 -30 70
-114 88 -167 36z"/>
<path d="M11235 4448 c-30 -17 -44 -40 -45 -71 0 -38 40 -77 80 -77 39 0 80
39 80 75 0 31 -49 85 -77 85 -10 0 -27 -6 -38 -12z"/>
<path d="M9336 4404 c-17 -16 -12 -40 9 -48 19 -7 46 20 39 39 -8 21 -32 26
-48 9z"/>
<path d="M3300 4390 c-63 -63 31 -158 101 -102 28 23 30 73 4 102 -24 26 -79
26 -105 0z"/>
<path d="M3530 4357 c-33 -17 -70 -74 -70 -109 0 -69 58 -128 125 -128 91 0
155 86 124 166 -27 70 -113 104 -179 71z"/>
<path d="M10610 4355 c-20 -24 0 -50 36 -50 26 0 29 4 29 30 0 25 -4 31 -26
33 -15 2 -31 -4 -39 -13z"/>
<path d="M4106 4334 c-36 -35 -7 -104 42 -104 29 0 62 34 62 63 0 49 -70 76
-104 41z"/>
<path d="M2174 4296 c-26 -26 -34 -42 -34 -70 0 -49 23 -92 60 -111 37 -19 64
-19 104 0 59 28 81 96 51 155 -21 42 -53 60 -103 60 -37 0 -50 -6 -78 -34z"/>
<path d="M3812 4288 c-21 -21 -15 -68 11 -77 44 -17 86 39 57 75 -15 17 -52
18 -68 2z"/>
<path d="M9057 4272 c-23 -25 -21 -75 3 -97 61 -56 151 34 95 95 -23 25 -76
26 -98 2z"/>
<path d="M4318 4269 c-35 -20 -19 -79 21 -79 49 0 68 42 33 73 -21 19 -30 20
-54 6z"/>
<path d="M10204 4270 c-57 -23 -73 -109 -28 -154 46 -45 119 -33 150 25 20 40
11 82 -28 114 -30 26 -57 30 -94 15z"/>
<path d="M1568 4254 c-96 -51 -56 -194 54 -194 102 0 137 141 48 193 -34 21
-66 21 -102 1z"/>
<path d="M9534 4256 c-9 -23 -1 -48 19 -60 25 -16 52 4 52 40 0 25 -4 29 -33
32 -22 2 -34 -2 -38 -12z"/>
<path d="M9934 4235 c-38 -38 -16 -95 37 -95 56 0 82 73 37 104 -31 22 -45 20
-74 -9z"/>
<path d="M10981 4214 c-51 -21 -59 -92 -15 -131 34 -31 70 -29 105 6 34 34 37
68 9 103 -24 31 -59 39 -99 22z"/>
<path d="M4094 4206 c-20 -15 -14 -43 12 -53 20 -8 47 19 39 39 -9 23 -30 29
-51 14z"/>
<path d="M8930 4200 c-38 -38 -15 -90 40 -90 39 0 65 37 51 72 -16 42 -59 50
-91 18z"/>
<path d="M9270 4205 c-26 -32 13 -81 48 -59 34 22 22 74 -18 74 -10 0 -23 -7
-30 -15z"/>
<path d="M4207 4192 c-30 -33 -15 -72 28 -72 44 0 63 60 26 80 -27 14 -35 13
-54 -8z"/>
<path d="M2881 4186 c-22 -26 -9 -70 23 -81 24 -8 31 -6 47 14 23 28 24 45 3
65 -19 20 -58 21 -73 2z"/>
<path d="M3924 4190 c-50 -20 -71 -101 -39 -146 38 -55 130 -51 160 6 45 87
-32 176 -121 140z"/>
<path d="M4365 4178 c-27 -15 -35 -28 -35 -59 0 -55 83 -82 114 -37 22 32 20
55 -9 83 -27 28 -40 30 -70 13z"/>
<path d="M3322 4154 c-47 -33 -9 -107 46 -88 33 11 43 62 17 88 -20 20 -35 20
-63 0z"/>
<path d="M9710 4132 c-50 -50 -38 -121 25 -148 62 -26 125 20 125 90 0 37 -39
76 -82 83 -32 5 -41 1 -68 -25z"/>
<path d="M1910 4128 c-54 -29 -64 -95 -21 -139 39 -38 88 -40 125 -3 69 70
-17 187 -104 142z"/>
<path d="M3008 4098 c-9 -7 -19 -22 -22 -34 -8 -28 28 -74 59 -74 31 0 67 46
59 74 -8 27 -32 46 -59 46 -12 0 -28 -6 -37 -12z"/>
<path d="M8922 4078 c-28 -28 -3 -88 37 -88 10 0 26 9 36 20 27 30 10 74 -30
78 -17 2 -36 -3 -43 -10z"/>
<path d="M9100 4052 c-26 -21 -30 -67 -9 -87 26 -25 55 -26 82 -4 32 25 35 61
7 89 -25 25 -51 25 -80 2z"/>
<path d="M2455 4035 c-14 -13 -25 -35 -25 -48 0 -31 39 -67 73 -67 63 0 90 80
41 119 -35 27 -59 26 -89 -4z"/>
<path d="M4162 4024 c-32 -22 -30 -69 4 -91 24 -15 29 -15 53 -2 36 20 41 71
9 93 -28 20 -38 20 -66 0z"/>
<path d="M4530 4020 c-26 -26 -26 -72 0 -95 29 -26 79 -24 102 4 23 30 23 52
-3 85 -25 32 -70 35 -99 6z"/>
<path d="M9934 4030 c-11 -4 -33 -23 -48 -41 -24 -29 -28 -39 -24 -81 11 -110
136 -156 209 -77 91 97 -14 249 -137 199z"/>
<path d="M3657 4012 c-22 -25 -21 -45 3 -67 46 -41 108 26 65 69 -22 21 -48
20 -68 -2z"/>
<path d="M4360 4010 c-11 -11 -20 -31 -20 -45 0 -14 9 -34 20 -45 11 -11 31
-20 45 -20 14 0 34 9 45 20 11 11 20 31 20 45 0 14 -9 34 -20 45 -11 11 -31
20 -45 20 -14 0 -34 -9 -45 -20z"/>
<path d="M8781 3993 c-46 -58 24 -128 82 -82 32 25 35 61 7 89 -28 28 -64 25
-89 -7z"/>
<path d="M10242 3998 c-7 -7 -12 -24 -12 -38 0 -33 17 -50 50 -50 33 0 50 17
50 50 0 33 -17 50 -50 50 -14 0 -31 -5 -38 -12z"/>
<path d="M10460 3999 c-36 -14 -60 -49 -60 -89 0 -44 20 -73 59 -90 112 -46
185 123 76 175 -38 17 -41 17 -75 4z"/>
<path d="M4046 3984 c-24 -24 -20 -61 9 -80 23 -15 27 -15 50 0 42 28 24 96
-25 96 -10 0 -26 -7 -34 -16z"/>
<path d="M3872 3974 c-30 -21 -30 -69 2 -89 59 -39 122 49 64 89 -12 9 -27 16
-33 16 -6 0 -21 -7 -33 -16z"/>
<path d="M9330 3983 c-75 -28 -76 -142 -1 -173 36 -15 74 -7 101 20 70 70 -6
187 -100 153z"/>
<path d="M9497 3983 c-15 -14 -6 -53 14 -64 18 -9 25 -7 41 9 16 16 18 23 9
41 -11 20 -50 29 -64 14z"/>
<path d="M10733 3925 c-31 -13 -63 -59 -63 -90 0 -26 29 -74 51 -86 66 -35
149 11 149 83 0 49 -22 83 -62 97 -38 13 -36 13 -75 -4z"/>
<path d="M11262 3917 c-49 -27 -70 -89 -48 -141 19 -45 52 -66 104 -66 37 0
50 6 79 35 33 33 35 39 30 82 -9 84 -93 129 -165 90z"/>
<path d="M4692 3898 c-37 -18 -45 -76 -15 -110 32 -36 105 -15 114 32 6 30
-11 67 -36 78 -30 14 -33 14 -63 0z"/>
<path d="M8997 3862 c-22 -25 -21 -75 1 -95 25 -22 75 -21 95 1 22 25 21 75
-1 95 -25 22 -75 21 -95 -1z"/>
<path d="M4019 3831 c-52 -53 -39 -135 28 -166 44 -21 85 -12 118 27 58 68 13
168 -75 168 -33 0 -48 -6 -71 -29z"/>
<path d="M4352 3848 c-28 -28 -1 -75 37 -63 11 3 23 15 26 26 12 38 -35 65
-63 37z"/>
<path d="M2927 3839 c-9 -5 -24 -24 -33 -40 -40 -78 47 -165 125 -125 37 20
51 44 51 89 0 67 -83 111 -143 76z"/>
<path d="M3265 3825 c-57 -56 0 -149 79 -129 85 21 65 154 -24 154 -19 0 -40
-9 -55 -25z"/>
<path d="M8638 3825 c-109 -61 -47 -234 75 -211 88 16 123 125 61 187 -37 37
-95 47 -136 24z"/>
<path d="M9610 3833 c-51 -19 -68 -85 -30 -123 45 -45 120 -11 120 53 0 47
-49 85 -90 70z"/>
<path d="M4557 3793 c-4 -3 -7 -17 -7 -29 0 -29 36 -42 57 -21 21 21 8 57 -21
57 -12 0 -26 -3 -29 -7z"/>
<path d="M3621 3776 c-21 -26 -9 -51 24 -51 27 0 30 3 30 30 0 23 -5 31 -21
33 -11 2 -26 -4 -33 -12z"/>
<path d="M8463 3778 c-19 -25 -21 -46 -7 -67 21 -29 60 -27 80 4 15 23 15 27
0 50 -18 27 -57 34 -73 13z"/>
<path d="M3831 3761 c-13 -24 8 -55 34 -50 23 5 40 32 32 53 -9 22 -54 20 -66
-3z"/>
<path d="M9150 3750 c-11 -11 -20 -29 -20 -40 0 -26 34 -60 60 -60 26 0 60 34
60 60 0 26 -34 60 -60 60 -11 0 -29 -9 -40 -20z"/>
<path d="M4800 3753 c-49 -18 -64 -68 -34 -111 32 -47 124 -16 124 42 0 43
-51 83 -90 69z"/>
<path d="M3526 3697 c-21 -15 -25 -60 -6 -82 20 -25 67 -19 87 11 15 24 15 29
2 53 -17 30 -55 38 -83 18z"/>
<path d="M8842 3688 c-20 -20 -14 -56 13 -74 23 -15 27 -15 50 0 44 29 28 86
-25 86 -14 0 -31 -5 -38 -12z"/>
<path d="M9352 3688 c-17 -17 -15 -36 7 -47 25 -14 50 13 35 37 -14 21 -27 25
-42 10z"/>
<path d="M10195 3680 c-40 -45 20 -105 65 -65 25 23 25 47 2 68 -24 22 -45 21
-67 -3z"/>
<path d="M2369 3661 c-22 -23 -29 -39 -29 -70 0 -94 105 -138 171 -72 64 65
20 171 -71 171 -33 0 -48 -6 -71 -29z"/>
<path d="M4932 3668 c-7 -7 -12 -21 -12 -33 0 -12 5 -26 12 -33 7 -7 21 -12
33 -12 12 0 26 5 33 12 7 7 12 21 12 33 0 12 -5 26 -12 33 -7 7 -21 12 -33 12
-12 0 -26 -5 -33 -12z"/>
<path d="M8475 3668 c-28 -16 -35 -28 -35 -65 0 -22 7 -37 22 -47 76 -54 157
47 86 107 -23 20 -45 21 -73 5z"/>
<path d="M9812 3668 c-28 -28 2 -67 34 -43 15 11 17 18 8 31 -14 23 -27 27
-42 12z"/>
<path d="M3682 3654 c-43 -30 -16 -104 39 -104 23 0 49 33 49 63 0 25 -31 57
-55 57 -6 0 -21 -7 -33 -16z"/>
<path d="M4670 3645 c-26 -32 13 -81 48 -59 34 22 22 74 -18 74 -10 0 -23 -7
-30 -15z"/>
<path d="M8280 3640 c-24 -24 -25 -43 -4 -64 18 -19 55 -21 72 -4 17 17 15 54
-4 72 -21 21 -40 20 -64 -4z"/>
<path d="M5062 3628 c-31 -31 10 -75 43 -48 19 16 19 25 -1 44 -19 19 -26 20
-42 4z"/>
<path d="M2794 3620 c-28 -11 -54 -48 -54 -76 0 -12 9 -33 21 -48 43 -55 139
-21 139 50 0 50 -61 92 -106 74z"/>
<path d="M4120 3615 c-18 -22 -1 -50 31 -50 20 0 24 5 24 30 0 23 -5 31 -21
33 -11 2 -27 -4 -34 -13z"/>
<path d="M9882 3606 c-35 -19 -62 -66 -62 -109 0 -135 161 -182 237 -68 38 57
25 125 -33 170 -31 24 -105 28 -142 7z"/>
<path d="M3361 3596 c-20 -24 -5 -65 26 -72 35 -9 66 26 54 59 -10 27 -62 35
-80 13z"/>
<path d="M3065 3586 c-20 -14 -17 -44 6 -59 24 -15 49 -1 49 27 0 32 -30 50
-55 32z"/>
<path d="M4398 3589 c-21 -12 -24 -59 -6 -77 7 -7 21 -12 33 -12 46 0 62 57
23 84 -26 19 -27 19 -50 5z"/>
<path d="M5184 3582 c-30 -24 -44 -55 -44 -97 0 -55 53 -105 110 -105 34 0 48
6 76 34 29 29 34 41 34 79 0 37 -5 51 -31 76 -25 26 -38 31 -77 31 -29 0 -55
-7 -68 -18z"/>
<path d="M9470 3570 c-11 -11 -20 -27 -20 -35 0 -20 45 -65 65 -65 23 0 55 37
55 63 0 51 -63 74 -100 37z"/>
<path d="M3905 3545 c-30 -29 -32 -68 -5 -95 29 -29 74 -26 99 6 27 35 26 59
-4 89 -31 32 -59 32 -90 0z"/>
<path d="M4510 3550 c-11 -11 -20 -31 -20 -45 0 -31 41 -75 70 -75 29 0 70 44
70 75 0 34 -33 65 -70 65 -17 0 -39 -9 -50 -20z"/>
<path d="M8137 3549 c-48 -28 -40 -107 14 -129 60 -25 122 34 99 95 -16 41
-72 58 -113 34z"/>
<path d="M9107 3539 c-31 -23 -34 -45 -11 -77 19 -27 64 -29 87 -4 49 54 -19
127 -76 81z"/>
<path d="M3562 3528 c-20 -20 -15 -66 9 -78 47 -26 100 25 72 69 -13 20 -64
26 -81 9z"/>
<path d="M10159 3511 c-23 -23 -29 -38 -29 -71 0 -52 13 -76 50 -95 45 -23 85
-19 122 14 28 25 33 36 33 76 0 40 -5 51 -33 76 -45 41 -102 41 -143 0z"/>
<path d="M4962 3518 c-7 -7 -12 -22 -12 -35 0 -27 42 -42 65 -23 28 23 11 70
-25 70 -9 0 -21 -5 -28 -12z"/>
<path d="M8809 3515 c-61 -33 -83 -127 -43 -182 51 -71 140 -79 201 -18 28 28
33 40 33 79 0 58 -21 101 -60 121 -36 19 -97 19 -131 0z"/>
<path d="M11513 3505 c-85 -36 -98 -163 -23 -222 27 -22 78 -32 113 -22 115
31 130 200 22 245 -43 17 -71 17 -112 -1z"/>
<path d="M3297 3503 c-12 -12 -7 -50 8 -63 8 -6 23 -9 34 -5 25 8 36 41 21 60
-13 15 -51 20 -63 8z"/>
<path d="M4768 3474 c-63 -34 -77 -122 -27 -178 56 -64 145 -56 189 16 24 40
25 69 4 114 -28 59 -105 81 -166 48z"/>
<path d="M9340 3475 c-10 -12 -10 -18 0 -30 7 -8 18 -15 25 -15 7 0 18 7 25
15 10 12 10 18 0 30 -7 8 -18 15 -25 15 -7 0 -18 -7 -25 -15z"/>
<path d="M10952 3478 c-30 -30 11 -85 44 -57 25 21 11 69 -21 69 -6 0 -16 -5
-23 -12z"/>
<path d="M8527 3452 c-25 -28 -21 -67 9 -91 15 -12 33 -21 41 -21 21 0 63 46
63 70 0 50 -79 80 -113 42z"/>
<path d="M4197 3435 c-32 -33 -41 -68 -27 -110 35 -107 200 -78 200 35 0 60
-41 100 -103 100 -34 0 -50 -6 -70 -25z"/>
<path d="M7881 3436 c-28 -33 22 -83 55 -55 8 7 14 24 12 38 -2 20 -9 27 -29
29 -14 2 -31 -4 -38 -12z"/>
<path d="M9595 3426 c-31 -46 25 -97 66 -60 24 22 24 46 1 67 -26 24 -49 21
-67 -7z"/>
<path d="M8250 3413 c-19 -10 -45 -34 -58 -53 -20 -29 -23 -44 -20 -94 4 -54
8 -62 46 -97 37 -35 47 -39 94 -39 121 0 193 109 142 216 -34 72 -132 104
-204 67z"/>
<path d="M9430 3410 c-11 -11 -20 -29 -20 -40 0 -22 33 -60 53 -60 27 0 57 31
57 60 0 18 -8 34 -22 44 -30 21 -44 20 -68 -4z"/>
<path d="M5546 3404 c-24 -24 -20 -61 9 -80 23 -15 27 -15 50 0 46 30 26 96
-29 96 -8 0 -22 -7 -30 -16z"/>
<path d="M2220 3395 c-6 -8 -10 -22 -8 -32 4 -25 48 -30 65 -8 26 37 -27 76
-57 40z"/>
<path d="M2946 3399 c-91 -26 -110 -140 -35 -204 55 -46 142 -25 174 41 20 43
19 72 -5 111 -29 48 -80 68 -134 52z"/>
<path d="M7715 3375 c-14 -13 -25 -36 -25 -50 0 -35 42 -75 78 -75 65 0 97 83
49 128 -31 29 -72 28 -102 -3z"/>
<path d="M8034 3392 c-6 -4 -17 -18 -23 -30 -25 -48 23 -104 79 -93 48 9 68
82 32 114 -19 17 -68 22 -88 9z"/>
<path d="M9781 3373 c-45 -37 -18 -113 39 -113 33 0 60 28 60 61 0 55 -58 85
-99 52z"/>
<path d="M4524 3346 c-73 -73 -27 -186 76 -186 69 0 110 43 110 115 0 55 -53
105 -110 105 -34 0 -48 -6 -76 -34z"/>
<path d="M5375 3369 c-67 -20 -89 -112 -39 -163 31 -30 95 -36 131 -11 59 41
46 142 -21 170 -20 8 -37 15 -38 14 -2 0 -16 -5 -33 -10z"/>
<path d="M10418 3354 c-75 -40 -74 -162 1 -207 68 -40 156 -7 181 68 25 75
-35 155 -113 155 -23 -1 -54 -7 -69 -16z"/>
<path d="M3463 3324 c-15 -24 -15 -29 -2 -53 28 -49 109 -32 109 24 0 54 -77
75 -107 29z"/>
<path d="M2401 3313 c-54 -46 -22 -136 49 -136 39 0 80 40 80 79 0 59 -83 95
-129 57z"/>
<path d="M5683 3310 c-33 -20 -63 -66 -63 -96 0 -15 -3 -14 -24 5 -44 42 -104
-4 -71 -55 19 -30 48 -31 75 -2 19 21 20 21 20 2 0 -10 9 -33 20 -51 56 -92
194 -81 246 19 61 117 -88 248 -203 178z"/>
<path d="M3814 3305 c-14 -37 26 -69 53 -42 22 22 8 57 -23 57 -14 0 -27 -7
-30 -15z"/>
<path d="M7533 3300 c-25 -10 -43 -39 -43 -70 0 -29 44 -70 75 -70 33 0 75 41
75 73 0 51 -59 87 -107 67z"/>
<path d="M5082 3268 c-7 -7 -12 -21 -12 -33 0 -12 5 -26 12 -33 28 -28 78 -7
78 33 0 12 -5 26 -12 33 -7 7 -21 12 -33 12 -12 0 -26 -5 -33 -12z"/>
<path d="M8585 3256 c-59 -26 -72 -101 -26 -147 36 -35 86 -39 124 -9 55 43
40 136 -24 159 -39 13 -37 13 -74 -3z"/>
<path d="M7263 3249 c-70 -20 -103 -102 -68 -169 52 -101 215 -62 215 51 0 88
-66 141 -147 118z"/>
<path d="M9528 3249 c-21 -12 -24 -59 -6 -77 28 -28 78 -7 78 33 0 40 -39 63
-72 44z"/>
<path d="M10000 3242 c-30 -24 -21 -69 15 -78 35 -9 53 1 61 32 6 21 2 31 -16
46 -12 10 -26 18 -30 18 -4 0 -18 -8 -30 -18z"/>
<path d="M4024 3216 c-29 -29 -34 -41 -34 -81 0 -40 5 -52 34 -81 29 -29 41
-34 81 -34 40 0 52 5 81 34 29 29 34 41 34 81 0 40 -5 52 -34 81 -29 29 -41
34 -81 34 -40 0 -52 -5 -81 -34z"/>
<path d="M7704 3230 c-11 -4 -33 -22 -47 -40 -21 -25 -27 -42 -27 -78 1 -26 6
-57 14 -70 45 -82 176 -81 226 1 65 106 -49 235 -166 187z"/>
<path d="M6123 3211 c-33 -20 -63 -67 -63 -96 0 -11 -8 -16 -22 -15 -48 4 -66
-1 -92 -26 -38 -39 -36 -95 4 -136 28 -27 36 -30 73 -25 40 5 78 34 89 68 3 9
9 9 27 -1 15 -7 42 -10 70 -7 36 4 52 13 78 41 28 30 33 43 33 86 0 43 -5 56
-33 86 -28 31 -41 37 -83 41 -37 3 -57 -1 -81 -16z"/>
<path d="M8950 3200 c-27 -27 -25 -66 5 -95 30 -30 54 -31 89 -4 32 25 36 77
8 102 -25 23 -78 21 -102 -3z"/>
<path d="M9285 3188 c-39 -34 -44 -86 -11 -125 33 -39 67 -48 110 -28 61 29
74 99 27 146 -37 37 -88 39 -126 7z"/>
<path d="M6415 3188 c-32 -17 -45 -39 -45 -79 0 -71 85 -105 135 -54 41 40 33
105 -16 130 -33 18 -47 18 -74 3z"/>
<path d="M3114 3176 c-95 -42 -100 -177 -8 -221 87 -41 174 12 174 106 0 51
-25 94 -66 114 -39 18 -59 18 -100 1z"/>
<path d="M10937 3179 c-27 -16 -49 -67 -42 -98 8 -39 46 -72 84 -73 89 -3 133
91 72 153 -31 31 -79 38 -114 18z"/>
<path d="M8040 3170 c-43 -10 -99 -70 -102 -107 -4 -80 18 -124 77 -153 50
-24 76 -25 121 -4 73 35 101 114 65 186 -31 64 -91 93 -161 78z"/>
<path d="M9615 3164 c-20 -20 -16 -42 10 -60 18 -12 24 -11 43 2 26 18 28 37
6 58 -20 20 -38 20 -59 0z"/>
<path d="M6722 3154 c-27 -19 -29 -64 -4 -87 26 -24 68 -21 86 5 21 30 20 54
-4 78 -24 24 -48 25 -78 4z"/>
<path d="M7020 3150 c-23 -23 -24 -33 -10 -61 12 -22 59 -26 78 -7 19 19 15
66 -7 78 -28 14 -38 13 -61 -10z"/>
<path d="M4835 3125 c-30 -29 -32 -58 -5 -85 27 -27 75 -26 94 2 23 33 19 64
-10 87 -34 27 -50 26 -79 -4z"/>
<path d="M5270 3130 c-24 -24 -25 -38 -4 -68 18 -27 55 -29 77 -4 23 26 21 58
-5 76 -30 21 -44 20 -68 -4z"/>
<path d="M1642 3120 c-68 -42 -93 -137 -53 -210 20 -38 88 -80 130 -80 15 0
47 10 71 23 88 44 114 156 53 228 -52 61 -137 78 -201 39z"/>
<path d="M3361 3116 c-7 -8 -11 -27 -9 -43 6 -51 88 -41 88 11 0 42 -53 63
-79 32z"/>
<path d="M5122 3073 c-50 -42 -24 -123 39 -123 65 0 93 80 43 119 -33 26 -55
26 -82 4z"/>
<path d="M6545 3016 c-97 -97 34 -239 136 -148 69 62 24 172 -72 172 -29 0
-47 -7 -64 -24z"/>
<path d="M6796 3019 c-20 -16 -26 -29 -26 -59 0 -30 6 -43 26 -59 15 -12 37
-21 49 -21 12 0 34 9 49 21 20 16 26 29 26 59 0 30 -6 43 -26 59 -15 12 -37
21 -49 21 -12 0 -34 -9 -49 -21z"/>
<path d="M8624 3015 c-8 -21 2 -45 19 -45 20 0 40 27 33 45 -7 19 -45 20 -52
0z"/>
<path d="M3562 2997 c-72 -40 -75 -141 -7 -195 71 -56 185 2 185 93 0 34 -24
80 -52 99 -27 19 -94 20 -126 3z"/>
<path d="M5739 2995 c-32 -18 -52 -63 -43 -99 8 -35 49 -66 86 -66 40 0 88 48
88 89 0 63 -76 107 -131 76z"/>
<path d="M4317 2959 c-49 -28 -51 -115 -4 -151 54 -42 147 2 147 70 0 47 -43
92 -88 92 -21 0 -45 -5 -55 -11z"/>
<path d="M6312 2953 c-31 -28 -35 -56 -11 -86 38 -49 109 -26 109 36 0 31 -32
67 -59 67 -10 0 -28 -8 -39 -17z"/>
<path d="M7461 2956 c-102 -58 -30 -211 79 -166 34 14 63 69 54 104 -13 55
-86 89 -133 62z"/>
<path d="M10204 2936 c-28 -28 -34 -42 -34 -76 0 -57 50 -110 104 -110 74 0
116 43 116 116 0 54 -53 104 -110 104 -34 0 -48 -6 -76 -34z"/>
<path d="M2984 2916 c-40 -40 -44 -75 -15 -122 48 -79 170 -57 187 33 13 68
-35 123 -107 123 -22 0 -41 -10 -65 -34z"/>
<path d="M8398 2925 c-57 -32 -56 -130 3 -160 43 -23 77 -18 110 14 21 22 29
39 29 66 0 27 -8 44 -29 66 -33 32 -70 37 -113 14z"/>
<path d="M3801 2908 c-17 -45 39 -87 75 -58 17 15 18 52 2 68 -21 21 -68 15
-77 -10z"/>
<path d="M4944 2896 c-38 -38 -43 -70 -19 -116 19 -37 43 -50 92 -50 87 0 127
108 64 171 -42 42 -92 40 -137 -5z"/>
<path d="M9530 2915 c-20 -25 -8 -50 25 -50 21 0 31 5 33 18 4 21 -14 47 -33
47 -7 0 -18 -7 -25 -15z"/>
<path d="M5393 2908 c-29 -14 -56 -72 -47 -101 18 -59 81 -90 132 -63 62 32
67 121 9 157 -35 21 -61 23 -94 7z"/>
<path d="M9017 2892 c-35 -39 -9 -102 42 -102 55 0 86 51 56 96 -19 30 -74 33
-98 6z"/>
<path d="M9742 2882 c-39 -37 -51 -92 -28 -138 19 -41 69 -74 112 -74 75 0
137 85 114 156 -28 83 -136 114 -198 56z"/>
<path d="M4081 2874 c-12 -15 -21 -32 -21 -39 0 -27 41 -65 70 -65 36 0 73 43
64 74 -18 60 -77 75 -113 30z"/>
<path d="M8682 2853 c-52 -44 -24 -123 43 -123 43 0 79 41 70 80 -7 32 -40 60
-70 60 -13 0 -32 -8 -43 -17z"/>
<path d="M9293 2836 c-22 -19 -28 -32 -28 -64 0 -57 34 -92 89 -92 86 1 125
84 70 149 -33 40 -89 43 -131 7z"/>
<path d="M7098 2821 c-30 -27 -33 -35 -33 -86 0 -51 3 -59 33 -86 37 -33 94
-39 141 -14 28 14 61 68 61 100 0 32 -33 86 -61 100 -47 25 -104 19 -141 -14z"/>
<path d="M7870 2832 c-43 -21 -80 -75 -80 -117 0 -72 86 -144 155 -131 133 25
148 207 22 255 -39 15 -56 14 -97 -7z"/>
<path d="M6149 2825 c-72 -40 -55 -151 26 -171 60 -15 124 50 109 110 -14 56
-86 89 -135 61z"/>
<path d="M6615 2821 c-38 -17 -67 -58 -72 -104 -5 -40 -2 -48 28 -81 63 -68
160 -53 195 30 29 70 -18 149 -96 159 -19 3 -44 1 -55 -4z"/>
<path d="M10870 2793 c-48 -19 -70 -74 -50 -124 13 -30 55 -59 85 -59 30 0 72
29 85 59 14 35 6 83 -19 105 -20 18 -77 29 -101 19z"/>
<path d="M4515 2780 c-11 -4 -31 -20 -45 -35 -33 -35 -35 -111 -5 -145 78 -88
205 -40 205 77 0 80 -81 134 -155 103z"/>
<path d="M8181 2764 c-25 -32 -26 -46 -6 -83 23 -46 66 -54 109 -20 33 26 36
79 6 109 -30 30 -83 27 -109 -6z"/>
<path d="M8924 2745 c-15 -23 -15 -27 0 -50 11 -17 26 -25 44 -25 35 0 52 16
52 50 0 34 -17 50 -52 50 -18 0 -33 -8 -44 -25z"/>
<path d="M6913 2745 c-62 -27 -74 -106 -22 -149 41 -35 83 -34 120 3 49 50 37
121 -26 147 -40 16 -32 17 -72 -1z"/>
<path d="M3413 2735 c-65 -28 -84 -122 -35 -175 69 -77 185 -43 199 58 7 50
-18 95 -63 117 -39 18 -59 18 -101 0z"/>
<path d="M5581 2713 c-67 -62 -29 -163 61 -163 31 0 46 7 70 30 27 28 30 36
25 73 -11 83 -96 115 -156 60z"/>
<path d="M4051 2716 c-69 -38 -67 -162 4 -194 14 -7 43 -12 65 -12 65 0 116
66 102 135 -2 15 -18 39 -34 55 -23 24 -38 30 -71 30 -23 -1 -53 -7 -66 -14z"/>
<path d="M6337 2709 c-22 -13 -47 -61 -47 -93 0 -14 13 -40 29 -58 24 -27 36
-33 71 -33 35 0 47 6 71 33 40 44 40 93 0 133 -23 22 -39 29 -68 29 -21 0 -46
-5 -56 -11z"/>
<path d="M7458 2694 c-56 -30 -78 -122 -43 -181 23 -40 64 -63 112 -63 50 0
82 18 111 60 19 29 23 44 19 84 -4 41 -11 55 -41 83 -30 28 -43 33 -83 33 -27
-1 -60 -7 -75 -16z"/>
<path d="M8075 2586 c-52 -23 -85 -71 -85 -122 0 -87 55 -144 139 -144 176 0
189 257 14 276 -21 2 -52 -2 -68 -10z"/>
<path d="M5089 2562 c-26 -24 -32 -36 -32 -72 0 -37 5 -48 33 -73 95 -85 221
54 131 144 -40 39 -89 40 -132 1z"/>
<path d="M10913 2521 c-40 -25 -53 -49 -53 -100 0 -58 40 -101 101 -108 41 -5
50 -2 81 26 42 36 53 79 34 124 -29 69 -103 96 -163 58z"/>
<path d="M7038 2505 c-54 -30 -57 -113 -6 -149 91 -64 193 66 107 138 -34 29
-61 32 -101 11z"/>
<path d="M4500 2490 c-15 -28 4 -60 35 -60 31 0 50 32 35 60 -6 12 -21 20 -35
20 -14 0 -29 -8 -35 -20z"/>
<path d="M5924 2456 c-66 -66 -24 -165 69 -166 100 0 134 140 46 186 -45 23
-78 17 -115 -20z"/>
<path d="M5484 2441 c-26 -11 -62 -56 -70 -87 -6 -22 -7 -22 -30 -7 -22 14
-26 14 -49 -1 -27 -18 -31 -36 -15 -67 15 -26 66 -26 80 2 11 19 12 19 33 -13
14 -20 38 -38 62 -47 115 -39 203 105 117 191 -31 32 -90 45 -128 29z"/>
<path d="M8728 2433 c-51 -32 -65 -118 -28 -166 64 -82 200 -38 200 64 0 21
-5 49 -11 62 -24 52 -107 73 -161 40z"/>
<path d="M10363 2433 c-37 -7 -81 -56 -89 -98 -9 -51 18 -103 66 -129 98 -52
212 54 163 152 -29 57 -84 87 -140 75z"/>
<path d="M9111 2389 c-55 -22 -68 -83 -26 -124 39 -40 96 -32 120 16 20 38 19
54 -7 83 -28 30 -55 38 -87 25z"/>
<path d="M8461 2354 c-26 -33 -27 -58 -1 -84 43 -43 110 -14 110 48 0 59 -72
83 -109 36z"/>
<path d="M6805 2345 c-36 -35 -35 -96 1 -124 40 -32 87 -28 119 11 21 25 25
38 21 62 -13 69 -94 99 -141 51z"/>
<path d="M9834 2340 c-32 -13 -54 -50 -54 -91 0 -46 45 -89 92 -89 43 0 88 48
88 94 0 64 -69 111 -126 86z"/>
<path d="M11605 2325 c-53 -53 -15 -149 58 -149 52 0 87 35 87 86 0 52 -35 88
-85 88 -25 0 -44 -8 -60 -25z"/>
<path d="M9458 2311 c-27 -24 -33 -36 -33 -71 0 -35 6 -47 33 -71 44 -40 93
-40 133 0 48 49 38 125 -21 156 -43 22 -76 18 -112 -14z"/>
<path d="M7853 2310 c-69 -42 -84 -135 -32 -195 44 -50 96 -62 153 -36 53 23
76 61 76 124 0 99 -111 160 -197 107z"/>
<path d="M2804 2276 c-27 -27 -34 -42 -34 -74 0 -76 74 -127 143 -99 45 19 67
52 67 102 -1 97 -107 140 -176 71z"/>
<path d="M6108 2284 c-60 -32 -76 -121 -33 -173 53 -62 142 -62 186 1 24 33
29 91 10 127 -29 53 -108 75 -163 45z"/>
<path d="M6445 2226 c-32 -32 -40 -69 -25 -107 14 -32 55 -59 90 -59 91 0 131
123 56 175 -33 24 -93 19 -121 -9z"/>
<path d="M2573 2226 c-29 -13 -63 -59 -63 -86 0 -27 33 -78 56 -89 67 -30 131
4 141 75 4 35 1 45 -23 72 -35 38 -69 46 -111 28z"/>
<path d="M3254 2210 c-48 -19 -67 -81 -43 -134 11 -23 62 -56 89 -56 27 0 73
34 85 63 35 84 -46 162 -131 127z"/>
<path d="M4284 2200 c-54 -21 -72 -105 -34 -153 27 -34 78 -44 118 -23 37 19
52 44 52 86 0 42 -15 67 -50 85 -32 17 -54 18 -86 5z"/>
<path d="M4855 2188 c-49 -26 -58 -69 -24 -112 15 -19 30 -26 54 -26 24 0 39
7 54 26 34 43 24 86 -26 112 -26 14 -32 14 -58 0z"/>
<path d="M7349 2161 c-49 -50 -37 -121 27 -147 29 -12 39 -12 68 0 40 17 56
42 56 86 0 43 -47 90 -90 90 -22 0 -41 -9 -61 -29z"/>
<path d="M3616 2167 c-22 -16 -18 -55 7 -71 39 -24 79 44 41 71 -10 7 -21 13
-24 13 -3 0 -14 -6 -24 -13z"/>
<path d="M5622 2127 c-46 -48 -17 -117 48 -117 29 0 43 6 54 22 52 74 -41 160
-102 95z"/>
<path d="M6945 2115 c-14 -13 -25 -36 -25 -50 0 -32 50 -85 80 -85 30 0 80 53
80 85 0 36 -41 75 -80 75 -19 0 -40 -9 -55 -25z"/>
<path d="M8560 2120 c-34 -34 -17 -80 30 -80 26 0 60 29 60 52 0 14 -39 48
-55 48 -8 0 -24 -9 -35 -20z"/>
<path d="M9706 2081 c-23 -25 -13 -59 20 -67 14 -4 31 -1 39 6 21 18 19 57 -4
70 -27 14 -35 13 -55 -9z"/>
<path d="M5381 2064 c-61 -56 -44 -148 32 -173 78 -26 152 47 127 124 -15 44
-41 66 -88 72 -33 4 -44 1 -71 -23z"/>
<path d="M6545 2026 c-17 -7 -44 -28 -59 -47 -25 -30 -28 -39 -24 -91 3 -47
10 -64 33 -88 92 -96 245 -32 245 102 0 39 -29 90 -64 113 -35 23 -95 28 -131
11z"/>
<path d="M8358 2029 c-35 -20 -19 -79 21 -79 51 0 69 46 29 74 -26 19 -27 19
-50 5z"/>
<path d="M5027 1999 c-28 -16 -40 -58 -27 -90 25 -58 106 -58 130 0 26 65 -43
125 -103 90z"/>
<path d="M9429 1921 c-33 -32 -39 -45 -39 -80 0 -80 50 -134 125 -134 51 0 81
16 105 56 55 90 -5 197 -110 197 -36 0 -48 -6 -81 -39z"/>
<path d="M3970 1917 c-81 -28 -103 -129 -41 -191 27 -26 39 -31 80 -31 38 0
55 5 75 24 95 89 9 239 -114 198z"/>
<path d="M6045 1905 c-48 -47 -25 -135 40 -151 60 -15 124 50 109 111 -16 62
-104 86 -149 40z"/>
<path d="M7701 1869 c-41 -38 -46 -70 -19 -125 20 -42 94 -58 134 -29 28 19
48 69 40 101 -17 68 -106 99 -155 53z"/>
<path d="M8175 1849 c-80 -24 -120 -115 -82 -189 33 -65 126 -89 188 -47 41
28 59 60 59 110 0 87 -83 150 -165 126z"/>
<path d="M9028 1845 c-36 -20 -54 -76 -38 -116 17 -39 46 -59 88 -59 47 0 71
16 88 57 37 88 -52 164 -138 118z"/>
<path d="M3343 1810 c-109 -66 -65 -230 62 -230 99 0 157 103 105 187 -37 61
-108 79 -167 43z"/>
<path d="M4367 1740 c-85 -67 -37 -200 73 -200 34 0 48 6 76 34 28 28 34 42
34 76 0 34 -6 48 -34 76 -29 29 -41 34 -79 34 -29 0 -53 -7 -70 -20z"/>
<path d="M6451 1567 c-48 -17 -76 -58 -76 -114 0 -39 5 -49 37 -79 51 -46 102
-47 152 -3 99 87 11 238 -113 196z"/>
<path d="M6978 1541 c-28 -25 -33 -36 -33 -76 0 -40 5 -51 33 -76 47 -43 102
-41 148 5 26 26 34 42 34 71 0 29 -8 45 -34 71 -46 46 -101 48 -148 5z"/>
<path d="M10533 1530 c-116 -71 -59 -260 79 -260 68 0 138 70 138 138 0 111
-123 180 -217 122z"/>
<path d="M5843 1425 c-33 -14 -63 -59 -63 -95 0 -37 30 -81 65 -96 45 -19 90
-8 120 28 71 85 -21 208 -122 163z"/>
<path d="M3138 1374 c-35 -18 -58 -62 -58 -110 0 -28 8 -44 34 -70 29 -29 41
-34 80 -34 61 0 105 37 113 96 13 98 -83 165 -169 118z"/>
<path d="M7425 1351 c-36 -15 -50 -42 -46 -93 3 -55 89 -77 129 -35 57 60 -8
159 -83 128z"/>
<path d="M5073 1330 c-46 -19 -57 -83 -20 -118 30 -28 68 -28 95 1 54 57 -3
145 -75 117z"/>
<path d="M8673 1316 c-65 -29 -90 -109 -51 -166 31 -45 64 -62 112 -56 78 9
126 92 93 162 -29 59 -96 86 -154 60z"/>
<path d="M9433 1292 c-31 -5 -63 -49 -63 -87 0 -73 98 -107 146 -51 55 63 2
152 -83 138z"/>
<path d="M1857 1252 c-34 -37 -11 -92 38 -92 50 0 73 60 37 93 -24 22 -55 21
-75 -1z"/>
<path d="M3781 1224 c-38 -49 -16 -115 43 -130 44 -11 95 30 96 77 1 73 -95
109 -139 53z"/>
<path d="M6284 1140 c-39 -15 -64 -59 -64 -109 0 -53 18 -84 60 -106 84 -43
180 13 180 105 0 88 -91 145 -176 110z"/>
<path d="M4917 949 c-27 -16 -49 -67 -42 -99 4 -16 21 -41 38 -56 75 -63 181
20 142 113 -7 17 -22 36 -33 42 -26 14 -81 14 -105 0z"/>
<path d="M5735 918 c-32 -18 -44 -40 -45 -80 0 -28 7 -42 31 -62 33 -28 59
-32 92 -14 32 17 46 39 47 75 0 45 -9 62 -41 78 -33 18 -57 18 -84 3z"/>
<path d="M7725 895 c-44 -43 -21 -105 39 -105 60 0 88 68 46 110 -27 27 -56
25 -85 -5z"/>
<path d="M4405 755 c-52 -51 -11 -135 66 -135 33 0 69 44 69 84 0 68 -86 101
-135 51z"/>
<path d="M8854 754 c-35 -53 21 -113 80 -86 58 26 36 112 -29 112 -26 0 -39
-6 -51 -26z"/>
<path d="M7058 739 c-33 -12 -61 -69 -52 -104 15 -62 104 -86 149 -40 68 67
-6 178 -97 144z"/>
<path d="M3273 720 c-112 -68 -63 -250 67 -250 79 0 140 59 140 135 0 106
-116 171 -207 115z"/>
<path d="M6107 352 c-36 -39 -13 -94 38 -95 34 0 55 20 55 53 0 52 -60 79 -93
42z"/>
<path d="M3977 312 c-22 -25 -21 -75 1 -95 39 -36 112 -4 112 48 0 53 -78 86
-113 47z"/>
<path d="M8286 259 c-32 -25 -36 -84 -7 -120 27 -33 95 -33 122 0 64 79 -35
183 -115 120z"/>
<path d="M5052 187 c-50 -53 -13 -137 59 -137 47 0 79 34 79 81 0 71 -90 107
-138 56z"/>
<path d="M6764 55 c-9 -36 15 -60 51 -51 22 6 26 11 23 39 -3 28 -7 32 -35 35
-28 3 -33 -1 -39 -23z"/>
</g>
</svg>
