<?xml version="1.0" standalone="no"?>
<!DOCTYPE svg PUBLIC "-//W3C//DTD SVG 20010904//EN"
 "http://www.w3.org/TR/2001/REC-SVG-20010904/DTD/svg10.dtd">
<svg version="1.0" xmlns="http://www.w3.org/2000/svg"
 width="1280.000000pt" height="957.000000pt" viewBox="0 0 1280.000000 957.000000"
 preserveAspectRatio="xMidYMid meet">
<metadata>
Created by potrace 1.15, written by Peter Selinger 2001-2017
</metadata>
<g transform="translate(0.000000,957.000000) scale(0.100000,-0.100000)"
fill="#000000" stroke="none">
<path d="M6356 9379 c-201 -47 -258 -319 -92 -436 147 -104 349 -28 387 146
27 129 -54 257 -183 289 -53 14 -58 14 -112 1z"/>
<path d="M5455 9294 c-87 -32 -145 -122 -145 -226 0 -101 47 -175 142 -224
121 -62 282 6 328 138 11 32 20 73 20 93 0 83 -67 180 -148 216 -52 23 -140
24 -197 3z"/>
<path d="M7149 9287 c-164 -77 -198 -279 -67 -404 68 -65 190 -83 276 -39 91
46 132 117 132 225 -1 174 -185 291 -341 218z"/>
<path d="M4691 9069 c-63 -12 -121 -50 -161 -106 -33 -46 -35 -52 -35 -133 0
-76 3 -90 29 -130 97 -155 311 -157 417 -3 31 45 34 54 34 128 0 73 -3 85 -30
127 -37 57 -98 102 -149 112 -20 4 -43 9 -49 10 -7 2 -32 0 -56 -5z"/>
<path d="M7994 9056 c-55 -18 -105 -57 -140 -109 -24 -37 -28 -52 -28 -122 -1
-75 1 -84 33 -133 98 -153 316 -155 412 -4 33 52 43 105 34 177 -17 137 -177
235 -311 191z"/>
<path d="M6359 8861 c-201 -40 -266 -312 -104 -436 141 -107 345 -36 390 136
35 130 -51 267 -186 298 -49 12 -49 12 -100 2z"/>
<path d="M5545 8781 c-78 -35 -145 -141 -145 -231 0 -85 64 -179 148 -216 95
-42 190 -26 265 45 55 52 76 98 78 172 3 107 -47 189 -140 230 -55 24 -151 24
-206 0z"/>
<path d="M7050 8777 c-88 -44 -139 -125 -140 -224 0 -145 98 -243 245 -243
102 0 193 65 230 164 71 195 -148 394 -335 303z"/>
<path d="M3850 8608 c-94 -40 -150 -124 -150 -224 0 -136 96 -240 230 -250
129 -9 260 113 260 241 0 177 -182 301 -340 233z"/>
<path d="M8757 8601 c-124 -58 -180 -206 -123 -326 113 -240 466 -164 466 100
0 100 -54 184 -145 226 -51 24 -146 24 -198 0z"/>
<path d="M4884 8585 c-172 -39 -249 -218 -159 -372 48 -81 134 -120 240 -108
49 5 71 13 110 43 133 101 135 289 5 392 -54 43 -129 60 -196 45z"/>
<path d="M7809 8580 c-56 -14 -116 -59 -151 -113 -27 -42 -31 -58 -32 -120 -1
-104 45 -182 133 -226 184 -92 392 70 349 273 -27 129 -170 218 -299 186z"/>
<path d="M6395 8345 c-5 -2 -22 -6 -37 -9 -40 -9 -95 -61 -109 -104 -28 -85
-2 -164 70 -213 27 -19 48 -24 97 -24 54 0 67 4 101 31 99 79 98 216 -3 286
-36 25 -96 42 -119 33z"/>
<path d="M5665 8276 c-69 -30 -103 -101 -92 -193 6 -55 31 -90 83 -120 87 -50
201 -14 250 79 29 56 12 154 -36 199 -49 48 -141 63 -205 35z"/>
<path d="M6985 8273 c-71 -37 -105 -90 -105 -163 0 -130 135 -216 250 -159 68
33 100 86 100 165 0 51 -11 76 -49 117 -50 55 -136 72 -196 40z"/>
<path d="M4155 8184 c-61 -21 -109 -67 -139 -129 -33 -71 -34 -133 -2 -200 45
-94 121 -145 219 -145 148 0 247 97 247 241 0 73 -19 122 -68 172 -69 71 -165
94 -257 61z"/>
<path d="M8450 8165 c-86 -44 -130 -119 -130 -223 0 -70 24 -125 76 -173 97
-90 243 -90 338 -1 39 38 76 125 76 181 -1 89 -65 186 -148 222 -61 27 -153
24 -212 -6z"/>
<path d="M5032 8089 c-124 -63 -129 -242 -8 -310 127 -71 280 29 263 172 -15
124 -145 194 -255 138z"/>
<path d="M7638 8098 c-50 -13 -105 -69 -119 -120 -18 -69 -4 -123 46 -173 48
-48 89 -62 157 -51 131 21 188 183 102 286 -46 54 -117 76 -186 58z"/>
<path d="M3228 8066 c-64 -15 -131 -65 -164 -122 -23 -39 -28 -60 -28 -113 -1
-77 18 -121 71 -174 53 -53 98 -72 173 -71 112 0 198 65 237 176 41 121 -53
279 -180 302 -21 4 -44 9 -50 10 -7 2 -33 -2 -59 -8z"/>
<path d="M9451 8054 c-69 -19 -103 -44 -137 -102 -24 -40 -27 -58 -28 -127 0
-98 24 -151 93 -200 120 -87 274 -53 356 79 25 42 29 58 29 120 0 60 -4 79
-27 118 -36 62 -79 94 -152 113 -70 18 -65 18 -134 -1z"/>
<path d="M6342 7939 c-64 -32 -97 -87 -96 -159 1 -36 8 -68 20 -88 66 -112
237 -116 304 -8 94 153 -70 336 -228 255z"/>
<path d="M5760 7903 c-117 -50 -148 -194 -62 -287 85 -90 229 -67 288 46 28
55 14 149 -29 197 -45 48 -139 70 -197 44z"/>
<path d="M6908 7896 c-90 -40 -132 -146 -94 -237 52 -123 226 -138 309 -27 21
28 34 111 23 152 -9 36 -65 96 -103 112 -39 17 -98 17 -135 0z"/>
<path d="M4411 7738 c-56 -38 -75 -71 -78 -141 -3 -51 0 -69 19 -102 58 -99
199 -113 280 -28 53 56 62 130 26 203 -33 64 -66 84 -146 88 -57 3 -72 0 -101
-20z"/>
<path d="M5231 7753 c-85 -17 -148 -107 -138 -196 20 -163 233 -213 324 -75
38 56 37 142 0 191 -47 61 -121 93 -186 80z"/>
<path d="M8228 7746 c-94 -41 -135 -155 -88 -245 63 -125 227 -131 307 -12 27
40 31 126 9 169 -19 36 -65 78 -99 91 -36 14 -95 13 -129 -3z"/>
<path d="M7452 7730 c-102 -53 -129 -182 -56 -270 85 -101 244 -81 296 37 51
115 -20 238 -145 249 -40 4 -61 0 -95 -16z"/>
<path d="M3600 7706 c-176 -44 -253 -249 -143 -383 54 -67 114 -97 192 -97 76
0 127 21 177 71 61 61 69 80 69 168 -1 72 -4 85 -32 130 -36 56 -97 99 -156
109 -21 4 -44 9 -50 10 -7 2 -32 -2 -57 -8z"/>
<path d="M9093 7700 c-57 -12 -113 -51 -154 -108 -32 -44 -34 -52 -34 -127 0
-74 3 -85 32 -130 122 -189 404 -138 451 80 36 170 -119 320 -295 285z"/>
<path d="M6345 7542 c-117 -56 -92 -235 36 -257 83 -14 159 50 159 135 0 104
-100 167 -195 122z"/>
<path d="M5820 7502 c-19 -9 -45 -32 -57 -51 -74 -111 58 -256 177 -194 43 22
80 76 80 117 0 71 -69 146 -134 146 -17 0 -47 -8 -66 -18z"/>
<path d="M6840 7484 c-76 -65 -79 -145 -7 -213 35 -32 109 -40 151 -17 127 70
79 256 -66 256 -36 0 -54 -6 -78 -26z"/>
<path d="M4658 7437 c-60 -27 -107 -99 -108 -165 0 -57 47 -129 103 -159 35
-17 116 -19 148 -3 117 60 142 193 55 288 -43 48 -136 66 -198 39z"/>
<path d="M8014 7437 c-69 -26 -124 -100 -124 -169 0 -37 25 -96 53 -126 65
-69 195 -67 259 5 24 26 48 87 48 121 0 61 -46 130 -109 162 -33 17 -90 20
-127 7z"/>
<path d="M2640 7388 c-64 -29 -107 -74 -130 -135 -26 -71 -25 -127 4 -188 45
-95 123 -146 225 -147 139 -1 241 103 241 246 0 175 -182 295 -340 224z"/>
<path d="M9972 7385 c-95 -41 -152 -126 -152 -227 0 -72 20 -121 68 -172 96
-100 260 -100 354 0 147 158 34 415 -181 414 -31 -1 -71 -7 -89 -15z"/>
<path d="M5360 7374 c-68 -24 -103 -73 -102 -140 0 -52 28 -95 76 -118 45 -21
78 -20 125 4 88 45 94 179 9 234 -26 17 -86 28 -108 20z"/>
<path d="M7341 7352 c-120 -65 -74 -252 63 -254 80 -2 139 57 139 137 0 103
-110 166 -202 117z"/>
<path d="M3902 7319 c-64 -32 -95 -85 -95 -159 0 -48 5 -66 27 -99 59 -85 178
-105 255 -43 171 138 10 398 -187 301z"/>
<path d="M8775 7331 c-47 -12 -84 -40 -111 -87 -48 -82 -28 -170 53 -232 49
-37 142 -39 189 -3 50 37 77 80 82 132 11 117 -101 216 -213 190z"/>
<path d="M6366 7225 c-21 -7 -39 -15 -40 -17 -67 -88 -37 -192 60 -205 107
-14 175 104 107 185 -36 42 -78 54 -127 37z"/>
<path d="M5873 7178 c-64 -46 -70 -130 -13 -180 66 -60 167 -31 188 54 19 75
-24 137 -100 145 -34 3 -50 -1 -75 -19z"/>
<path d="M6805 7178 c-38 -22 -54 -52 -55 -100 0 -63 36 -107 96 -115 115 -15
180 123 94 200 -33 30 -97 37 -135 15z"/>
<path d="M3075 7105 c-62 -28 -97 -65 -124 -128 -68 -159 52 -337 225 -337
142 0 244 102 244 245 0 180 -182 296 -345 220z"/>
<path d="M9520 7103 c-150 -64 -188 -286 -69 -400 98 -93 234 -95 340 -6 41
35 79 121 79 178 0 93 -63 189 -148 226 -53 23 -151 24 -202 2z"/>
<path d="M4865 7091 c-50 -30 -68 -58 -73 -110 -10 -112 93 -183 195 -134 74
35 98 141 47 203 -51 60 -114 75 -169 41z"/>
<path d="M7803 7080 c-72 -44 -85 -153 -25 -213 26 -26 40 -31 90 -35 57 -4
62 -2 97 30 32 29 38 42 42 84 9 89 -47 154 -132 154 -22 0 -54 -9 -72 -20z"/>
<path d="M4190 7061 c-19 -10 -48 -35 -65 -55 -27 -34 -30 -45 -30 -104 0 -74
18 -108 79 -153 47 -35 138 -34 193 3 147 97 79 328 -97 328 -25 0 -61 -8 -80
-19z"/>
<path d="M5473 7069 c-64 -18 -98 -99 -68 -162 33 -70 129 -86 186 -31 87 84
1 226 -118 193z"/>
<path d="M8494 7070 c-117 -26 -176 -148 -124 -256 63 -129 252 -132 311 -5
66 142 -42 293 -187 261z"/>
<path d="M7245 7061 c-46 -19 -78 -82 -68 -132 7 -39 54 -85 91 -91 43 -6 88
9 111 38 76 97 -21 231 -134 185z"/>
<path d="M5043 6820 c-85 -51 -80 -160 9 -206 15 -8 37 -14 50 -14 36 0 87 36
105 75 15 32 16 40 3 78 -17 47 -67 87 -109 87 -14 0 -40 -9 -58 -20z"/>
<path d="M3498 6816 c-66 -29 -108 -91 -108 -160 0 -80 31 -131 102 -167 112
-57 248 32 248 162 0 125 -131 215 -242 165z"/>
<path d="M7625 6797 c-41 -41 -51 -77 -35 -117 38 -93 161 -109 210 -28 51 84
-5 178 -106 178 -28 0 -44 -8 -69 -33z"/>
<path d="M9139 6790 c-115 -76 -102 -240 23 -306 55 -29 147 -13 201 35 42 36
60 135 36 198 -37 98 -168 135 -260 73z"/>
<path d="M4485 6772 c-59 -20 -95 -71 -95 -132 0 -88 86 -153 172 -130 113 32
139 181 43 244 -28 18 -92 28 -120 18z"/>
<path d="M8236 6770 c-64 -20 -105 -93 -92 -162 17 -87 117 -134 197 -93 85
44 93 178 15 237 -29 21 -83 29 -120 18z"/>
<path d="M2263 6631 c-45 -12 -109 -66 -140 -119 -23 -39 -27 -58 -27 -117 0
-59 4 -78 27 -118 115 -197 408 -153 455 68 21 101 -26 210 -114 261 -49 29
-142 40 -201 25z"/>
<path d="M10402 6630 c-18 -4 -50 -19 -71 -33 -155 -103 -151 -321 7 -418 138
-84 319 -8 362 151 47 176 -118 343 -298 300z"/>
<path d="M3828 6616 c-96 -42 -136 -161 -85 -251 57 -100 179 -122 267 -49 43
37 60 75 60 134 0 57 -15 93 -57 132 -50 47 -125 61 -185 34z"/>
<path d="M8825 6606 c-61 -27 -95 -85 -95 -161 0 -99 73 -175 169 -175 159 0
239 182 132 303 -38 44 -144 61 -206 33z"/>
<path d="M4693 6535 c-17 -7 -39 -27 -47 -44 -54 -104 45 -215 148 -166 44 21
69 59 69 105 0 47 -17 76 -56 100 -37 23 -70 25 -114 5z"/>
<path d="M7982 6510 c-17 -16 -33 -43 -37 -60 -15 -68 38 -139 107 -142 68 -2
118 48 118 119 0 38 -5 50 -34 79 -29 29 -41 34 -79 34 -37 0 -51 -6 -75 -30z"/>
<path d="M2754 6446 c-55 -18 -110 -61 -142 -111 -23 -35 -26 -50 -27 -125 0
-77 3 -89 30 -128 103 -155 312 -156 417 -3 30 43 32 52 33 131 0 82 -1 88
-35 135 -66 92 -179 133 -276 101z"/>
<path d="M9899 6441 c-49 -16 -104 -61 -134 -108 -27 -43 -30 -56 -30 -128 0
-73 3 -84 33 -130 18 -28 53 -63 80 -80 42 -27 55 -30 127 -30 72 0 85 3 128
30 153 96 157 307 9 415 -35 25 -54 31 -115 35 -39 2 -84 1 -98 -4z"/>
<path d="M4167 6380 c-117 -22 -146 -188 -44 -250 61 -37 150 -17 187 42 29
46 23 127 -11 164 -20 22 -81 57 -91 53 -2 -1 -20 -5 -41 -9z"/>
<path d="M8543 6365 c-77 -33 -98 -153 -38 -215 59 -62 141 -61 200 0 39 40
46 120 15 168 -35 56 -111 76 -177 47z"/>
<path d="M3193 6229 c-46 -14 -100 -71 -113 -121 -40 -147 109 -274 245 -208
125 60 137 238 21 310 -40 24 -109 33 -153 19z"/>
<path d="M9454 6201 c-61 -44 -79 -76 -78 -146 0 -46 6 -69 25 -97 70 -107
228 -106 299 1 19 28 24 50 25 98 0 53 -4 66 -30 99 -65 79 -168 99 -241 45z"/>
<path d="M4374 6166 c-29 -29 -34 -41 -34 -81 0 -40 5 -52 34 -81 26 -26 42
-34 70 -34 96 0 153 88 111 170 -21 42 -53 60 -103 60 -37 0 -50 -6 -78 -34z"/>
<path d="M8305 6190 c-44 -18 -70 -59 -70 -112 0 -43 4 -53 32 -79 42 -37 75
-45 120 -28 43 17 72 52 77 95 9 87 -80 157 -159 124z"/>
<path d="M3565 6102 c-85 -30 -130 -98 -123 -185 8 -100 76 -161 179 -161 46
-1 62 4 92 26 19 15 45 43 56 62 45 72 18 188 -55 234 -37 24 -114 36 -149 24z"/>
<path d="M9155 6100 c-73 -13 -127 -64 -143 -136 -32 -149 126 -267 259 -192
109 61 122 218 24 292 -38 29 -96 44 -140 36z"/>
<path d="M3890 5912 c-19 -9 -45 -32 -57 -51 -73 -109 52 -252 171 -196 107
51 108 199 2 249 -44 21 -72 20 -116 -2z"/>
<path d="M8825 5920 c-67 -15 -108 -66 -108 -135 0 -79 55 -135 133 -135 104
0 169 102 124 195 -26 55 -91 88 -149 75z"/>
<path d="M2007 5781 c-93 -44 -155 -150 -142 -245 22 -172 193 -271 347 -202
65 28 89 54 123 128 21 46 25 66 20 107 -17 144 -113 232 -253 230 -32 0 -74
-8 -95 -18z"/>
<path d="M4161 5774 c-86 -72 -38 -206 74 -206 43 0 72 17 95 55 68 111 -70
234 -169 151z"/>
<path d="M8525 5786 c-43 -19 -66 -49 -72 -94 -13 -97 90 -164 174 -112 38 23
55 51 56 96 2 83 -84 143 -158 110z"/>
<path d="M10600 5779 c-98 -44 -152 -124 -151 -224 1 -146 98 -245 241 -245
112 0 204 67 234 171 20 66 19 103 -2 155 -54 131 -203 197 -322 143z"/>
<path d="M2530 5699 c-203 -92 -200 -369 5 -455 45 -18 136 -18 183 1 50 21
109 81 133 134 38 87 13 207 -57 273 -70 65 -181 85 -264 47z"/>
<path d="M10080 5693 c-82 -35 -150 -135 -150 -222 0 -57 30 -133 68 -175 39
-41 118 -76 174 -76 57 0 132 31 177 73 120 115 82 330 -70 399 -50 22 -149
23 -199 1z"/>
<path d="M3001 5574 c-58 -26 -111 -104 -111 -165 0 -91 91 -179 184 -179 18
0 52 10 76 23 132 66 131 249 0 314 -52 25 -101 28 -149 7z"/>
<path d="M9660 5569 c-85 -34 -132 -145 -96 -230 28 -66 90 -109 160 -109 80
0 131 31 167 102 58 113 -33 249 -165 247 -22 0 -52 -5 -66 -10z"/>
<path d="M3378 5517 c-64 -29 -98 -85 -98 -163 0 -136 154 -221 267 -147 95
61 111 189 34 276 -37 43 -142 60 -203 34z"/>
<path d="M9278 5516 c-144 -64 -145 -257 -1 -330 76 -38 186 3 229 86 17 32
18 121 3 151 -45 87 -150 129 -231 93z"/>
<path d="M3745 5409 c-69 -41 -92 -114 -58 -186 22 -48 66 -73 127 -73 43 0
53 4 86 38 64 64 64 136 -1 197 -22 22 -40 29 -81 32 -30 2 -62 -2 -73 -8z"/>
<path d="M8930 5402 c-38 -19 -80 -83 -79 -122 0 -39 31 -92 68 -117 115 -77
263 66 191 185 -41 66 -113 88 -180 54z"/>
<path d="M4053 5340 c-29 -12 -63 -67 -63 -102 0 -95 117 -153 188 -93 44 37
58 77 43 126 -20 65 -98 97 -168 69z"/>
<path d="M8630 5328 c-22 -15 -40 -38 -49 -64 -13 -37 -12 -44 5 -80 13 -26
32 -45 58 -58 36 -17 43 -18 80 -5 86 30 111 129 48 191 -41 41 -96 47 -142
16z"/>
<path d="M2496 5019 c-215 -50 -259 -339 -69 -450 186 -109 414 59 362 267
-25 99 -94 166 -191 184 -28 6 -53 10 -57 9 -3 -1 -24 -5 -45 -10z"/>
<path d="M1949 5006 c-85 -30 -142 -97 -159 -187 -19 -100 28 -202 117 -255
42 -25 58 -29 124 -29 67 0 82 4 125 31 140 86 161 268 45 384 -68 68 -162 89
-252 56z"/>
<path d="M10176 5013 c-35 -9 -94 -51 -121 -87 -158 -207 72 -486 304 -368
234 118 144 468 -119 461 -25 -1 -54 -4 -64 -6z"/>
<path d="M10715 5011 c-85 -15 -160 -90 -184 -185 -16 -63 -7 -118 30 -181
109 -189 397 -144 448 71 30 126 -52 260 -181 292 -50 13 -53 13 -113 3z"/>
<path d="M2945 4942 c-98 -32 -150 -159 -102 -249 55 -105 197 -128 281 -47
134 130 -1 353 -179 296z"/>
<path d="M3353 4939 c-43 -9 -76 -31 -110 -76 -24 -31 -28 -45 -27 -100 0 -54
5 -68 30 -99 45 -56 88 -76 156 -72 100 7 162 75 162 179 1 43 -5 64 -24 92
-42 61 -115 91 -187 76z"/>
<path d="M9755 4941 c-41 -10 -76 -34 -105 -73 -35 -46 -36 -148 -2 -195 55
-77 145 -103 225 -64 64 31 100 86 100 154 0 86 -51 154 -131 177 -41 11 -44
11 -87 1z"/>
<path d="M9335 4922 c-22 -10 -53 -36 -69 -57 -25 -32 -30 -48 -30 -99 -1 -72
20 -113 77 -153 48 -33 135 -37 185 -7 111 65 118 224 13 301 -43 32 -125 39
-176 15z"/>
<path d="M3691 4902 c-51 -26 -75 -63 -75 -119 0 -83 54 -137 135 -137 86 0
147 73 134 160 -5 34 -15 51 -47 79 -48 40 -92 46 -147 17z"/>
<path d="M9017 4913 c-38 -6 -95 -65 -103 -108 -9 -49 1 -80 39 -122 65 -71
176 -51 220 40 27 53 16 108 -30 152 -20 19 -44 35 -54 35 -9 0 -23 2 -31 3
-7 2 -26 2 -41 0z"/>
<path d="M3999 4885 c-63 -34 -79 -120 -33 -174 71 -84 204 -36 204 74 0 37
-5 50 -35 80 -28 28 -43 35 -73 35 -20 -1 -49 -7 -63 -15z"/>
<path d="M8715 4892 c-102 -34 -117 -170 -24 -218 102 -52 206 54 157 160 -19
44 -87 73 -133 58z"/>
<path d="M8644 4450 c-59 -23 -89 -100 -64 -164 12 -33 66 -66 105 -66 92 0
150 113 94 184 -37 47 -88 65 -135 46z"/>
<path d="M4051 4437 c-84 -43 -86 -168 -3 -206 33 -16 94 -13 120 5 28 19 52
65 52 99 0 84 -94 141 -169 102z"/>
<path d="M8918 4409 c-71 -37 -92 -139 -42 -199 65 -76 145 -79 213 -6 18 19
26 41 29 79 4 46 1 57 -23 85 -53 63 -111 77 -177 41z"/>
<path d="M3744 4410 c-30 -12 -71 -64 -79 -100 -9 -40 9 -91 45 -125 40 -39
120 -46 168 -15 112 70 59 251 -73 249 -22 0 -49 -4 -61 -9z"/>
<path d="M9270 4384 c-49 -21 -70 -42 -91 -92 -25 -58 -24 -108 4 -157 72
-127 250 -124 314 5 27 56 29 100 4 148 -48 94 -144 134 -231 96z"/>
<path d="M3380 4379 c-86 -34 -133 -146 -96 -232 16 -38 76 -94 112 -103 41
-11 124 2 152 23 86 64 100 196 29 271 -44 47 -135 66 -197 41z"/>
<path d="M10065 4326 c-59 -27 -89 -60 -122 -133 -29 -62 -27 -120 6 -195 68
-155 288 -187 404 -59 176 195 -49 497 -288 387z"/>
<path d="M2520 4323 c-82 -35 -150 -135 -150 -222 0 -58 30 -134 68 -175 38
-39 125 -76 181 -76 56 0 124 30 170 73 120 115 83 331 -68 398 -53 23 -150
24 -201 2z"/>
<path d="M2998 4326 c-66 -29 -108 -91 -108 -160 0 -80 31 -131 102 -167 111
-57 248 32 248 161 0 125 -132 215 -242 166z"/>
<path d="M9645 4326 c-61 -27 -95 -85 -95 -161 0 -107 68 -175 177 -175 51 0
87 16 125 57 107 113 24 294 -134 293 -24 -1 -56 -7 -73 -14z"/>
<path d="M2013 4242 c-160 -65 -204 -271 -85 -401 61 -67 180 -91 268 -55 86
35 154 134 154 223 0 57 -30 133 -68 175 -65 69 -181 94 -269 58z"/>
<path d="M10575 4240 c-147 -66 -182 -284 -64 -397 44 -41 119 -73 174 -73 52
0 141 38 177 76 38 41 68 117 68 174 0 90 -67 189 -152 225 -50 20 -152 18
-203 -5z"/>
<path d="M4193 3998 c-98 -25 -112 -167 -22 -214 48 -25 93 -18 133 20 31 29
36 40 36 79 0 83 -68 136 -147 115z"/>
<path d="M8520 4003 c-8 -3 -25 -15 -37 -26 -77 -69 -28 -200 74 -200 107 0
159 125 83 198 -28 27 -88 41 -120 28z"/>
<path d="M8804 3914 c-57 -19 -94 -67 -94 -122 0 -110 103 -177 197 -128 147
75 53 303 -103 250z"/>
<path d="M3902 3913 c-13 -2 -38 -19 -56 -38 -57 -57 -57 -133 0 -190 82 -82
216 -35 230 81 12 93 -77 168 -174 147z"/>
<path d="M9144 3820 c-114 -25 -175 -149 -124 -254 61 -127 251 -129 316 -3
25 48 23 125 -5 170 -40 65 -118 101 -187 87z"/>
<path d="M3558 3811 c-46 -15 -85 -49 -107 -94 -26 -53 -26 -99 -2 -154 57
-124 240 -133 312 -16 33 53 31 135 -4 188 -15 22 -40 48 -56 58 -35 21 -106
30 -143 18z"/>
<path d="M9505 3690 c-159 -36 -189 -257 -45 -330 117 -60 260 25 260 153 0
111 -109 201 -215 177z"/>
<path d="M3195 3682 c-112 -39 -161 -160 -106 -259 64 -114 225 -119 303 -10
18 25 23 45 23 97 0 72 -19 110 -75 150 -31 22 -111 34 -145 22z"/>
<path d="M2753 3596 c-92 -29 -149 -87 -173 -177 -56 -207 182 -384 363 -269
188 119 146 391 -68 449 -50 14 -69 13 -122 -3z"/>
<path d="M8279 3587 c-38 -25 -64 -84 -55 -121 17 -68 94 -112 155 -86 96 39
106 157 18 210 -42 26 -76 25 -118 -3z"/>
<path d="M9895 3603 c-39 -11 -103 -63 -133 -108 -73 -111 -41 -256 75 -337
45 -31 53 -33 133 -32 79 0 89 3 131 31 200 138 119 438 -120 449 -36 2 -75 0
-86 -3z"/>
<path d="M4382 3581 c-36 -23 -52 -55 -52 -108 0 -27 8 -43 34 -69 29 -29 41
-34 81 -34 40 0 52 5 81 34 29 29 34 41 34 80 0 36 -6 52 -28 77 -37 41 -102
50 -150 20z"/>
<path d="M8551 3456 c-63 -23 -103 -97 -87 -161 11 -43 66 -95 108 -102 49 -7
80 1 117 33 72 60 60 170 -23 219 -47 28 -65 29 -115 11z"/>
<path d="M4122 3440 c-119 -73 -81 -238 61 -256 75 -9 157 83 142 162 -17 93
-124 142 -203 94z"/>
<path d="M10384 3416 c-55 -17 -100 -52 -137 -106 -29 -42 -31 -51 -32 -130 0
-80 2 -88 33 -133 107 -153 319 -150 420 8 23 35 27 51 27 125 0 79 -2 88 -32
131 -37 54 -96 95 -155 109 -55 12 -74 12 -124 -4z"/>
<path d="M2259 3411 c-44 -15 -107 -61 -132 -99 -76 -116 -45 -264 72 -345 43
-30 52 -32 131 -32 82 0 88 1 135 36 28 19 63 57 80 83 26 42 29 58 29 121 0
63 -3 79 -29 121 -17 26 -52 63 -78 82 -41 30 -58 35 -115 38 -37 2 -79 0 -93
-5z"/>
<path d="M3825 3283 c-104 -54 -140 -150 -92 -243 36 -72 113 -111 191 -96
103 19 173 141 134 233 -41 97 -154 148 -233 106z"/>
<path d="M8825 3286 c-64 -29 -105 -94 -105 -167 0 -103 83 -175 192 -167 115
8 177 98 154 223 -18 93 -147 153 -241 111z"/>
<path d="M8014 3255 c-85 -36 -103 -141 -33 -199 78 -66 203 11 183 113 -13
62 -94 110 -150 86z"/>
<path d="M4690 3243 c-71 -36 -89 -132 -34 -186 91 -91 240 7 191 126 -27 64
-97 91 -157 60z"/>
<path d="M3490 3084 c-45 -20 -68 -41 -91 -86 -50 -99 4 -220 111 -249 67 -18
115 -5 166 44 76 73 79 174 6 250 -52 55 -125 70 -192 41z"/>
<path d="M9160 3089 c-36 -15 -79 -59 -96 -98 -29 -70 -10 -146 51 -199 43
-38 70 -46 136 -40 140 14 205 178 113 288 -45 53 -137 75 -204 49z"/>
<path d="M4490 3062 c-57 -9 -110 -76 -110 -137 0 -39 28 -92 62 -116 40 -29
116 -29 156 0 124 88 42 279 -108 253z"/>
<path d="M8188 3040 c-66 -55 -72 -146 -13 -205 56 -56 134 -56 190 0 120 120
-47 312 -177 205z"/>
<path d="M5032 2950 c-84 -52 -71 -173 21 -209 45 -17 78 -9 120 28 28 26 32
36 32 80 0 43 -5 55 -31 82 -41 40 -96 48 -142 19z"/>
<path d="M7614 2936 c-29 -29 -34 -41 -34 -80 0 -36 6 -52 29 -78 27 -30 35
-33 85 -33 74 0 107 30 114 104 4 47 2 53 -31 86 -30 30 -42 35 -82 35 -40 0
-52 -5 -81 -34z"/>
<path d="M9520 2919 c-163 -72 -201 -279 -74 -401 51 -49 100 -68 172 -68 141
0 241 100 242 241 0 177 -181 298 -340 228z"/>
<path d="M3070 2909 c-92 -42 -140 -117 -141 -224 -3 -219 271 -329 418 -168
71 78 90 171 52 260 -56 131 -202 190 -329 132z"/>
<path d="M8483 2853 c-22 -3 -49 -20 -82 -52 -39 -38 -49 -56 -55 -91 -8 -55
5 -101 39 -146 35 -46 79 -67 141 -67 62 0 99 20 138 75 25 35 30 51 30 103 0
52 -5 68 -30 103 -45 62 -99 85 -181 75z"/>
<path d="M4183 2830 c-61 -31 -96 -90 -96 -161 0 -98 61 -166 158 -176 182
-19 268 202 123 320 -49 39 -126 47 -185 17z"/>
<path d="M4852 2720 c-64 -39 -86 -106 -58 -174 49 -117 216 -108 256 15 22
66 -11 138 -77 165 -45 19 -82 17 -121 -6z"/>
<path d="M7247 2725 c-21 -7 -40 -15 -41 -17 -40 -52 -48 -116 -20 -156 19
-28 65 -52 99 -52 91 0 149 114 93 185 -17 22 -75 57 -90 55 -2 -1 -20 -7 -41
-15z"/>
<path d="M7792 2720 c-61 -37 -79 -133 -37 -196 38 -58 150 -70 202 -23 29 27
53 77 53 112 0 31 -48 103 -77 116 -38 17 -105 13 -141 -9z"/>
<path d="M5455 2721 c-46 -19 -78 -83 -68 -135 3 -15 18 -40 34 -55 92 -93
241 12 185 131 -27 56 -93 82 -151 59z"/>
<path d="M2700 2649 c-132 -18 -210 -109 -210 -242 0 -76 23 -129 76 -178 100
-93 232 -91 332 5 82 78 102 171 58 268 -48 107 -145 163 -256 147z"/>
<path d="M9963 2642 c-163 -66 -204 -282 -77 -404 50 -48 100 -68 167 -68 137
0 247 109 247 245 0 171 -179 291 -337 227z"/>
<path d="M5906 2598 c-51 -11 -73 -31 -88 -79 -21 -70 28 -138 105 -146 40 -5
48 -2 81 28 49 45 58 99 24 148 -30 44 -71 61 -122 49z"/>
<path d="M6798 2594 c-35 -18 -58 -62 -58 -110 0 -28 8 -44 34 -70 29 -29 41
-34 81 -34 40 0 52 5 81 34 28 28 34 41 34 78 0 50 -18 82 -60 103 -36 19 -77
19 -112 -1z"/>
<path d="M8771 2593 c-43 -9 -100 -54 -121 -97 -59 -123 25 -258 161 -258 94
0 171 80 171 177 0 110 -106 199 -211 178z"/>
<path d="M3922 2582 c-33 -10 -90 -59 -108 -93 -8 -17 -15 -52 -16 -80 -1
-134 136 -218 260 -158 130 63 129 252 -2 317 -43 22 -89 26 -134 14z"/>
<path d="M6338 2554 c-110 -59 -45 -235 80 -216 41 6 71 33 86 77 36 102 -71
191 -166 139z"/>
<path d="M7363 2469 c-46 -13 -90 -62 -98 -108 -18 -110 103 -199 201 -146 43
23 79 93 71 140 -14 84 -94 136 -174 114z"/>
<path d="M7994 2465 c-109 -48 -143 -186 -67 -275 65 -78 182 -88 257 -22 29
27 56 88 56 130 0 131 -129 218 -246 167z"/>
<path d="M4645 2459 c-63 -37 -95 -93 -95 -166 0 -153 181 -230 294 -125 80
75 72 210 -17 276 -33 24 -149 34 -182 15z"/>
<path d="M5323 2454 c-115 -57 -85 -236 43 -260 44 -8 113 25 138 67 69 117
-59 253 -181 193z"/>
<path d="M3596 2349 c-61 -15 -124 -59 -159 -114 -29 -45 -32 -56 -32 -130 0
-72 3 -85 30 -128 121 -192 404 -140 454 83 20 90 -26 199 -106 252 -30 20
-134 53 -146 47 -1 -1 -20 -5 -41 -10z"/>
<path d="M9090 2348 c-169 -38 -251 -235 -157 -376 105 -156 328 -148 423 14
24 41 28 60 28 119 0 59 -4 78 -27 117 -59 100 -162 149 -267 126z"/>
<path d="M5805 2308 c-48 -28 -65 -58 -65 -118 0 -103 101 -171 188 -126 49
26 75 62 79 113 10 113 -105 187 -202 131z"/>
<path d="M6855 2320 c-44 -18 -69 -58 -73 -119 -4 -56 -2 -61 30 -96 30 -33
41 -39 89 -42 64 -5 94 9 126 56 44 65 21 161 -46 196 -32 16 -93 19 -126 5z"/>
<path d="M6340 2273 c-73 -38 -100 -124 -60 -190 74 -121 254 -75 254 66 0
103 -105 170 -194 124z"/>
<path d="M7483 2171 c-147 -37 -181 -237 -55 -321 50 -33 141 -35 192 -3 82
51 107 170 53 247 -46 66 -118 94 -190 77z"/>
<path d="M5202 2163 c-37 -7 -100 -77 -112 -123 -41 -153 120 -278 258 -200
61 34 87 81 87 155 0 66 -21 106 -75 145 -30 22 -111 33 -158 23z"/>
<path d="M8228 2156 c-65 -29 -118 -105 -118 -170 0 -45 39 -117 79 -143 92
-61 209 -31 259 67 26 52 28 94 7 141 -24 54 -57 87 -104 104 -51 18 -85 18
-123 1z"/>
<path d="M4415 2141 c-89 -55 -120 -153 -76 -239 35 -69 90 -97 176 -90 93 8
146 62 153 156 4 62 -12 109 -50 145 -49 47 -150 61 -203 28z"/>
<path d="M6914 2006 c-102 -37 -150 -141 -110 -237 26 -62 97 -109 163 -109
117 1 203 109 174 218 -26 99 -136 161 -227 128z"/>
<path d="M5748 1996 c-63 -28 -108 -95 -108 -162 0 -160 198 -239 307 -122 51
54 62 141 28 208 -38 73 -149 111 -227 76z"/>
<path d="M3221 1988 c-130 -29 -217 -163 -189 -293 46 -218 332 -267 452 -78
27 43 30 56 31 128 0 72 -3 85 -30 128 -56 90 -164 137 -264 115z"/>
<path d="M9461 1988 c-60 -13 -116 -53 -154 -107 -26 -38 -31 -56 -35 -120 -4
-69 -1 -81 25 -131 34 -64 86 -104 161 -124 100 -25 210 20 267 111 27 43 30
56 30 128 0 74 -3 85 -32 130 -60 93 -160 136 -262 113z"/>
<path d="M6367 1962 c-37 -9 -93 -56 -113 -93 -43 -83 -4 -198 82 -239 150
-73 314 93 235 240 -35 67 -129 109 -204 92z"/>
<path d="M8463 1851 c-89 -35 -153 -131 -153 -227 0 -135 110 -244 246 -244
211 0 322 254 180 409 -68 74 -180 99 -273 62z"/>
<path d="M4130 1843 c-49 -21 -98 -70 -121 -122 -25 -57 -25 -152 0 -206 39
-83 135 -145 226 -145 52 0 140 39 178 78 34 36 67 122 67 175 -1 85 -67 182
-148 218 -53 23 -151 24 -202 2z"/>
<path d="M5047 1806 c-103 -38 -146 -150 -96 -252 28 -60 78 -88 154 -88 45
-1 69 5 95 21 47 29 80 90 82 147 2 120 -124 212 -235 172z"/>
<path d="M7597 1799 c-20 -11 -49 -38 -64 -61 -23 -34 -28 -52 -27 -100 1 -49
5 -64 31 -96 44 -55 87 -76 149 -75 102 3 168 73 169 180 0 53 -4 66 -30 99
-60 73 -150 94 -228 53z"/>
<path d="M6990 1627 c-103 -49 -144 -140 -105 -234 20 -48 41 -71 87 -94 61
-31 148 -19 202 29 26 24 56 91 56 129 0 59 -43 134 -92 159 -40 21 -116 26
-148 11z"/>
<path d="M5655 1611 c-124 -77 -129 -237 -10 -307 39 -23 54 -26 106 -22 95 7
149 59 157 153 7 88 -22 144 -93 176 -52 24 -122 24 -160 0z"/>
<path d="M6351 1573 c-37 -7 -109 -86 -117 -128 -22 -121 56 -218 177 -218 48
0 64 4 94 27 66 50 93 119 74 190 -27 101 -115 150 -228 129z"/>
<path d="M7813 1471 c-86 -14 -173 -99 -192 -189 -44 -211 189 -375 370 -261
183 115 136 400 -72 448 -48 11 -46 11 -106 2z"/>
<path d="M4855 1461 c-50 -13 -108 -58 -140 -108 -27 -43 -30 -56 -30 -128 0
-74 3 -85 32 -130 18 -28 52 -62 75 -77 47 -29 133 -49 164 -37 10 4 29 8 42
8 33 1 103 56 137 109 27 42 30 54 30 128 0 76 -2 84 -34 131 -46 68 -106 103
-185 108 -33 2 -75 1 -91 -4z"/>
<path d="M3845 1418 c-124 -47 -187 -201 -134 -325 26 -62 63 -100 119 -125
169 -75 350 40 350 222 0 174 -171 291 -335 228z"/>
<path d="M8750 1419 c-119 -53 -173 -183 -130 -308 25 -69 60 -107 128 -137
129 -58 270 -5 327 123 29 64 29 121 3 188 -51 131 -198 191 -328 134z"/>
<path d="M5536 1234 c-91 -48 -135 -120 -136 -222 0 -140 100 -241 242 -242
176 0 296 176 227 337 -28 65 -73 109 -136 133 -73 27 -136 25 -197 -6z"/>
<path d="M7053 1245 c-94 -41 -153 -127 -153 -224 0 -178 177 -299 337 -230
63 27 100 62 129 124 56 117 7 263 -107 321 -56 28 -153 32 -206 9z"/>
<path d="M6334 1187 c-124 -36 -201 -162 -173 -286 22 -98 93 -168 194 -191
168 -38 326 127 284 296 -33 134 -175 218 -305 181z"/>
<path d="M8012 989 c-132 -25 -221 -159 -193 -289 56 -259 425 -261 480 -2 36
173 -114 325 -287 291z"/>
<path d="M4647 976 c-192 -71 -223 -332 -52 -439 148 -92 342 -9 373 162 18
102 -24 198 -113 253 -55 34 -151 45 -208 24z"/>
<path d="M5441 724 c-194 -91 -185 -366 14 -450 49 -20 144 -18 194 5 47 20
104 82 126 135 8 19 15 60 15 91 0 176 -189 295 -349 219z"/>
<path d="M7140 729 c-93 -42 -140 -117 -140 -223 1 -182 177 -296 342 -222 66
29 101 66 127 134 25 64 26 102 5 168 -45 134 -203 202 -334 143z"/>
<path d="M6332 666 c-56 -18 -106 -58 -140 -109 -24 -37 -27 -51 -27 -127 0
-80 2 -88 33 -133 41 -58 96 -94 163 -107 218 -42 373 214 236 391 -59 77
-175 114 -265 85z"/>
</g>
</svg>
